%TF.GenerationSoftware,KiCad,Pcbnew,(6.0.4)*%
%TF.CreationDate,2022-06-27T22:40:44-04:00*%
%TF.ProjectId,xiao-rp2040-keypad,7869616f-2d72-4703-9230-34302d6b6579,rev?*%
%TF.SameCoordinates,Original*%
%TF.FileFunction,Soldermask,Bot*%
%TF.FilePolarity,Negative*%
%FSLAX46Y46*%
G04 Gerber Fmt 4.6, Leading zero omitted, Abs format (unit mm)*
G04 Created by KiCad (PCBNEW (6.0.4)) date 2022-06-27 22:40:44*
%MOMM*%
%LPD*%
G01*
G04 APERTURE LIST*
%ADD10C,1.400000*%
%ADD11O,1.400000X1.400000*%
%ADD12R,1.600000X1.600000*%
%ADD13O,1.600000X1.600000*%
%ADD14C,3.987800*%
%ADD15C,1.750000*%
%ADD16C,2.250000*%
%ADD17C,3.200000*%
%ADD18C,1.300000*%
%ADD19R,1.800000X2.100000*%
%ADD20R,1.700000X1.700000*%
%ADD21O,1.700000X1.700000*%
G04 APERTURE END LIST*
D10*
%TO.C,R2*%
X112274466Y-57535534D03*
D11*
X104654466Y-57535534D03*
%TD*%
D12*
%TO.C,D12*%
X87784466Y-62725534D03*
D13*
X87784466Y-70345534D03*
%TD*%
D14*
%TO.C,SW6*%
X138500000Y-101285534D03*
D15*
X133420000Y-101285534D03*
X143580000Y-101285534D03*
D16*
X134690000Y-98745534D03*
X141040000Y-96205534D03*
%TD*%
D12*
%TO.C,D5*%
X108784466Y-62725534D03*
D13*
X108784466Y-70345534D03*
%TD*%
D15*
%TO.C,SW7*%
X105480000Y-120335534D03*
D14*
X100400000Y-120335534D03*
D15*
X95320000Y-120335534D03*
D16*
X96590000Y-117795534D03*
X102940000Y-115255534D03*
%TD*%
D12*
%TO.C,D7*%
X102784466Y-62725534D03*
D13*
X102784466Y-70345534D03*
%TD*%
D17*
%TO.C,H2*%
X88000000Y-54000000D03*
%TD*%
D15*
%TO.C,SW3*%
X143580000Y-82235534D03*
X133420000Y-82235534D03*
D14*
X138500000Y-82235534D03*
D16*
X134690000Y-79695534D03*
X141040000Y-77155534D03*
%TD*%
D14*
%TO.C,SW2*%
X119450000Y-82235534D03*
D15*
X114370000Y-82235534D03*
X124530000Y-82235534D03*
D16*
X115640000Y-79695534D03*
X121990000Y-77155534D03*
%TD*%
D17*
%TO.C,H3*%
X151000000Y-54000000D03*
%TD*%
D10*
%TO.C,R1*%
X92750000Y-51725534D03*
D11*
X92750000Y-59345534D03*
%TD*%
D12*
%TO.C,D10*%
X93784466Y-62725534D03*
D13*
X93784466Y-70345534D03*
%TD*%
D15*
%TO.C,SW1*%
X95320000Y-82235534D03*
D14*
X100400000Y-82235534D03*
D15*
X105480000Y-82235534D03*
D16*
X96590000Y-79695534D03*
X102940000Y-77155534D03*
%TD*%
D14*
%TO.C,SW8*%
X119450000Y-120335534D03*
D15*
X124530000Y-120335534D03*
X114370000Y-120335534D03*
D16*
X115640000Y-117795534D03*
X121990000Y-115255534D03*
%TD*%
D12*
%TO.C,D6*%
X105784466Y-62725534D03*
D13*
X105784466Y-70345534D03*
%TD*%
D15*
%TO.C,SW9*%
X133420000Y-120335534D03*
X143580000Y-120335534D03*
D14*
X138500000Y-120335534D03*
D16*
X134690000Y-117795534D03*
X141040000Y-115255534D03*
%TD*%
D12*
%TO.C,D8*%
X99784466Y-62725534D03*
D13*
X99784466Y-70345534D03*
%TD*%
D15*
%TO.C,SW4*%
X105480000Y-101285534D03*
D14*
X100400000Y-101285534D03*
D15*
X95320000Y-101285534D03*
D16*
X96590000Y-98745534D03*
X102940000Y-96205534D03*
%TD*%
D12*
%TO.C,D11*%
X90784466Y-62725534D03*
D13*
X90784466Y-70345534D03*
%TD*%
D17*
%TO.C,H1*%
X88000000Y-132000000D03*
%TD*%
D15*
%TO.C,SW5*%
X114370000Y-101285534D03*
X124530000Y-101285534D03*
D14*
X119450000Y-101285534D03*
D16*
X115640000Y-98745534D03*
X121990000Y-96205534D03*
%TD*%
D12*
%TO.C,D4*%
X111784466Y-62725534D03*
D13*
X111784466Y-70345534D03*
%TD*%
D10*
%TO.C,R3*%
X102464466Y-57535534D03*
D11*
X94844466Y-57535534D03*
%TD*%
D17*
%TO.C,H4*%
X151000000Y-132000000D03*
%TD*%
D12*
%TO.C,D9*%
X96784466Y-62725534D03*
D13*
X96784466Y-70345534D03*
%TD*%
D18*
%TO.C,J2*%
X146500000Y-66964466D03*
D19*
X154900000Y-63214466D03*
X146000000Y-62814466D03*
X151500000Y-70714466D03*
%TD*%
D20*
%TO.C,J1*%
X142500000Y-57500000D03*
D21*
X139960000Y-57500000D03*
X142500000Y-54960000D03*
X139960000Y-54960000D03*
X142500000Y-52420000D03*
X139960000Y-52420000D03*
%TD*%
M02*
