%TF.GenerationSoftware,KiCad,Pcbnew,(6.0.4)*%
%TF.CreationDate,2022-06-27T22:40:44-04:00*%
%TF.ProjectId,xiao-rp2040-keypad,7869616f-2d72-4703-9230-34302d6b6579,rev?*%
%TF.SameCoordinates,Original*%
%TF.FileFunction,Copper,L2,Bot*%
%TF.FilePolarity,Positive*%
%FSLAX46Y46*%
G04 Gerber Fmt 4.6, Leading zero omitted, Abs format (unit mm)*
G04 Created by KiCad (PCBNEW (6.0.4)) date 2022-06-27 22:40:44*
%MOMM*%
%LPD*%
G01*
G04 APERTURE LIST*
%TA.AperFunction,ComponentPad*%
%ADD10C,1.400000*%
%TD*%
%TA.AperFunction,ComponentPad*%
%ADD11O,1.400000X1.400000*%
%TD*%
%TA.AperFunction,ComponentPad*%
%ADD12R,1.600000X1.600000*%
%TD*%
%TA.AperFunction,ComponentPad*%
%ADD13O,1.600000X1.600000*%
%TD*%
%TA.AperFunction,ComponentPad*%
%ADD14C,2.250000*%
%TD*%
%TA.AperFunction,SMDPad,CuDef*%
%ADD15R,1.800000X2.100000*%
%TD*%
%TA.AperFunction,ComponentPad*%
%ADD16R,1.700000X1.700000*%
%TD*%
%TA.AperFunction,ComponentPad*%
%ADD17O,1.700000X1.700000*%
%TD*%
%TA.AperFunction,ViaPad*%
%ADD18C,0.500000*%
%TD*%
%TA.AperFunction,Conductor*%
%ADD19C,0.500000*%
%TD*%
%TA.AperFunction,Conductor*%
%ADD20C,1.000000*%
%TD*%
G04 APERTURE END LIST*
D10*
%TO.P,R2,1*%
%TO.N,Net-(R2-Pad1)*%
X112274466Y-57535534D03*
D11*
%TO.P,R2,2*%
%TO.N,3V3*%
X104654466Y-57535534D03*
%TD*%
D12*
%TO.P,D12,1,K*%
%TO.N,ROW3*%
X87784466Y-62725534D03*
D13*
%TO.P,D12,2,A*%
%TO.N,Net-(D12-Pad2)*%
X87784466Y-70345534D03*
%TD*%
D14*
%TO.P,SW6,1*%
%TO.N,COL3*%
X134690000Y-98745534D03*
%TO.P,SW6,2*%
%TO.N,Net-(D9-Pad2)*%
X141040000Y-96205534D03*
%TD*%
D12*
%TO.P,D5,1,K*%
%TO.N,ROW1*%
X108784466Y-62725534D03*
D13*
%TO.P,D5,2,A*%
%TO.N,Net-(D5-Pad2)*%
X108784466Y-70345534D03*
%TD*%
D14*
%TO.P,SW7,1*%
%TO.N,COL1*%
X96590000Y-117795534D03*
%TO.P,SW7,2*%
%TO.N,Net-(D10-Pad2)*%
X102940000Y-115255534D03*
%TD*%
D12*
%TO.P,D7,1,K*%
%TO.N,ROW2*%
X102784466Y-62725534D03*
D13*
%TO.P,D7,2,A*%
%TO.N,Net-(D7-Pad2)*%
X102784466Y-70345534D03*
%TD*%
D14*
%TO.P,SW3,1*%
%TO.N,COL3*%
X134690000Y-79695534D03*
%TO.P,SW3,2*%
%TO.N,Net-(D6-Pad2)*%
X141040000Y-77155534D03*
%TD*%
%TO.P,SW2,1*%
%TO.N,COL2*%
X115640000Y-79695534D03*
%TO.P,SW2,2*%
%TO.N,Net-(D5-Pad2)*%
X121990000Y-77155534D03*
%TD*%
D10*
%TO.P,R1,1*%
%TO.N,Net-(R1-Pad1)*%
X92750000Y-51725534D03*
D11*
%TO.P,R1,2*%
%TO.N,3V3*%
X92750000Y-59345534D03*
%TD*%
D12*
%TO.P,D10,1,K*%
%TO.N,ROW3*%
X93784466Y-62725534D03*
D13*
%TO.P,D10,2,A*%
%TO.N,Net-(D10-Pad2)*%
X93784466Y-70345534D03*
%TD*%
D14*
%TO.P,SW1,1*%
%TO.N,COL1*%
X96590000Y-79695534D03*
%TO.P,SW1,2*%
%TO.N,Net-(D4-Pad2)*%
X102940000Y-77155534D03*
%TD*%
%TO.P,SW8,1*%
%TO.N,COL2*%
X115640000Y-117795534D03*
%TO.P,SW8,2*%
%TO.N,Net-(D11-Pad2)*%
X121990000Y-115255534D03*
%TD*%
D12*
%TO.P,D6,1,K*%
%TO.N,ROW1*%
X105784466Y-62725534D03*
D13*
%TO.P,D6,2,A*%
%TO.N,Net-(D6-Pad2)*%
X105784466Y-70345534D03*
%TD*%
D14*
%TO.P,SW9,1*%
%TO.N,COL3*%
X134690000Y-117795534D03*
%TO.P,SW9,2*%
%TO.N,Net-(D12-Pad2)*%
X141040000Y-115255534D03*
%TD*%
D12*
%TO.P,D8,1,K*%
%TO.N,ROW2*%
X99784466Y-62725534D03*
D13*
%TO.P,D8,2,A*%
%TO.N,Net-(D8-Pad2)*%
X99784466Y-70345534D03*
%TD*%
D14*
%TO.P,SW4,1*%
%TO.N,COL1*%
X96590000Y-98745534D03*
%TO.P,SW4,2*%
%TO.N,Net-(D7-Pad2)*%
X102940000Y-96205534D03*
%TD*%
D12*
%TO.P,D11,1,K*%
%TO.N,ROW3*%
X90784466Y-62725534D03*
D13*
%TO.P,D11,2,A*%
%TO.N,Net-(D11-Pad2)*%
X90784466Y-70345534D03*
%TD*%
D14*
%TO.P,SW5,1*%
%TO.N,COL2*%
X115640000Y-98745534D03*
%TO.P,SW5,2*%
%TO.N,Net-(D8-Pad2)*%
X121990000Y-96205534D03*
%TD*%
D12*
%TO.P,D4,1,K*%
%TO.N,ROW1*%
X111784466Y-62725534D03*
D13*
%TO.P,D4,2,A*%
%TO.N,Net-(D4-Pad2)*%
X111784466Y-70345534D03*
%TD*%
D10*
%TO.P,R3,1*%
%TO.N,Net-(R3-Pad1)*%
X102464466Y-57535534D03*
D11*
%TO.P,R3,2*%
%TO.N,3V3*%
X94844466Y-57535534D03*
%TD*%
D12*
%TO.P,D9,1,K*%
%TO.N,ROW2*%
X96784466Y-62725534D03*
D13*
%TO.P,D9,2,A*%
%TO.N,Net-(D9-Pad2)*%
X96784466Y-70345534D03*
%TD*%
D15*
%TO.P,J2,1*%
%TO.N,TIP*%
X154900000Y-63214466D03*
%TO.P,J2,2*%
%TO.N,GND*%
X146000000Y-62814466D03*
%TO.P,J2,3*%
%TO.N,RING1*%
X151500000Y-70714466D03*
%TD*%
D16*
%TO.P,J1,1,Pin_1*%
%TO.N,GND*%
X142500000Y-57500000D03*
D17*
%TO.P,J1,2,Pin_2*%
%TO.N,3V3*%
X139960000Y-57500000D03*
%TO.P,J1,3,Pin_3*%
%TO.N,GND*%
X142500000Y-54960000D03*
%TO.P,J1,4,Pin_4*%
%TO.N,5V*%
X139960000Y-54960000D03*
%TO.P,J1,5,Pin_5*%
%TO.N,RING1*%
X142500000Y-52420000D03*
%TO.P,J1,6,Pin_6*%
%TO.N,TIP*%
X139960000Y-52420000D03*
%TD*%
D18*
%TO.N,Net-(D1-Pad1)*%
X117286020Y-51213980D03*
X117286020Y-53536020D03*
%TO.N,ROW1*%
X114000000Y-56000000D03*
%TO.N,Net-(R2-Pad1)*%
X106250000Y-57500000D03*
X105000000Y-53000000D03*
%TO.N,Net-(U1-Pad8)*%
X121750000Y-68000000D03*
X116000000Y-49750000D03*
X121500000Y-49750000D03*
X116000000Y-52500000D03*
%TO.N,Net-(D4-Pad2)*%
X111000000Y-76156014D03*
%TO.N,Net-(D5-Pad2)*%
X109250000Y-77500000D03*
%TO.N,Net-(D6-Pad2)*%
X106250000Y-75000000D03*
%TO.N,Net-(D8-Pad2)*%
X111750000Y-79000000D03*
X112000000Y-95500000D03*
X100000000Y-79000000D03*
%TO.N,Net-(D9-Pad2)*%
X86000000Y-104000000D03*
X85500000Y-76000000D03*
X96750000Y-76000000D03*
X141250000Y-104250000D03*
%TO.N,Net-(D10-Pad2)*%
X93000000Y-115250000D03*
%TO.N,Net-(D11-Pad2)*%
X91000000Y-107750000D03*
X121500000Y-108000000D03*
%TO.N,TIP*%
X154250000Y-58000000D03*
X122750000Y-63750000D03*
X123250000Y-51000000D03*
X148250000Y-58000000D03*
X146750000Y-50750000D03*
%TO.N,RING1*%
X129750000Y-66500000D03*
X144250000Y-71000000D03*
X151500000Y-70714466D03*
X145000000Y-52500000D03*
X129750000Y-71750000D03*
%TO.N,GND*%
X145750000Y-58000000D03*
%TO.N,COL1*%
X97250000Y-85250000D03*
X132750000Y-67000000D03*
X131500000Y-85250000D03*
%TO.N,COL2*%
X131500000Y-63750000D03*
X130500000Y-80000000D03*
%TO.N,COL3*%
X137500000Y-61750000D03*
%TO.N,Net-(R3-Pad1)*%
X102750000Y-54500000D03*
%TO.N,Net-(D12-Pad2)*%
X140750000Y-111750000D03*
X91750000Y-111750000D03*
%TO.N,3V3*%
X140000000Y-73500000D03*
X85250000Y-59500000D03*
X85250000Y-73500000D03*
%TO.N,Net-(D2-Pad1)*%
X115000000Y-49500000D03*
X116500000Y-68750000D03*
X106864466Y-52535534D03*
X107000000Y-49500000D03*
%TD*%
D19*
%TO.N,Net-(D1-Pad1)*%
X117286020Y-53536020D02*
X117286020Y-51213980D01*
%TO.N,ROW1*%
X113203103Y-61306896D02*
X111784466Y-62725534D01*
X114000000Y-56000000D02*
X114000000Y-59383018D01*
X113203100Y-61306893D02*
G75*
G03*
X114000000Y-59383018I-1923900J1923893D01*
G01*
%TO.N,Net-(R2-Pad1)*%
X105625000Y-53625000D02*
X105000000Y-53000000D01*
X106250000Y-55133883D02*
X106250000Y-57500000D01*
X105624995Y-53625005D02*
G75*
G02*
X106250000Y-55133883I-1508895J-1508895D01*
G01*
%TO.N,Net-(U1-Pad8)*%
X121625000Y-67875000D02*
X121750000Y-68000000D01*
X116000000Y-52500000D02*
X116000000Y-49750000D01*
X121500000Y-67573223D02*
X121500000Y-49750000D01*
X121625007Y-67874993D02*
G75*
G02*
X121500000Y-67573223I301793J301793D01*
G01*
%TO.N,Net-(D4-Pad2)*%
X111392233Y-75763781D02*
X111000000Y-76156014D01*
X111784466Y-74816846D02*
X111784466Y-70345534D01*
X111784499Y-74816846D02*
G75*
G02*
X111392233Y-75763781I-1339199J46D01*
G01*
%TO.N,Net-(D5-Pad2)*%
X109250000Y-77500000D02*
X109017233Y-77267233D01*
X108784466Y-76705283D02*
X108784466Y-70345534D01*
X109017221Y-77267245D02*
G75*
G02*
X108784466Y-76705283I561979J561945D01*
G01*
%TO.N,Net-(D6-Pad2)*%
X106250000Y-75000000D02*
X106017233Y-74767233D01*
X105784466Y-74205283D02*
X105784466Y-70345534D01*
X106017221Y-74767245D02*
G75*
G02*
X105784466Y-74205283I561979J561945D01*
G01*
%TO.N,Net-(D7-Pad2)*%
X101065489Y-73191492D02*
X101065489Y-78283028D01*
X101862385Y-71267614D02*
X102784466Y-70345534D01*
X102143103Y-80487624D02*
X101862385Y-80206906D01*
X102940000Y-82411502D02*
X102940000Y-96205534D01*
X102939990Y-82411502D02*
G75*
G03*
X102143103Y-80487624I-2720790J2D01*
G01*
X101862392Y-80206899D02*
G75*
G02*
X101065489Y-78283028I1923908J1923899D01*
G01*
X101065494Y-73191492D02*
G75*
G02*
X101862385Y-71267614I2720806J-8D01*
G01*
%TO.N,Net-(D8-Pad2)*%
X100000000Y-79000000D02*
X99892233Y-78892233D01*
X111750000Y-79000000D02*
X111750000Y-95073223D01*
X112000000Y-95500000D02*
X111875000Y-95375000D01*
X99784466Y-78632060D02*
X99784466Y-70345534D01*
X99784493Y-78632060D02*
G75*
G03*
X99892233Y-78892233I367907J-40D01*
G01*
X111875007Y-95374993D02*
G75*
G02*
X111750000Y-95073223I301793J301793D01*
G01*
%TO.N,Net-(D9-Pad2)*%
X85750000Y-103750000D02*
X86000000Y-104000000D01*
X96784466Y-75941162D02*
X96784466Y-70345534D01*
X141145000Y-104145000D02*
X141250000Y-104250000D01*
X141040000Y-103891507D02*
X141040000Y-96205534D01*
X85500000Y-76000000D02*
X85500000Y-103146446D01*
X96767233Y-75982767D02*
X96750000Y-76000000D01*
X85749984Y-103750016D02*
G75*
G02*
X85500000Y-103146446I603516J603516D01*
G01*
X141145002Y-104144998D02*
G75*
G02*
X141040000Y-103891507I253498J253498D01*
G01*
X96784431Y-75941162D02*
G75*
G02*
X96767233Y-75982767I-58831J-38D01*
G01*
%TO.N,Net-(D10-Pad2)*%
X93392233Y-114857767D02*
X93000000Y-115250000D01*
X93784466Y-113910832D02*
X93784466Y-70345534D01*
X93784489Y-113910832D02*
G75*
G02*
X93392233Y-114857767I-1339189J32D01*
G01*
%TO.N,Net-(D11-Pad2)*%
X90784466Y-107382060D02*
X90784466Y-70345534D01*
X121745000Y-108245000D02*
X121500000Y-108000000D01*
X90892233Y-107642233D02*
X91000000Y-107750000D01*
X121990000Y-108836482D02*
X121990000Y-115255534D01*
X121990007Y-108836482D02*
G75*
G03*
X121745000Y-108245000I-836507J-18D01*
G01*
X90784493Y-107382060D02*
G75*
G03*
X90892233Y-107642233I367907J-40D01*
G01*
%TO.N,TIP*%
X123250000Y-51000000D02*
X123250000Y-62896446D01*
X154900000Y-59109619D02*
X154900000Y-63214466D01*
X148250000Y-58000000D02*
X147500000Y-57250000D01*
X122750000Y-63750000D02*
X123000000Y-63500000D01*
X146750000Y-50750000D02*
X146750000Y-55439339D01*
X154250000Y-58000000D02*
X154575000Y-58325000D01*
X154575006Y-58324994D02*
G75*
G02*
X154900000Y-59109619I-784606J-784606D01*
G01*
X146749984Y-55439339D02*
G75*
G03*
X147500000Y-57250000I2560716J39D01*
G01*
X123250019Y-62896446D02*
G75*
G02*
X123000000Y-63500000I-853619J46D01*
G01*
%TO.N,RING1*%
X145000000Y-52500000D02*
X144675244Y-52824755D01*
X129750000Y-71750000D02*
X129750000Y-66500000D01*
X144350489Y-70828454D02*
X144350489Y-53608784D01*
X144300244Y-70949755D02*
X144250000Y-71000000D01*
X144350514Y-70828454D02*
G75*
G02*
X144300244Y-70949755I-171614J54D01*
G01*
X144675247Y-52824758D02*
G75*
G03*
X144350489Y-53608784I784053J-784042D01*
G01*
%TO.N,GND*%
X146000000Y-58426776D02*
X146000000Y-62814466D01*
X145750000Y-58000000D02*
X145875000Y-58125000D01*
X145874993Y-58125007D02*
G75*
G02*
X146000000Y-58426776I-301793J-301793D01*
G01*
%TO.N,COL1*%
X97250000Y-95893347D02*
X97250000Y-85250000D01*
X96617260Y-117768273D02*
X96590000Y-117795534D01*
X96920000Y-80025534D02*
X96590000Y-79695534D01*
X131500000Y-85250000D02*
X131500000Y-83166260D01*
X97250000Y-85250000D02*
X97250000Y-80822224D01*
X96590000Y-97486728D02*
X96590000Y-98745534D01*
X96644521Y-117702460D02*
X96644521Y-98838607D01*
X132750000Y-67000000D02*
X132750000Y-80148493D01*
X96617290Y-117768303D02*
G75*
G03*
X96644521Y-117702460I-65890J65803D01*
G01*
X96590023Y-97486728D02*
G75*
G02*
X96920000Y-96690038I1126677J28D01*
G01*
X97249979Y-80822224D02*
G75*
G03*
X96919999Y-80025535I-1126679J24D01*
G01*
X96617273Y-98772781D02*
G75*
G02*
X96644521Y-98838607I-65873J-65819D01*
G01*
X131499977Y-83166260D02*
G75*
G02*
X132125000Y-81657377I2133923J-40D01*
G01*
X96919978Y-96690016D02*
G75*
G03*
X97250000Y-95893347I-796678J796716D01*
G01*
X132749990Y-80148493D02*
G75*
G02*
X132125000Y-81657377I-2133890J-7D01*
G01*
%TO.N,COL2*%
X131500000Y-63750000D02*
X131500000Y-78292893D01*
X116202500Y-117233034D02*
X115640000Y-117795534D01*
X131000000Y-79500000D02*
X130500000Y-80000000D01*
X116765000Y-115875038D02*
X116765000Y-100666029D01*
X116202500Y-80258034D02*
X115640000Y-79695534D01*
X116765000Y-81616029D02*
X116765000Y-96825038D01*
X116764977Y-100666029D02*
G75*
G03*
X116202499Y-99308035I-1920477J29D01*
G01*
X116764977Y-81616029D02*
G75*
G03*
X116202499Y-80258035I-1920477J29D01*
G01*
X116202466Y-98183000D02*
G75*
G03*
X116202500Y-99308034I562534J-562500D01*
G01*
X131499997Y-78292893D02*
G75*
G02*
X131000000Y-79500000I-1707097J-7D01*
G01*
X116765026Y-115875038D02*
G75*
G02*
X116202500Y-117233034I-1920526J38D01*
G01*
X116765026Y-96825038D02*
G75*
G02*
X116202500Y-98183034I-1920526J38D01*
G01*
%TO.N,COL3*%
X137500000Y-61750000D02*
X136875000Y-62250000D01*
X135815000Y-100666029D02*
X135815000Y-115875038D01*
X135252500Y-79133034D02*
X135470000Y-78915534D01*
X135252500Y-117233034D02*
X134690000Y-117795534D01*
X135815000Y-81616029D02*
X135815000Y-96825038D01*
X136250000Y-63550390D02*
X136250000Y-77032447D01*
X135814977Y-81616029D02*
G75*
G03*
X135252499Y-80258035I-1920477J29D01*
G01*
X135252516Y-99308018D02*
G75*
G02*
X135815000Y-100666029I-1358016J-1357982D01*
G01*
X136250029Y-77032447D02*
G75*
G02*
X135470000Y-78915534I-2663129J47D01*
G01*
X135252534Y-99308000D02*
G75*
G02*
X135252500Y-98183034I562466J562500D01*
G01*
X135252482Y-117233016D02*
G75*
G03*
X135815000Y-115875038I-1357982J1358016D01*
G01*
X135252534Y-80258000D02*
G75*
G02*
X135252500Y-79133034I562466J562500D01*
G01*
X135815026Y-96825038D02*
G75*
G02*
X135252500Y-98183034I-1920526J38D01*
G01*
X136249988Y-63550390D02*
G75*
G02*
X136875000Y-62250000I1665312J-10D01*
G01*
%TO.N,Net-(R3-Pad1)*%
X102750000Y-54500000D02*
X102607233Y-54642767D01*
X102464466Y-54987437D02*
X102464466Y-57535534D01*
X102607215Y-54642749D02*
G75*
G03*
X102464466Y-54987437I344685J-344651D01*
G01*
%TO.N,Net-(D12-Pad2)*%
X87784466Y-106657484D02*
X87784466Y-70345534D01*
X140750000Y-111750000D02*
X140750000Y-114760473D01*
X88581362Y-108581362D02*
X91750000Y-111750000D01*
X140895000Y-115110534D02*
X141040000Y-115255534D01*
X140894978Y-115110556D02*
G75*
G02*
X140750000Y-114760473I350122J350056D01*
G01*
X87784466Y-106657484D02*
G75*
G03*
X88581363Y-108581361I2720734J-16D01*
G01*
D20*
%TO.N,3V3*%
X139980000Y-73480000D02*
X140000000Y-73500000D01*
X139960000Y-73431715D02*
X139960000Y-57500000D01*
X85250000Y-73500000D02*
X85250000Y-59500000D01*
X139980005Y-73479995D02*
G75*
G02*
X139960000Y-73431715I48295J48295D01*
G01*
D19*
%TO.N,Net-(D2-Pad1)*%
X115000000Y-49500000D02*
X115000000Y-66189339D01*
X116500000Y-68750000D02*
X115750000Y-68000000D01*
X106864466Y-52535534D02*
X106932233Y-52467767D01*
X107000000Y-52304162D02*
X107000000Y-49500000D01*
X114999984Y-66189339D02*
G75*
G03*
X115750000Y-68000000I2560716J39D01*
G01*
X106932258Y-52467792D02*
G75*
G03*
X107000000Y-52304162I-163658J163592D01*
G01*
%TD*%
%TA.AperFunction,Conductor*%
%TO.N,COL2*%
G36*
X115292254Y-79268366D02*
G01*
X116366576Y-79561521D01*
X116756512Y-79667925D01*
X116763591Y-79673409D01*
X116765118Y-79678652D01*
X116775690Y-79899974D01*
X116795831Y-80095659D01*
X116822864Y-80266671D01*
X116822884Y-80266769D01*
X116822885Y-80266775D01*
X116854514Y-80422442D01*
X116854519Y-80422465D01*
X116888528Y-80572494D01*
X116888512Y-80572498D01*
X116888540Y-80572548D01*
X116922578Y-80726024D01*
X116922648Y-80726360D01*
X116954477Y-80892817D01*
X116954564Y-80893336D01*
X116981933Y-81082238D01*
X116982002Y-81082814D01*
X116994164Y-81212813D01*
X117002672Y-81303759D01*
X117002711Y-81304328D01*
X117013892Y-81555101D01*
X117010837Y-81563518D01*
X117002469Y-81567319D01*
X116670089Y-81574816D01*
X116525187Y-81578085D01*
X116516839Y-81574846D01*
X116513304Y-81567761D01*
X116512803Y-81563518D01*
X116489849Y-81369322D01*
X116429371Y-81211967D01*
X116337465Y-81097170D01*
X116218483Y-81015847D01*
X116076771Y-80958909D01*
X116076412Y-80958816D01*
X116076407Y-80958814D01*
X116013969Y-80942574D01*
X115916680Y-80917270D01*
X115916543Y-80917242D01*
X115916534Y-80917240D01*
X115742610Y-80881853D01*
X115742556Y-80881842D01*
X115559074Y-80843608D01*
X115558456Y-80843462D01*
X115486577Y-80824360D01*
X115370171Y-80793424D01*
X115369083Y-80793076D01*
X115187655Y-80725025D01*
X115181113Y-80718912D01*
X115180092Y-80713278D01*
X115277501Y-79278860D01*
X115281480Y-79270838D01*
X115289967Y-79267980D01*
X115292254Y-79268366D01*
G37*
%TD.AperFunction*%
%TD*%
%TA.AperFunction,Conductor*%
%TO.N,COL1*%
G36*
X97707051Y-79692682D02*
G01*
X97713681Y-79698702D01*
X97714797Y-79703977D01*
X97708987Y-79945058D01*
X97708956Y-79945671D01*
X97692663Y-80158106D01*
X97692601Y-80158709D01*
X97668591Y-80344634D01*
X97668518Y-80345118D01*
X97639344Y-80514809D01*
X97639299Y-80515057D01*
X97607500Y-80678839D01*
X97575680Y-80846734D01*
X97546439Y-81028834D01*
X97546427Y-81028941D01*
X97546424Y-81028959D01*
X97545332Y-81038327D01*
X97522360Y-81235335D01*
X97506020Y-81476435D01*
X97506017Y-81476582D01*
X97506016Y-81476602D01*
X97500241Y-81750877D01*
X97496641Y-81759076D01*
X97488544Y-81762331D01*
X97010900Y-81762331D01*
X97002627Y-81758904D01*
X96999229Y-81751458D01*
X96984873Y-81548949D01*
X96984837Y-81548435D01*
X96941301Y-81376776D01*
X96872317Y-81239666D01*
X96780812Y-81129413D01*
X96669712Y-81038327D01*
X96654476Y-81028834D01*
X96542105Y-80958820D01*
X96542098Y-80958816D01*
X96541944Y-80958720D01*
X96490936Y-80931391D01*
X96400462Y-80882915D01*
X96400435Y-80882901D01*
X96331152Y-80846641D01*
X96248298Y-80803278D01*
X96247930Y-80803077D01*
X96088262Y-80712075D01*
X96087546Y-80711632D01*
X95929823Y-80606028D01*
X95924855Y-80598578D01*
X95925091Y-80593063D01*
X96324390Y-79209835D01*
X96329977Y-79202838D01*
X96339582Y-79202068D01*
X97707051Y-79692682D01*
G37*
%TD.AperFunction*%
%TD*%
%TA.AperFunction,Conductor*%
%TO.N,Net-(D9-Pad2)*%
G36*
X96792899Y-69954303D02*
G01*
X97498644Y-70688191D01*
X97501909Y-70696530D01*
X97500592Y-70701696D01*
X97431980Y-70833679D01*
X97431367Y-70834858D01*
X97431082Y-70835373D01*
X97360755Y-70955464D01*
X97360580Y-70955754D01*
X97293931Y-71062022D01*
X97232236Y-71160543D01*
X97232201Y-71160605D01*
X97232189Y-71160624D01*
X97196500Y-71222958D01*
X97176766Y-71257423D01*
X97128712Y-71358901D01*
X97128612Y-71359186D01*
X97128609Y-71359193D01*
X97089373Y-71470905D01*
X97089371Y-71470913D01*
X97089265Y-71471214D01*
X97059614Y-71600599D01*
X97040951Y-71753293D01*
X97040942Y-71753533D01*
X97040942Y-71753539D01*
X97034868Y-71924250D01*
X97031149Y-71932396D01*
X97023175Y-71935534D01*
X96545757Y-71935534D01*
X96537484Y-71932107D01*
X96534064Y-71924250D01*
X96527989Y-71753539D01*
X96527989Y-71753533D01*
X96527980Y-71753293D01*
X96509317Y-71600599D01*
X96479666Y-71471214D01*
X96479560Y-71470913D01*
X96479558Y-71470905D01*
X96440322Y-71359193D01*
X96440319Y-71359186D01*
X96440219Y-71358901D01*
X96392165Y-71257423D01*
X96372431Y-71222958D01*
X96336742Y-71160624D01*
X96336730Y-71160605D01*
X96336695Y-71160543D01*
X96275000Y-71062022D01*
X96208351Y-70955754D01*
X96208176Y-70955464D01*
X96137849Y-70835373D01*
X96137564Y-70834858D01*
X96068340Y-70701698D01*
X96067564Y-70692776D01*
X96070288Y-70688191D01*
X96776033Y-69954303D01*
X96784237Y-69950715D01*
X96792899Y-69954303D01*
G37*
%TD.AperFunction*%
%TD*%
%TA.AperFunction,Conductor*%
%TO.N,COL2*%
G36*
X116764713Y-98720163D02*
G01*
X116765926Y-98745559D01*
X116765926Y-98745560D01*
X116775690Y-98949974D01*
X116795831Y-99145659D01*
X116822864Y-99316671D01*
X116822884Y-99316769D01*
X116822885Y-99316775D01*
X116854514Y-99472442D01*
X116854519Y-99472465D01*
X116888528Y-99622494D01*
X116888512Y-99622498D01*
X116888540Y-99622548D01*
X116922578Y-99776024D01*
X116922648Y-99776360D01*
X116954477Y-99942817D01*
X116954564Y-99943336D01*
X116981933Y-100132238D01*
X116982002Y-100132814D01*
X116994164Y-100262813D01*
X117002672Y-100353759D01*
X117002711Y-100354328D01*
X117013892Y-100605101D01*
X117010837Y-100613518D01*
X117002469Y-100617319D01*
X116670089Y-100624816D01*
X116525187Y-100628085D01*
X116516839Y-100624846D01*
X116513304Y-100617761D01*
X116512803Y-100613518D01*
X116489849Y-100419322D01*
X116429371Y-100261967D01*
X116337465Y-100147170D01*
X116218483Y-100065847D01*
X116076771Y-100008909D01*
X116076412Y-100008816D01*
X116076407Y-100008814D01*
X116013969Y-99992574D01*
X115916680Y-99967270D01*
X115916543Y-99967242D01*
X115916534Y-99967240D01*
X115742610Y-99931853D01*
X115742556Y-99931842D01*
X115559074Y-99893608D01*
X115558456Y-99893462D01*
X115486577Y-99874360D01*
X115370171Y-99843424D01*
X115369083Y-99843076D01*
X115187655Y-99775025D01*
X115181113Y-99768912D01*
X115180092Y-99763278D01*
X115189652Y-99622494D01*
X115278469Y-98314604D01*
X116764713Y-98720163D01*
G37*
%TD.AperFunction*%
%TD*%
%TA.AperFunction,Conductor*%
%TO.N,COL3*%
G36*
X135814713Y-98720153D02*
G01*
X135815926Y-98745546D01*
X135815926Y-98745551D01*
X135825693Y-98949963D01*
X135845835Y-99145647D01*
X135872870Y-99316659D01*
X135904528Y-99472452D01*
X135904550Y-99472548D01*
X135938527Y-99622426D01*
X135938539Y-99622480D01*
X135972591Y-99776009D01*
X135972661Y-99776345D01*
X136004491Y-99942801D01*
X136004578Y-99943320D01*
X136031950Y-100132221D01*
X136032019Y-100132797D01*
X136044037Y-100261246D01*
X136052691Y-100353741D01*
X136052730Y-100354310D01*
X136063914Y-100605082D01*
X136060860Y-100613499D01*
X136052490Y-100617300D01*
X135653521Y-100626303D01*
X135575209Y-100628070D01*
X135566861Y-100624831D01*
X135563326Y-100617746D01*
X135539869Y-100419307D01*
X135479388Y-100261952D01*
X135478823Y-100261246D01*
X135388023Y-100147833D01*
X135388020Y-100147830D01*
X135387481Y-100147157D01*
X135268495Y-100065836D01*
X135126782Y-100008901D01*
X135126432Y-100008810D01*
X135126426Y-100008808D01*
X135020373Y-99981226D01*
X134966688Y-99967264D01*
X134792565Y-99931840D01*
X134609078Y-99893607D01*
X134608460Y-99893461D01*
X134420182Y-99843427D01*
X134419078Y-99843074D01*
X134237657Y-99775026D01*
X134231114Y-99768912D01*
X134230093Y-99763278D01*
X134249847Y-99472378D01*
X134328468Y-98314604D01*
X135814713Y-98720153D01*
G37*
%TD.AperFunction*%
%TD*%
%TA.AperFunction,Conductor*%
%TO.N,Net-(D10-Pad2)*%
G36*
X93792899Y-69954303D02*
G01*
X94498644Y-70688191D01*
X94501909Y-70696530D01*
X94500592Y-70701696D01*
X94431980Y-70833679D01*
X94431367Y-70834858D01*
X94431082Y-70835373D01*
X94360755Y-70955464D01*
X94360580Y-70955754D01*
X94293931Y-71062022D01*
X94232236Y-71160543D01*
X94232201Y-71160605D01*
X94232189Y-71160624D01*
X94196500Y-71222958D01*
X94176766Y-71257423D01*
X94128712Y-71358901D01*
X94128612Y-71359186D01*
X94128609Y-71359193D01*
X94089373Y-71470905D01*
X94089371Y-71470913D01*
X94089265Y-71471214D01*
X94059614Y-71600599D01*
X94040951Y-71753293D01*
X94040942Y-71753533D01*
X94040942Y-71753539D01*
X94034868Y-71924250D01*
X94031149Y-71932396D01*
X94023175Y-71935534D01*
X93545757Y-71935534D01*
X93537484Y-71932107D01*
X93534064Y-71924250D01*
X93527989Y-71753539D01*
X93527989Y-71753533D01*
X93527980Y-71753293D01*
X93509317Y-71600599D01*
X93479666Y-71471214D01*
X93479560Y-71470913D01*
X93479558Y-71470905D01*
X93440322Y-71359193D01*
X93440319Y-71359186D01*
X93440219Y-71358901D01*
X93392165Y-71257423D01*
X93372431Y-71222958D01*
X93336742Y-71160624D01*
X93336730Y-71160605D01*
X93336695Y-71160543D01*
X93275000Y-71062022D01*
X93208351Y-70955754D01*
X93208176Y-70955464D01*
X93137849Y-70835373D01*
X93137564Y-70834858D01*
X93068340Y-70701698D01*
X93067564Y-70692776D01*
X93070288Y-70688191D01*
X93776033Y-69954303D01*
X93784237Y-69950715D01*
X93792899Y-69954303D01*
G37*
%TD.AperFunction*%
%TD*%
%TA.AperFunction,Conductor*%
%TO.N,COL3*%
G36*
X136310874Y-78032001D02*
G01*
X136317459Y-78038067D01*
X136317881Y-78046861D01*
X136225876Y-78308847D01*
X136193190Y-78412157D01*
X136153941Y-78536214D01*
X136152158Y-78541848D01*
X136095520Y-78744048D01*
X136050932Y-78924516D01*
X136050915Y-78924592D01*
X136013361Y-79092321D01*
X135977782Y-79256524D01*
X135977755Y-79256643D01*
X135939187Y-79426084D01*
X135939120Y-79426362D01*
X135892508Y-79610257D01*
X135892411Y-79610617D01*
X135832708Y-79818123D01*
X135832594Y-79818494D01*
X135754727Y-80058823D01*
X134294468Y-80095484D01*
X134301256Y-79610449D01*
X134314786Y-78643545D01*
X134318328Y-78635321D01*
X134323197Y-78632480D01*
X134373263Y-78617826D01*
X134521122Y-78574547D01*
X134522175Y-78574291D01*
X134689446Y-78541749D01*
X134717361Y-78536318D01*
X134717986Y-78536215D01*
X134761743Y-78530173D01*
X134902520Y-78510736D01*
X134902601Y-78510725D01*
X135018350Y-78495568D01*
X135075973Y-78488023D01*
X135076097Y-78488000D01*
X135076105Y-78487999D01*
X135237130Y-78458431D01*
X135237133Y-78458430D01*
X135237461Y-78458370D01*
X135307785Y-78436507D01*
X135386110Y-78412157D01*
X135386112Y-78412156D01*
X135386640Y-78411992D01*
X135444384Y-78381157D01*
X135522510Y-78339438D01*
X135522513Y-78339436D01*
X135523114Y-78339115D01*
X135646482Y-78229961D01*
X135756348Y-78074757D01*
X135769034Y-78046861D01*
X135847819Y-77873605D01*
X135854364Y-77867492D01*
X135862501Y-77867464D01*
X136310874Y-78032001D01*
G37*
%TD.AperFunction*%
%TD*%
%TA.AperFunction,Conductor*%
%TO.N,COL2*%
G36*
X116802986Y-96869266D02*
G01*
X117002514Y-96873776D01*
X117010708Y-96877389D01*
X117013938Y-96885995D01*
X117002746Y-97136772D01*
X117002707Y-97137336D01*
X116983330Y-97344397D01*
X116982031Y-97358275D01*
X116981962Y-97358851D01*
X116972344Y-97425228D01*
X116954588Y-97547766D01*
X116954501Y-97548285D01*
X116922670Y-97714745D01*
X116922600Y-97715081D01*
X116919782Y-97727787D01*
X116888549Y-97868612D01*
X116854539Y-98018643D01*
X116822881Y-98174438D01*
X116795845Y-98345453D01*
X116775699Y-98541140D01*
X116764712Y-98770955D01*
X115278465Y-99176461D01*
X115180102Y-97727787D01*
X115182960Y-97719300D01*
X115187666Y-97716039D01*
X115369088Y-97647991D01*
X115370192Y-97647638D01*
X115558471Y-97597604D01*
X115559089Y-97597458D01*
X115742575Y-97559225D01*
X115742629Y-97559214D01*
X115916552Y-97523830D01*
X115916561Y-97523828D01*
X115916698Y-97523800D01*
X116004886Y-97500865D01*
X116076435Y-97482257D01*
X116076441Y-97482255D01*
X116076791Y-97482164D01*
X116218504Y-97425228D01*
X116337490Y-97343905D01*
X116429401Y-97229109D01*
X116464783Y-97137061D01*
X116489625Y-97072431D01*
X116489886Y-97071752D01*
X116513350Y-96873311D01*
X116517725Y-96865498D01*
X116525232Y-96862988D01*
X116802986Y-96869266D01*
G37*
%TD.AperFunction*%
%TD*%
%TA.AperFunction,Conductor*%
%TO.N,COL1*%
G36*
X96891583Y-115540887D02*
G01*
X96894999Y-115548661D01*
X96905937Y-115805067D01*
X96938360Y-116027051D01*
X96989047Y-116213361D01*
X97055255Y-116373947D01*
X97134243Y-116518757D01*
X97134357Y-116518935D01*
X97223245Y-116657705D01*
X97223294Y-116657779D01*
X97319509Y-116800729D01*
X97319650Y-116800943D01*
X97420292Y-116957760D01*
X97420624Y-116958311D01*
X97522929Y-117138839D01*
X97523327Y-117139605D01*
X97621267Y-117346711D01*
X97621706Y-117355655D01*
X97618724Y-117360219D01*
X96571811Y-118349029D01*
X96563443Y-118352218D01*
X96554964Y-118348218D01*
X96254634Y-118004250D01*
X95607816Y-117263449D01*
X95604956Y-117254964D01*
X95606574Y-117249774D01*
X95720160Y-117058821D01*
X95720593Y-117058145D01*
X95836106Y-116891189D01*
X95836425Y-116890750D01*
X95837729Y-116889041D01*
X95947504Y-116745123D01*
X96051701Y-116611497D01*
X96146451Y-116480642D01*
X96210771Y-116373947D01*
X96229169Y-116343428D01*
X96229172Y-116343422D01*
X96229356Y-116343117D01*
X96298016Y-116189479D01*
X96350030Y-116010285D01*
X96373767Y-115856064D01*
X96382949Y-115796412D01*
X96382949Y-115796410D01*
X96382998Y-115796093D01*
X96394023Y-115548639D01*
X96397814Y-115540527D01*
X96405711Y-115537460D01*
X96883310Y-115537460D01*
X96891583Y-115540887D01*
G37*
%TD.AperFunction*%
%TD*%
%TA.AperFunction,Conductor*%
%TO.N,Net-(D11-Pad2)*%
G36*
X122237078Y-113013961D02*
G01*
X122240494Y-113021718D01*
X122251539Y-113271854D01*
X122284418Y-113488316D01*
X122336026Y-113669588D01*
X122403755Y-113825335D01*
X122484993Y-113965225D01*
X122577132Y-114098925D01*
X122577155Y-114098956D01*
X122577168Y-114098975D01*
X122677519Y-114236043D01*
X122677637Y-114236208D01*
X122783496Y-114386170D01*
X122783834Y-114386676D01*
X122892625Y-114559186D01*
X122893053Y-114559922D01*
X122998504Y-114757665D01*
X122999373Y-114766577D01*
X122996613Y-114771280D01*
X121998433Y-115809265D01*
X121990229Y-115812853D01*
X121981567Y-115809265D01*
X120983387Y-114771280D01*
X120980122Y-114762941D01*
X120981496Y-114757665D01*
X121086946Y-114559922D01*
X121087374Y-114559186D01*
X121196165Y-114386676D01*
X121196503Y-114386170D01*
X121302362Y-114236208D01*
X121302480Y-114236043D01*
X121402831Y-114098975D01*
X121402844Y-114098956D01*
X121402867Y-114098925D01*
X121495006Y-113965225D01*
X121576244Y-113825335D01*
X121643973Y-113669588D01*
X121695581Y-113488316D01*
X121728460Y-113271854D01*
X121739506Y-113021718D01*
X121743295Y-113013604D01*
X121751195Y-113010534D01*
X122228805Y-113010534D01*
X122237078Y-113013961D01*
G37*
%TD.AperFunction*%
%TD*%
%TA.AperFunction,Conductor*%
%TO.N,TIP*%
G36*
X155147020Y-61427893D02*
G01*
X155150438Y-61435710D01*
X155158046Y-61630784D01*
X155181098Y-61802883D01*
X155217525Y-61948049D01*
X155265695Y-62073569D01*
X155323978Y-62186729D01*
X155390743Y-62294816D01*
X155390772Y-62294859D01*
X155390780Y-62294872D01*
X155464316Y-62405054D01*
X155464358Y-62405117D01*
X155543080Y-62524745D01*
X155543323Y-62525132D01*
X155625439Y-62661208D01*
X155625780Y-62661813D01*
X155706077Y-62814697D01*
X155706890Y-62823615D01*
X155704152Y-62828247D01*
X154908433Y-63655697D01*
X154900229Y-63659285D01*
X154891567Y-63655697D01*
X154095848Y-62828247D01*
X154092583Y-62819908D01*
X154093923Y-62814697D01*
X154174219Y-62661813D01*
X154174560Y-62661208D01*
X154256676Y-62525132D01*
X154256919Y-62524745D01*
X154335641Y-62405117D01*
X154335683Y-62405054D01*
X154409219Y-62294872D01*
X154409227Y-62294859D01*
X154409256Y-62294816D01*
X154476021Y-62186729D01*
X154534304Y-62073569D01*
X154582474Y-61948049D01*
X154618901Y-61802883D01*
X154641953Y-61630784D01*
X154649561Y-61435709D01*
X154653308Y-61427577D01*
X154661252Y-61424466D01*
X155138747Y-61424466D01*
X155147020Y-61427893D01*
G37*
%TD.AperFunction*%
%TD*%
%TA.AperFunction,Conductor*%
%TO.N,COL1*%
G36*
X97465620Y-95606390D02*
G01*
X97470833Y-95614362D01*
X97527129Y-95963131D01*
X97527266Y-95964437D01*
X97542152Y-96275962D01*
X97542145Y-96277199D01*
X97526266Y-96550352D01*
X97526175Y-96551279D01*
X97509641Y-96669867D01*
X97491968Y-96796619D01*
X97491907Y-96797008D01*
X97475472Y-96890408D01*
X97451816Y-97024846D01*
X97442418Y-97086820D01*
X97418403Y-97245174D01*
X97404232Y-97468088D01*
X97421835Y-97703870D01*
X97483747Y-97962799D01*
X97483913Y-97963206D01*
X97483913Y-97963208D01*
X97599641Y-98248121D01*
X97599579Y-98257076D01*
X97597234Y-98260634D01*
X96590000Y-99308034D01*
X96061297Y-98758247D01*
X96059867Y-98756760D01*
X96059866Y-98756758D01*
X95583641Y-98261544D01*
X95580376Y-98253205D01*
X95581981Y-98247516D01*
X95758848Y-97945845D01*
X95759816Y-97944440D01*
X95964579Y-97689271D01*
X95965413Y-97688339D01*
X96181926Y-97470873D01*
X96182371Y-97470449D01*
X96398373Y-97275180D01*
X96398390Y-97275164D01*
X96430690Y-97245174D01*
X96601238Y-97086820D01*
X96778310Y-96890036D01*
X96917165Y-96669292D01*
X96957321Y-96550827D01*
X97005145Y-96409736D01*
X97005145Y-96409734D01*
X97005378Y-96409048D01*
X97015894Y-96277199D01*
X97030475Y-96094374D01*
X97030475Y-96094371D01*
X97030523Y-96093768D01*
X96981568Y-95718585D01*
X96983896Y-95709938D01*
X96990696Y-95705636D01*
X97456809Y-95604791D01*
X97465620Y-95606390D01*
G37*
%TD.AperFunction*%
%TD*%
%TA.AperFunction,Conductor*%
%TO.N,Net-(D12-Pad2)*%
G36*
X140997137Y-113038900D02*
G01*
X141000550Y-113046594D01*
X141011710Y-113272370D01*
X141045608Y-113468102D01*
X141099840Y-113630755D01*
X141172554Y-113768414D01*
X141261897Y-113889164D01*
X141366018Y-114001093D01*
X141366139Y-114001208D01*
X141366143Y-114001212D01*
X141483007Y-114112232D01*
X141483104Y-114112323D01*
X141611071Y-114230724D01*
X141611286Y-114230929D01*
X141670825Y-114289010D01*
X141748284Y-114364574D01*
X141748730Y-114365033D01*
X141887512Y-114516083D01*
X141890586Y-114524494D01*
X141889124Y-114529679D01*
X141349164Y-115501904D01*
X141189907Y-115788653D01*
X141182895Y-115794221D01*
X141173603Y-115792971D01*
X139942974Y-115045118D01*
X139937684Y-115037893D01*
X139937665Y-115032422D01*
X139993510Y-114796649D01*
X139993773Y-114795714D01*
X140060814Y-114590435D01*
X140061108Y-114589634D01*
X140085653Y-114529680D01*
X140133929Y-114411763D01*
X140134145Y-114411269D01*
X140155660Y-114365033D01*
X140209213Y-114249942D01*
X140218321Y-114230724D01*
X140282806Y-114094660D01*
X140282816Y-114094638D01*
X140282849Y-114094568D01*
X140297745Y-114059765D01*
X140351192Y-113934893D01*
X140351195Y-113934886D01*
X140351285Y-113934675D01*
X140410870Y-113759541D01*
X140457952Y-113558444D01*
X140488879Y-113320662D01*
X140499562Y-113046717D01*
X140503309Y-113038584D01*
X140511253Y-113035473D01*
X140988864Y-113035473D01*
X140997137Y-113038900D01*
G37*
%TD.AperFunction*%
%TD*%
%TA.AperFunction,Conductor*%
%TO.N,COL3*%
G36*
X135852986Y-96869266D02*
G01*
X136052514Y-96873776D01*
X136060708Y-96877389D01*
X136063938Y-96885995D01*
X136052746Y-97136772D01*
X136052707Y-97137336D01*
X136033330Y-97344397D01*
X136032031Y-97358275D01*
X136031962Y-97358851D01*
X136022344Y-97425228D01*
X136004588Y-97547766D01*
X136004501Y-97548285D01*
X135972670Y-97714745D01*
X135972600Y-97715081D01*
X135969782Y-97727787D01*
X135938549Y-97868612D01*
X135904539Y-98018643D01*
X135872881Y-98174438D01*
X135845845Y-98345453D01*
X135825699Y-98541140D01*
X135815926Y-98745551D01*
X135815926Y-98745556D01*
X135814712Y-98770955D01*
X134328465Y-99176461D01*
X134230102Y-97727787D01*
X134232960Y-97719300D01*
X134237666Y-97716039D01*
X134419088Y-97647991D01*
X134420192Y-97647638D01*
X134608471Y-97597604D01*
X134609089Y-97597458D01*
X134792575Y-97559225D01*
X134792629Y-97559214D01*
X134966552Y-97523830D01*
X134966561Y-97523828D01*
X134966698Y-97523800D01*
X135054886Y-97500865D01*
X135126435Y-97482257D01*
X135126441Y-97482255D01*
X135126791Y-97482164D01*
X135268504Y-97425228D01*
X135387490Y-97343905D01*
X135479401Y-97229109D01*
X135514783Y-97137061D01*
X135539625Y-97072431D01*
X135539886Y-97071752D01*
X135563350Y-96873311D01*
X135567725Y-96865498D01*
X135575232Y-96862988D01*
X135852986Y-96869266D01*
G37*
%TD.AperFunction*%
%TD*%
%TA.AperFunction,Conductor*%
%TO.N,Net-(D4-Pad2)*%
G36*
X111792899Y-69954303D02*
G01*
X112498644Y-70688191D01*
X112501909Y-70696530D01*
X112500592Y-70701696D01*
X112431980Y-70833679D01*
X112431367Y-70834858D01*
X112431082Y-70835373D01*
X112360755Y-70955464D01*
X112360580Y-70955754D01*
X112293931Y-71062022D01*
X112232236Y-71160543D01*
X112232201Y-71160605D01*
X112232189Y-71160624D01*
X112196500Y-71222958D01*
X112176766Y-71257423D01*
X112128712Y-71358901D01*
X112128612Y-71359186D01*
X112128609Y-71359193D01*
X112089373Y-71470905D01*
X112089371Y-71470913D01*
X112089265Y-71471214D01*
X112059614Y-71600599D01*
X112040951Y-71753293D01*
X112040942Y-71753533D01*
X112040942Y-71753539D01*
X112034868Y-71924250D01*
X112031149Y-71932396D01*
X112023175Y-71935534D01*
X111545757Y-71935534D01*
X111537484Y-71932107D01*
X111534064Y-71924250D01*
X111527989Y-71753539D01*
X111527989Y-71753533D01*
X111527980Y-71753293D01*
X111509317Y-71600599D01*
X111479666Y-71471214D01*
X111479560Y-71470913D01*
X111479558Y-71470905D01*
X111440322Y-71359193D01*
X111440319Y-71359186D01*
X111440219Y-71358901D01*
X111392165Y-71257423D01*
X111372431Y-71222958D01*
X111336742Y-71160624D01*
X111336730Y-71160605D01*
X111336695Y-71160543D01*
X111275000Y-71062022D01*
X111208351Y-70955754D01*
X111208176Y-70955464D01*
X111137849Y-70835373D01*
X111137564Y-70834858D01*
X111068340Y-70701698D01*
X111067564Y-70692776D01*
X111070288Y-70688191D01*
X111776033Y-69954303D01*
X111784237Y-69950715D01*
X111792899Y-69954303D01*
G37*
%TD.AperFunction*%
%TD*%
%TA.AperFunction,Conductor*%
%TO.N,Net-(D11-Pad2)*%
G36*
X90792899Y-69954303D02*
G01*
X91498644Y-70688191D01*
X91501909Y-70696530D01*
X91500592Y-70701696D01*
X91431980Y-70833679D01*
X91431367Y-70834858D01*
X91431082Y-70835373D01*
X91360755Y-70955464D01*
X91360580Y-70955754D01*
X91293931Y-71062022D01*
X91232236Y-71160543D01*
X91232201Y-71160605D01*
X91232189Y-71160624D01*
X91196500Y-71222958D01*
X91176766Y-71257423D01*
X91128712Y-71358901D01*
X91128612Y-71359186D01*
X91128609Y-71359193D01*
X91089373Y-71470905D01*
X91089371Y-71470913D01*
X91089265Y-71471214D01*
X91059614Y-71600599D01*
X91040951Y-71753293D01*
X91040942Y-71753533D01*
X91040942Y-71753539D01*
X91034868Y-71924250D01*
X91031149Y-71932396D01*
X91023175Y-71935534D01*
X90545757Y-71935534D01*
X90537484Y-71932107D01*
X90534064Y-71924250D01*
X90527989Y-71753539D01*
X90527989Y-71753533D01*
X90527980Y-71753293D01*
X90509317Y-71600599D01*
X90479666Y-71471214D01*
X90479560Y-71470913D01*
X90479558Y-71470905D01*
X90440322Y-71359193D01*
X90440319Y-71359186D01*
X90440219Y-71358901D01*
X90392165Y-71257423D01*
X90372431Y-71222958D01*
X90336742Y-71160624D01*
X90336730Y-71160605D01*
X90336695Y-71160543D01*
X90275000Y-71062022D01*
X90208351Y-70955754D01*
X90208176Y-70955464D01*
X90137849Y-70835373D01*
X90137564Y-70834858D01*
X90068340Y-70701698D01*
X90067564Y-70692776D01*
X90070288Y-70688191D01*
X90776033Y-69954303D01*
X90784237Y-69950715D01*
X90792899Y-69954303D01*
G37*
%TD.AperFunction*%
%TD*%
%TA.AperFunction,Conductor*%
%TO.N,Net-(D12-Pad2)*%
G36*
X87792899Y-69954303D02*
G01*
X88498644Y-70688191D01*
X88501909Y-70696530D01*
X88500592Y-70701696D01*
X88431980Y-70833679D01*
X88431367Y-70834858D01*
X88431082Y-70835373D01*
X88360755Y-70955464D01*
X88360580Y-70955754D01*
X88293931Y-71062022D01*
X88232236Y-71160543D01*
X88232201Y-71160605D01*
X88232189Y-71160624D01*
X88196500Y-71222958D01*
X88176766Y-71257423D01*
X88128712Y-71358901D01*
X88128612Y-71359186D01*
X88128609Y-71359193D01*
X88089373Y-71470905D01*
X88089371Y-71470913D01*
X88089265Y-71471214D01*
X88059614Y-71600599D01*
X88040951Y-71753293D01*
X88040942Y-71753533D01*
X88040942Y-71753539D01*
X88034868Y-71924250D01*
X88031149Y-71932396D01*
X88023175Y-71935534D01*
X87545757Y-71935534D01*
X87537484Y-71932107D01*
X87534064Y-71924250D01*
X87527989Y-71753539D01*
X87527989Y-71753533D01*
X87527980Y-71753293D01*
X87509317Y-71600599D01*
X87479666Y-71471214D01*
X87479560Y-71470913D01*
X87479558Y-71470905D01*
X87440322Y-71359193D01*
X87440319Y-71359186D01*
X87440219Y-71358901D01*
X87392165Y-71257423D01*
X87372431Y-71222958D01*
X87336742Y-71160624D01*
X87336730Y-71160605D01*
X87336695Y-71160543D01*
X87275000Y-71062022D01*
X87208351Y-70955754D01*
X87208176Y-70955464D01*
X87137849Y-70835373D01*
X87137564Y-70834858D01*
X87068340Y-70701698D01*
X87067564Y-70692776D01*
X87070288Y-70688191D01*
X87776033Y-69954303D01*
X87784237Y-69950715D01*
X87792899Y-69954303D01*
G37*
%TD.AperFunction*%
%TD*%
%TA.AperFunction,Conductor*%
%TO.N,GND*%
G36*
X146247020Y-61027893D02*
G01*
X146250438Y-61035710D01*
X146258046Y-61230784D01*
X146281098Y-61402883D01*
X146317525Y-61548049D01*
X146365695Y-61673569D01*
X146423978Y-61786729D01*
X146490743Y-61894816D01*
X146490772Y-61894859D01*
X146490780Y-61894872D01*
X146564316Y-62005054D01*
X146564358Y-62005117D01*
X146643080Y-62124745D01*
X146643323Y-62125132D01*
X146725439Y-62261208D01*
X146725780Y-62261813D01*
X146806077Y-62414697D01*
X146806890Y-62423615D01*
X146804152Y-62428247D01*
X146008433Y-63255697D01*
X146000229Y-63259285D01*
X145991567Y-63255697D01*
X145195848Y-62428247D01*
X145192583Y-62419908D01*
X145193923Y-62414697D01*
X145274219Y-62261813D01*
X145274560Y-62261208D01*
X145356676Y-62125132D01*
X145356919Y-62124745D01*
X145435641Y-62005117D01*
X145435683Y-62005054D01*
X145509219Y-61894872D01*
X145509227Y-61894859D01*
X145509256Y-61894816D01*
X145576021Y-61786729D01*
X145634304Y-61673569D01*
X145682474Y-61548049D01*
X145718901Y-61402883D01*
X145741953Y-61230784D01*
X145749561Y-61035709D01*
X145753308Y-61027577D01*
X145761252Y-61024466D01*
X146238747Y-61024466D01*
X146247020Y-61027893D01*
G37*
%TD.AperFunction*%
%TD*%
%TA.AperFunction,Conductor*%
%TO.N,Net-(D7-Pad2)*%
G36*
X103063482Y-70066195D02*
G01*
X103067070Y-70074857D01*
X103047169Y-71092891D01*
X103043581Y-71101095D01*
X103039073Y-71103794D01*
X102849985Y-71164988D01*
X102849652Y-71165090D01*
X102759283Y-71191385D01*
X102670980Y-71217078D01*
X102670956Y-71217075D01*
X102670959Y-71217084D01*
X102507946Y-71264168D01*
X102358379Y-71313084D01*
X102358186Y-71313164D01*
X102358181Y-71313166D01*
X102220155Y-71370499D01*
X102220150Y-71370501D01*
X102219838Y-71370631D01*
X102219544Y-71370796D01*
X102219536Y-71370800D01*
X102158248Y-71405220D01*
X102089902Y-71443604D01*
X101966152Y-71538801D01*
X101846166Y-71663020D01*
X101845943Y-71663321D01*
X101748055Y-71795364D01*
X101727525Y-71823057D01*
X101727380Y-71823303D01*
X101727375Y-71823310D01*
X101613514Y-72016053D01*
X101606355Y-72021433D01*
X101597920Y-72020418D01*
X101177366Y-71795364D01*
X101171688Y-71788439D01*
X101172616Y-71779444D01*
X101293467Y-71558015D01*
X101404067Y-71362695D01*
X101432849Y-71313166D01*
X101501352Y-71195283D01*
X101501367Y-71195257D01*
X101587970Y-71047117D01*
X101587983Y-71047095D01*
X101666431Y-70909783D01*
X101666481Y-70909696D01*
X101739503Y-70774410D01*
X101809640Y-70632679D01*
X101879495Y-70475920D01*
X101951671Y-70295552D01*
X102026034Y-70090545D01*
X102032077Y-70083937D01*
X102036804Y-70082837D01*
X103055143Y-70062930D01*
X103063482Y-70066195D01*
G37*
%TD.AperFunction*%
%TD*%
%TA.AperFunction,Conductor*%
%TO.N,Net-(D7-Pad2)*%
G36*
X103187078Y-93963961D02*
G01*
X103190494Y-93971718D01*
X103201539Y-94221854D01*
X103234418Y-94438316D01*
X103286026Y-94619588D01*
X103353755Y-94775335D01*
X103434993Y-94915225D01*
X103527132Y-95048925D01*
X103527155Y-95048956D01*
X103527168Y-95048975D01*
X103627519Y-95186043D01*
X103627637Y-95186208D01*
X103733496Y-95336170D01*
X103733834Y-95336676D01*
X103842625Y-95509186D01*
X103843053Y-95509922D01*
X103948504Y-95707665D01*
X103949373Y-95716577D01*
X103946613Y-95721280D01*
X102948433Y-96759265D01*
X102940229Y-96762853D01*
X102931567Y-96759265D01*
X101933387Y-95721280D01*
X101930122Y-95712941D01*
X101931496Y-95707665D01*
X102036946Y-95509922D01*
X102037374Y-95509186D01*
X102146165Y-95336676D01*
X102146503Y-95336170D01*
X102252362Y-95186208D01*
X102252480Y-95186043D01*
X102352831Y-95048975D01*
X102352844Y-95048956D01*
X102352867Y-95048925D01*
X102445006Y-94915225D01*
X102526244Y-94775335D01*
X102593973Y-94619588D01*
X102645581Y-94438316D01*
X102678460Y-94221854D01*
X102689506Y-93971718D01*
X102693295Y-93963604D01*
X102701195Y-93960534D01*
X103178805Y-93960534D01*
X103187078Y-93963961D01*
G37*
%TD.AperFunction*%
%TD*%
%TA.AperFunction,Conductor*%
%TO.N,COL2*%
G36*
X116802986Y-115919266D02*
G01*
X117002514Y-115923776D01*
X117010708Y-115927389D01*
X117013938Y-115935995D01*
X117002746Y-116186772D01*
X117002707Y-116187336D01*
X116983330Y-116394397D01*
X116982031Y-116408275D01*
X116981962Y-116408851D01*
X116972344Y-116475228D01*
X116954588Y-116597766D01*
X116954501Y-116598285D01*
X116922670Y-116764745D01*
X116922600Y-116765081D01*
X116919782Y-116777787D01*
X116888549Y-116918612D01*
X116854539Y-117068643D01*
X116822881Y-117224438D01*
X116795845Y-117395453D01*
X116775699Y-117591140D01*
X116775691Y-117591301D01*
X116775691Y-117591305D01*
X116765118Y-117812465D01*
X116761300Y-117820565D01*
X116756513Y-117823192D01*
X115292250Y-118222700D01*
X115283366Y-118221572D01*
X115277883Y-118214493D01*
X115277497Y-118212206D01*
X115180102Y-116777787D01*
X115182960Y-116769300D01*
X115187666Y-116766039D01*
X115369088Y-116697991D01*
X115370192Y-116697638D01*
X115558471Y-116647604D01*
X115559089Y-116647458D01*
X115742575Y-116609225D01*
X115742629Y-116609214D01*
X115916552Y-116573830D01*
X115916561Y-116573828D01*
X115916698Y-116573800D01*
X116004886Y-116550865D01*
X116076435Y-116532257D01*
X116076441Y-116532255D01*
X116076791Y-116532164D01*
X116218504Y-116475228D01*
X116337490Y-116393905D01*
X116429401Y-116279109D01*
X116464783Y-116187061D01*
X116489625Y-116122431D01*
X116489886Y-116121752D01*
X116513350Y-115923311D01*
X116517725Y-115915498D01*
X116525232Y-115912988D01*
X116802986Y-115919266D01*
G37*
%TD.AperFunction*%
%TD*%
%TA.AperFunction,Conductor*%
%TO.N,COL1*%
G36*
X97143733Y-98732220D02*
G01*
X97145445Y-98733837D01*
X97618724Y-99180849D01*
X97622385Y-99189021D01*
X97621267Y-99194357D01*
X97523327Y-99401462D01*
X97522929Y-99402228D01*
X97420624Y-99582756D01*
X97420292Y-99583307D01*
X97319650Y-99740124D01*
X97319509Y-99740338D01*
X97223294Y-99883288D01*
X97223245Y-99883362D01*
X97193647Y-99929570D01*
X97134243Y-100022310D01*
X97055255Y-100167119D01*
X96989047Y-100327705D01*
X96938360Y-100514015D01*
X96905937Y-100735999D01*
X96905924Y-100736311D01*
X96894999Y-100992406D01*
X96891223Y-101000525D01*
X96883310Y-101003607D01*
X96675828Y-101003607D01*
X96667555Y-101000180D01*
X96664378Y-100994312D01*
X96642248Y-100888841D01*
X96556506Y-100671727D01*
X96556250Y-100671306D01*
X96556248Y-100671301D01*
X96435666Y-100472589D01*
X96435665Y-100472588D01*
X96435408Y-100472164D01*
X96347454Y-100370805D01*
X96282746Y-100296236D01*
X96282418Y-100295858D01*
X96269866Y-100285566D01*
X96266602Y-100281293D01*
X96229502Y-100198276D01*
X96229356Y-100197949D01*
X96210942Y-100167402D01*
X96146578Y-100060635D01*
X96146451Y-100060424D01*
X96051700Y-99929570D01*
X95947504Y-99795943D01*
X95836425Y-99650317D01*
X95836106Y-99649878D01*
X95720593Y-99482922D01*
X95720160Y-99482246D01*
X95672562Y-99402228D01*
X95606574Y-99291294D01*
X95605289Y-99282432D01*
X95607815Y-99277620D01*
X96562966Y-98183685D01*
X97143733Y-98732220D01*
G37*
%TD.AperFunction*%
%TD*%
%TA.AperFunction,Conductor*%
%TO.N,COL3*%
G36*
X135814713Y-79670163D02*
G01*
X135823185Y-79847534D01*
X135825690Y-79899974D01*
X135845831Y-80095659D01*
X135872864Y-80266671D01*
X135872884Y-80266769D01*
X135872885Y-80266775D01*
X135904514Y-80422442D01*
X135904519Y-80422465D01*
X135938528Y-80572494D01*
X135938512Y-80572498D01*
X135938540Y-80572548D01*
X135972578Y-80726024D01*
X135972648Y-80726360D01*
X136004477Y-80892817D01*
X136004564Y-80893336D01*
X136031933Y-81082238D01*
X136032002Y-81082814D01*
X136044164Y-81212813D01*
X136052672Y-81303759D01*
X136052711Y-81304328D01*
X136063892Y-81555101D01*
X136060837Y-81563518D01*
X136052469Y-81567319D01*
X135720089Y-81574816D01*
X135575187Y-81578085D01*
X135566839Y-81574846D01*
X135563304Y-81567761D01*
X135562803Y-81563518D01*
X135539849Y-81369322D01*
X135479371Y-81211967D01*
X135387465Y-81097170D01*
X135268483Y-81015847D01*
X135126771Y-80958909D01*
X135126412Y-80958816D01*
X135126407Y-80958814D01*
X135063969Y-80942574D01*
X134966680Y-80917270D01*
X134966543Y-80917242D01*
X134966534Y-80917240D01*
X134792610Y-80881853D01*
X134792556Y-80881842D01*
X134609074Y-80843608D01*
X134608456Y-80843462D01*
X134536577Y-80824360D01*
X134420171Y-80793424D01*
X134419083Y-80793076D01*
X134237655Y-80725025D01*
X134231113Y-80718912D01*
X134230092Y-80713278D01*
X134300277Y-79679750D01*
X134300288Y-79679592D01*
X134300288Y-79679590D01*
X134328469Y-79264604D01*
X135814713Y-79670163D01*
G37*
%TD.AperFunction*%
%TD*%
%TA.AperFunction,Conductor*%
%TO.N,3V3*%
G36*
X139968433Y-57083769D02*
G01*
X140719413Y-57864696D01*
X140722678Y-57873035D01*
X140721563Y-57877795D01*
X140663613Y-58000709D01*
X140612159Y-58119215D01*
X140569820Y-58230554D01*
X140535779Y-58339259D01*
X140509218Y-58449863D01*
X140489319Y-58566898D01*
X140475266Y-58694896D01*
X140466239Y-58838391D01*
X140461423Y-59001915D01*
X140461423Y-59001977D01*
X140460088Y-59178389D01*
X140456598Y-59186635D01*
X140448388Y-59190000D01*
X139471612Y-59190000D01*
X139463339Y-59186573D01*
X139459912Y-59178389D01*
X139458576Y-59001977D01*
X139458576Y-59001915D01*
X139453760Y-58838391D01*
X139444733Y-58694896D01*
X139430680Y-58566898D01*
X139410781Y-58449863D01*
X139384220Y-58339259D01*
X139350179Y-58230554D01*
X139307840Y-58119215D01*
X139256386Y-58000709D01*
X139256345Y-58000621D01*
X139198437Y-57877795D01*
X139198009Y-57868851D01*
X139200587Y-57864696D01*
X139951567Y-57083769D01*
X139959771Y-57080181D01*
X139968433Y-57083769D01*
G37*
%TD.AperFunction*%
%TD*%
%TA.AperFunction,Conductor*%
%TO.N,Net-(D9-Pad2)*%
G36*
X141048433Y-95651803D02*
G01*
X142046613Y-96689788D01*
X142049878Y-96698127D01*
X142048504Y-96703403D01*
X141943053Y-96901145D01*
X141942625Y-96901881D01*
X141833834Y-97074391D01*
X141833496Y-97074897D01*
X141727637Y-97224859D01*
X141727519Y-97225024D01*
X141627168Y-97362092D01*
X141627155Y-97362111D01*
X141627132Y-97362142D01*
X141534993Y-97495842D01*
X141453755Y-97635732D01*
X141386026Y-97791479D01*
X141334418Y-97972751D01*
X141301539Y-98189213D01*
X141301525Y-98189519D01*
X141301525Y-98189524D01*
X141290494Y-98439350D01*
X141286705Y-98447464D01*
X141278805Y-98450534D01*
X140801195Y-98450534D01*
X140792922Y-98447107D01*
X140789506Y-98439350D01*
X140778474Y-98189524D01*
X140778474Y-98189519D01*
X140778460Y-98189213D01*
X140745581Y-97972751D01*
X140693973Y-97791479D01*
X140626244Y-97635732D01*
X140545006Y-97495842D01*
X140452867Y-97362142D01*
X140452844Y-97362111D01*
X140452831Y-97362092D01*
X140352480Y-97225024D01*
X140352362Y-97224859D01*
X140246503Y-97074897D01*
X140246165Y-97074391D01*
X140137374Y-96901881D01*
X140136946Y-96901145D01*
X140031496Y-96703403D01*
X140030627Y-96694491D01*
X140033387Y-96689788D01*
X141031567Y-95651803D01*
X141039771Y-95648215D01*
X141048433Y-95651803D01*
G37*
%TD.AperFunction*%
%TD*%
%TA.AperFunction,Conductor*%
%TO.N,Net-(D5-Pad2)*%
G36*
X108792899Y-69954303D02*
G01*
X109498644Y-70688191D01*
X109501909Y-70696530D01*
X109500592Y-70701696D01*
X109431980Y-70833679D01*
X109431367Y-70834858D01*
X109431082Y-70835373D01*
X109360755Y-70955464D01*
X109360580Y-70955754D01*
X109293931Y-71062022D01*
X109232236Y-71160543D01*
X109232201Y-71160605D01*
X109232189Y-71160624D01*
X109196500Y-71222958D01*
X109176766Y-71257423D01*
X109128712Y-71358901D01*
X109128612Y-71359186D01*
X109128609Y-71359193D01*
X109089373Y-71470905D01*
X109089371Y-71470913D01*
X109089265Y-71471214D01*
X109059614Y-71600599D01*
X109040951Y-71753293D01*
X109040942Y-71753533D01*
X109040942Y-71753539D01*
X109034868Y-71924250D01*
X109031149Y-71932396D01*
X109023175Y-71935534D01*
X108545757Y-71935534D01*
X108537484Y-71932107D01*
X108534064Y-71924250D01*
X108527989Y-71753539D01*
X108527989Y-71753533D01*
X108527980Y-71753293D01*
X108509317Y-71600599D01*
X108479666Y-71471214D01*
X108479560Y-71470913D01*
X108479558Y-71470905D01*
X108440322Y-71359193D01*
X108440319Y-71359186D01*
X108440219Y-71358901D01*
X108392165Y-71257423D01*
X108372431Y-71222958D01*
X108336742Y-71160624D01*
X108336730Y-71160605D01*
X108336695Y-71160543D01*
X108275000Y-71062022D01*
X108208351Y-70955754D01*
X108208176Y-70955464D01*
X108137849Y-70835373D01*
X108137564Y-70834858D01*
X108068340Y-70701698D01*
X108067564Y-70692776D01*
X108070288Y-70688191D01*
X108776033Y-69954303D01*
X108784237Y-69950715D01*
X108792899Y-69954303D01*
G37*
%TD.AperFunction*%
%TD*%
%TA.AperFunction,Conductor*%
%TO.N,COL3*%
G36*
X135897147Y-115920244D02*
G01*
X136052489Y-115923753D01*
X136060683Y-115927366D01*
X136063913Y-115935972D01*
X136052724Y-116186750D01*
X136052685Y-116187314D01*
X136044032Y-116279798D01*
X136032012Y-116408254D01*
X136031943Y-116408830D01*
X136016863Y-116512915D01*
X136004571Y-116597747D01*
X136004484Y-116598266D01*
X135972656Y-116764726D01*
X135972586Y-116765062D01*
X135938549Y-116918542D01*
X135938515Y-116918590D01*
X135938537Y-116918595D01*
X135904530Y-117068626D01*
X135872874Y-117224423D01*
X135845841Y-117395438D01*
X135825697Y-117591127D01*
X135825689Y-117591288D01*
X135825689Y-117591292D01*
X135815119Y-117812453D01*
X135811301Y-117820553D01*
X135806513Y-117823180D01*
X134342250Y-118222700D01*
X134333366Y-118221572D01*
X134327883Y-118214493D01*
X134327497Y-118212206D01*
X134285314Y-117590946D01*
X134230100Y-116777787D01*
X134232958Y-116769300D01*
X134237664Y-116766039D01*
X134333938Y-116729927D01*
X134419093Y-116697987D01*
X134420181Y-116697639D01*
X134536625Y-116666693D01*
X134608466Y-116647602D01*
X134609084Y-116647456D01*
X134792568Y-116609220D01*
X134792622Y-116609209D01*
X134966543Y-116573823D01*
X134966552Y-116573821D01*
X134966689Y-116573793D01*
X135064028Y-116548475D01*
X135126415Y-116532249D01*
X135126420Y-116532247D01*
X135126779Y-116532154D01*
X135268490Y-116475215D01*
X135269017Y-116474855D01*
X135386757Y-116394380D01*
X135386760Y-116394378D01*
X135387473Y-116393890D01*
X135479381Y-116279092D01*
X135539864Y-116121735D01*
X135563325Y-115923294D01*
X135567699Y-115915481D01*
X135575207Y-115912971D01*
X135897147Y-115920244D01*
G37*
%TD.AperFunction*%
%TD*%
%TA.AperFunction,Conductor*%
%TO.N,Net-(D8-Pad2)*%
G36*
X99792899Y-69954303D02*
G01*
X100498644Y-70688191D01*
X100501909Y-70696530D01*
X100500592Y-70701696D01*
X100431980Y-70833679D01*
X100431367Y-70834858D01*
X100431082Y-70835373D01*
X100360755Y-70955464D01*
X100360580Y-70955754D01*
X100293931Y-71062022D01*
X100232236Y-71160543D01*
X100232201Y-71160605D01*
X100232189Y-71160624D01*
X100196500Y-71222958D01*
X100176766Y-71257423D01*
X100128712Y-71358901D01*
X100128612Y-71359186D01*
X100128609Y-71359193D01*
X100089373Y-71470905D01*
X100089371Y-71470913D01*
X100089265Y-71471214D01*
X100059614Y-71600599D01*
X100040951Y-71753293D01*
X100040942Y-71753533D01*
X100040942Y-71753539D01*
X100034868Y-71924250D01*
X100031149Y-71932396D01*
X100023175Y-71935534D01*
X99545757Y-71935534D01*
X99537484Y-71932107D01*
X99534064Y-71924250D01*
X99527989Y-71753539D01*
X99527989Y-71753533D01*
X99527980Y-71753293D01*
X99509317Y-71600599D01*
X99479666Y-71471214D01*
X99479560Y-71470913D01*
X99479558Y-71470905D01*
X99440322Y-71359193D01*
X99440319Y-71359186D01*
X99440219Y-71358901D01*
X99392165Y-71257423D01*
X99372431Y-71222958D01*
X99336742Y-71160624D01*
X99336730Y-71160605D01*
X99336695Y-71160543D01*
X99275000Y-71062022D01*
X99208351Y-70955754D01*
X99208176Y-70955464D01*
X99137849Y-70835373D01*
X99137564Y-70834858D01*
X99068340Y-70701698D01*
X99067564Y-70692776D01*
X99070288Y-70688191D01*
X99776033Y-69954303D01*
X99784237Y-69950715D01*
X99792899Y-69954303D01*
G37*
%TD.AperFunction*%
%TD*%
%TA.AperFunction,Conductor*%
%TO.N,Net-(D6-Pad2)*%
G36*
X105792899Y-69954303D02*
G01*
X106498644Y-70688191D01*
X106501909Y-70696530D01*
X106500592Y-70701696D01*
X106431980Y-70833679D01*
X106431367Y-70834858D01*
X106431082Y-70835373D01*
X106360755Y-70955464D01*
X106360580Y-70955754D01*
X106293931Y-71062022D01*
X106232236Y-71160543D01*
X106232201Y-71160605D01*
X106232189Y-71160624D01*
X106196500Y-71222958D01*
X106176766Y-71257423D01*
X106128712Y-71358901D01*
X106128612Y-71359186D01*
X106128609Y-71359193D01*
X106089373Y-71470905D01*
X106089371Y-71470913D01*
X106089265Y-71471214D01*
X106059614Y-71600599D01*
X106040951Y-71753293D01*
X106040942Y-71753533D01*
X106040942Y-71753539D01*
X106034868Y-71924250D01*
X106031149Y-71932396D01*
X106023175Y-71935534D01*
X105545757Y-71935534D01*
X105537484Y-71932107D01*
X105534064Y-71924250D01*
X105527989Y-71753539D01*
X105527989Y-71753533D01*
X105527980Y-71753293D01*
X105509317Y-71600599D01*
X105479666Y-71471214D01*
X105479560Y-71470913D01*
X105479558Y-71470905D01*
X105440322Y-71359193D01*
X105440319Y-71359186D01*
X105440219Y-71358901D01*
X105392165Y-71257423D01*
X105372431Y-71222958D01*
X105336742Y-71160624D01*
X105336730Y-71160605D01*
X105336695Y-71160543D01*
X105275000Y-71062022D01*
X105208351Y-70955754D01*
X105208176Y-70955464D01*
X105137849Y-70835373D01*
X105137564Y-70834858D01*
X105068340Y-70701698D01*
X105067564Y-70692776D01*
X105070288Y-70688191D01*
X105776033Y-69954303D01*
X105784237Y-69950715D01*
X105792899Y-69954303D01*
G37*
%TD.AperFunction*%
%TD*%
%TA.AperFunction,Conductor*%
%TO.N,Net-(R3-Pad1)*%
G36*
X102711398Y-56148961D02*
G01*
X102714819Y-56156870D01*
X102719393Y-56303781D01*
X102733676Y-56437132D01*
X102756561Y-56550775D01*
X102787297Y-56649902D01*
X102825132Y-56739700D01*
X102869313Y-56825360D01*
X102919089Y-56912072D01*
X102973625Y-57004883D01*
X102973736Y-57005074D01*
X103032310Y-57109218D01*
X103032523Y-57109615D01*
X103090656Y-57222982D01*
X103091382Y-57231908D01*
X103088678Y-57236431D01*
X102472899Y-57876765D01*
X102464695Y-57880353D01*
X102456033Y-57876765D01*
X101840254Y-57236431D01*
X101836989Y-57228092D01*
X101838276Y-57222982D01*
X101896408Y-57109615D01*
X101896621Y-57109218D01*
X101955195Y-57005074D01*
X101955306Y-57004883D01*
X102009842Y-56912072D01*
X102059618Y-56825360D01*
X102103799Y-56739700D01*
X102141634Y-56649902D01*
X102172370Y-56550775D01*
X102195255Y-56437132D01*
X102209538Y-56303781D01*
X102214113Y-56156870D01*
X102217795Y-56148707D01*
X102225807Y-56145534D01*
X102703125Y-56145534D01*
X102711398Y-56148961D01*
G37*
%TD.AperFunction*%
%TD*%
%TA.AperFunction,Conductor*%
%TO.N,ROW1*%
G36*
X112739972Y-61432442D02*
G01*
X113077557Y-61770027D01*
X113080984Y-61778300D01*
X113077846Y-61786274D01*
X112961263Y-61911460D01*
X112866489Y-62032628D01*
X112795967Y-62145083D01*
X112744443Y-62252393D01*
X112706667Y-62358128D01*
X112677385Y-62465856D01*
X112677359Y-62465968D01*
X112677359Y-62465969D01*
X112651345Y-62579145D01*
X112623340Y-62701375D01*
X112623256Y-62701720D01*
X112588060Y-62836396D01*
X112587902Y-62836945D01*
X112551576Y-62951933D01*
X112542689Y-62980065D01*
X112536929Y-62986921D01*
X112531761Y-62988238D01*
X111513789Y-63008138D01*
X111505450Y-63004873D01*
X111501862Y-62996211D01*
X111521762Y-61978239D01*
X111525350Y-61970035D01*
X111529935Y-61967311D01*
X111673041Y-61922101D01*
X111673608Y-61921938D01*
X111714398Y-61911278D01*
X111808293Y-61886740D01*
X111808607Y-61886663D01*
X111930853Y-61858654D01*
X112044143Y-61832614D01*
X112151871Y-61803332D01*
X112152086Y-61803255D01*
X112152093Y-61803253D01*
X112257320Y-61765657D01*
X112257323Y-61765656D01*
X112257605Y-61765555D01*
X112364916Y-61714032D01*
X112477370Y-61643509D01*
X112598538Y-61548735D01*
X112723725Y-61432153D01*
X112732115Y-61429022D01*
X112739972Y-61432442D01*
G37*
%TD.AperFunction*%
%TD*%
M02*
