%TF.GenerationSoftware,KiCad,Pcbnew,(6.0.4)*%
%TF.CreationDate,2022-06-27T22:40:44-04:00*%
%TF.ProjectId,xiao-rp2040-keypad,7869616f-2d72-4703-9230-34302d6b6579,rev?*%
%TF.SameCoordinates,Original*%
%TF.FileFunction,Legend,Top*%
%TF.FilePolarity,Positive*%
%FSLAX46Y46*%
G04 Gerber Fmt 4.6, Leading zero omitted, Abs format (unit mm)*
G04 Created by KiCad (PCBNEW (6.0.4)) date 2022-06-27 22:40:44*
%MOMM*%
%LPD*%
G01*
G04 APERTURE LIST*
%ADD10C,0.035277*%
%ADD11C,0.150000*%
%ADD12C,0.500000*%
%ADD13C,0.300000*%
%ADD14C,0.153000*%
%ADD15C,0.101600*%
%ADD16C,0.076200*%
%ADD17C,0.120000*%
%ADD18C,0.127000*%
%ADD19C,0.066040*%
%ADD20C,0.254000*%
G04 APERTURE END LIST*
D10*
X232346222Y-188667415D02*
X233282283Y-188574162D01*
D11*
G36*
X107557369Y-51000000D02*
G01*
X104000403Y-51000000D01*
X105557369Y-48250000D01*
X109057369Y-48250000D01*
X107557369Y-51000000D01*
G37*
X107557369Y-51000000D02*
X104000403Y-51000000D01*
X105557369Y-48250000D01*
X109057369Y-48250000D01*
X107557369Y-51000000D01*
G36*
X112524795Y-51014642D02*
G01*
X108967829Y-51014642D01*
X110524795Y-48264642D01*
X114024795Y-48264642D01*
X112524795Y-51014642D01*
G37*
X112524795Y-51014642D02*
X108967829Y-51014642D01*
X110524795Y-48264642D01*
X114024795Y-48264642D01*
X112524795Y-51014642D01*
G36*
X105750000Y-52500000D02*
G01*
X105250000Y-53000000D01*
X105250000Y-52000000D01*
X105750000Y-52500000D01*
G37*
X105750000Y-52500000D02*
X105250000Y-53000000D01*
X105250000Y-52000000D01*
X105750000Y-52500000D01*
G36*
X102500000Y-51000000D02*
G01*
X98943034Y-51000000D01*
X100500000Y-48250000D01*
X104000000Y-48250000D01*
X102500000Y-51000000D01*
G37*
X102500000Y-51000000D02*
X98943034Y-51000000D01*
X100500000Y-48250000D01*
X104000000Y-48250000D01*
X102500000Y-51000000D01*
G36*
X100750000Y-52535534D02*
G01*
X100250000Y-53035534D01*
X100250000Y-52035534D01*
X100750000Y-52535534D01*
G37*
X100750000Y-52535534D02*
X100250000Y-53035534D01*
X100250000Y-52035534D01*
X100750000Y-52535534D01*
X123216547Y-69773031D02*
G75*
G03*
X123216547Y-69773031I-602080J0D01*
G01*
X132614467Y-68660532D02*
X132614467Y-70835530D01*
X130364466Y-70835531D01*
X130364466Y-68660530D01*
X132614467Y-68660532D01*
D10*
X232346222Y-188667415D02*
X232346222Y-188667415D01*
D11*
G36*
X110750000Y-52535534D02*
G01*
X110250000Y-53035534D01*
X110250000Y-52035534D01*
X110750000Y-52535534D01*
G37*
X110750000Y-52535534D02*
X110250000Y-53035534D01*
X110250000Y-52035534D01*
X110750000Y-52535534D01*
X123739465Y-68710533D02*
X123739469Y-70885532D01*
X121489467Y-70885534D01*
X121489467Y-68710532D01*
X123739465Y-68710533D01*
D10*
X233282283Y-188574162D02*
X234213956Y-188466163D01*
D11*
X132091544Y-69723034D02*
G75*
G03*
X132091544Y-69723034I-602078J0D01*
G01*
X115176370Y-56550413D02*
X115176370Y-55550413D01*
X115414466Y-55550413D01*
X115557323Y-55598033D01*
X115652561Y-55693271D01*
X115700180Y-55788509D01*
X115747799Y-55978985D01*
X115747799Y-56121842D01*
X115700180Y-56312318D01*
X115652561Y-56407556D01*
X115557323Y-56502794D01*
X115414466Y-56550413D01*
X115176370Y-56550413D01*
X116700180Y-56550413D02*
X116128751Y-56550413D01*
X116414466Y-56550413D02*
X116414466Y-55550413D01*
X116319227Y-55693271D01*
X116223989Y-55788509D01*
X116128751Y-55836128D01*
X136801369Y-69071247D02*
X136801369Y-68071247D01*
X137039465Y-68071247D01*
X137182322Y-68118867D01*
X137277560Y-68214105D01*
X137325179Y-68309343D01*
X137372798Y-68499819D01*
X137372798Y-68642676D01*
X137325179Y-68833152D01*
X137277560Y-68928390D01*
X137182322Y-69023628D01*
X137039465Y-69071247D01*
X136801369Y-69071247D01*
X137706131Y-68071247D02*
X138372798Y-68071247D01*
X137944226Y-69071247D01*
D12*
X94250000Y-51392676D02*
X96107142Y-51392676D01*
X95107142Y-52535534D01*
X95535714Y-52535534D01*
X95821428Y-52678391D01*
X95964285Y-52821248D01*
X96107142Y-53106962D01*
X96107142Y-53821248D01*
X95964285Y-54106962D01*
X95821428Y-54249819D01*
X95535714Y-54392676D01*
X94678571Y-54392676D01*
X94392857Y-54249819D01*
X94250000Y-54106962D01*
X94035894Y-78892676D02*
X94035894Y-80892676D01*
X93321608Y-77749819D02*
X92607323Y-79892676D01*
X94464466Y-79892676D01*
D13*
X95480714Y-86250000D02*
X96195000Y-86250000D01*
X95337857Y-86678571D02*
X95837857Y-85178571D01*
X96337857Y-86678571D01*
X96766428Y-86607142D02*
X96909285Y-86678571D01*
X97195000Y-86678571D01*
X97337857Y-86607142D01*
X97409285Y-86464285D01*
X97409285Y-86392857D01*
X97337857Y-86250000D01*
X97195000Y-86178571D01*
X96980714Y-86178571D01*
X96837857Y-86107142D01*
X96766428Y-85964285D01*
X96766428Y-85892857D01*
X96837857Y-85750000D01*
X96980714Y-85678571D01*
X97195000Y-85678571D01*
X97337857Y-85750000D01*
X97980714Y-86607142D02*
X98123571Y-86678571D01*
X98409285Y-86678571D01*
X98552142Y-86607142D01*
X98623571Y-86464285D01*
X98623571Y-86392857D01*
X98552142Y-86250000D01*
X98409285Y-86178571D01*
X98195000Y-86178571D01*
X98052142Y-86107142D01*
X97980714Y-85964285D01*
X97980714Y-85892857D01*
X98052142Y-85750000D01*
X98195000Y-85678571D01*
X98409285Y-85678571D01*
X98552142Y-85750000D01*
X99837857Y-86607142D02*
X99695000Y-86678571D01*
X99409285Y-86678571D01*
X99266428Y-86607142D01*
X99195000Y-86464285D01*
X99195000Y-85892857D01*
X99266428Y-85750000D01*
X99409285Y-85678571D01*
X99695000Y-85678571D01*
X99837857Y-85750000D01*
X99909285Y-85892857D01*
X99909285Y-86035714D01*
X99195000Y-86178571D01*
X100552142Y-86678571D02*
X100552142Y-85678571D01*
X100552142Y-85821428D02*
X100623571Y-85750000D01*
X100766428Y-85678571D01*
X100980714Y-85678571D01*
X101123571Y-85750000D01*
X101195000Y-85892857D01*
X101195000Y-86678571D01*
X101195000Y-85892857D02*
X101266428Y-85750000D01*
X101409285Y-85678571D01*
X101623571Y-85678571D01*
X101766428Y-85750000D01*
X101837857Y-85892857D01*
X101837857Y-86678571D01*
X102552142Y-86678571D02*
X102552142Y-85178571D01*
X102552142Y-85750000D02*
X102695000Y-85678571D01*
X102980714Y-85678571D01*
X103123571Y-85750000D01*
X103195000Y-85821428D01*
X103266428Y-85964285D01*
X103266428Y-86392857D01*
X103195000Y-86535714D01*
X103123571Y-86607142D01*
X102980714Y-86678571D01*
X102695000Y-86678571D01*
X102552142Y-86607142D01*
X104123571Y-86678571D02*
X103980714Y-86607142D01*
X103909285Y-86464285D01*
X103909285Y-85178571D01*
X104552142Y-85678571D02*
X104909285Y-86678571D01*
X105266428Y-85678571D02*
X104909285Y-86678571D01*
X104766428Y-87035714D01*
X104695000Y-87107142D01*
X104552142Y-87178571D01*
X107266428Y-85178571D02*
X107552142Y-85178571D01*
X107695000Y-85250000D01*
X107837857Y-85392857D01*
X107909285Y-85678571D01*
X107909285Y-86178571D01*
X107837857Y-86464285D01*
X107695000Y-86607142D01*
X107552142Y-86678571D01*
X107266428Y-86678571D01*
X107123571Y-86607142D01*
X106980714Y-86464285D01*
X106909285Y-86178571D01*
X106909285Y-85678571D01*
X106980714Y-85392857D01*
X107123571Y-85250000D01*
X107266428Y-85178571D01*
X108552142Y-86678571D02*
X108552142Y-85678571D01*
X108552142Y-85964285D02*
X108623571Y-85821428D01*
X108695000Y-85750000D01*
X108837857Y-85678571D01*
X108980714Y-85678571D01*
X110123571Y-86678571D02*
X110123571Y-85178571D01*
X110123571Y-86607142D02*
X109980714Y-86678571D01*
X109695000Y-86678571D01*
X109552142Y-86607142D01*
X109480714Y-86535714D01*
X109409285Y-86392857D01*
X109409285Y-85964285D01*
X109480714Y-85821428D01*
X109552142Y-85750000D01*
X109695000Y-85678571D01*
X109980714Y-85678571D01*
X110123571Y-85750000D01*
X111409285Y-86607142D02*
X111266428Y-86678571D01*
X110980714Y-86678571D01*
X110837857Y-86607142D01*
X110766428Y-86464285D01*
X110766428Y-85892857D01*
X110837857Y-85750000D01*
X110980714Y-85678571D01*
X111266428Y-85678571D01*
X111409285Y-85750000D01*
X111480714Y-85892857D01*
X111480714Y-86035714D01*
X110766428Y-86178571D01*
X112123571Y-86678571D02*
X112123571Y-85678571D01*
X112123571Y-85964285D02*
X112195000Y-85821428D01*
X112266428Y-85750000D01*
X112409285Y-85678571D01*
X112552142Y-85678571D01*
X113052142Y-86535714D02*
X113123571Y-86607142D01*
X113052142Y-86678571D01*
X112980714Y-86607142D01*
X113052142Y-86535714D01*
X113052142Y-86678571D01*
X113052142Y-85750000D02*
X113123571Y-85821428D01*
X113052142Y-85892857D01*
X112980714Y-85821428D01*
X113052142Y-85750000D01*
X113052142Y-85892857D01*
D11*
X137298988Y-52937912D02*
X136822798Y-52937912D01*
X136775179Y-53414103D01*
X136822798Y-53366484D01*
X136918036Y-53318865D01*
X137156131Y-53318865D01*
X137251369Y-53366484D01*
X137298988Y-53414103D01*
X137346607Y-53509341D01*
X137346607Y-53747436D01*
X137298988Y-53842674D01*
X137251369Y-53890293D01*
X137156131Y-53937912D01*
X136918036Y-53937912D01*
X136822798Y-53890293D01*
X136775179Y-53842674D01*
X137632322Y-52937912D02*
X137965655Y-53937912D01*
X138298988Y-52937912D01*
X136773991Y-58702380D02*
X137393039Y-58702380D01*
X137059706Y-59083333D01*
X137202563Y-59083333D01*
X137297801Y-59130952D01*
X137345420Y-59178571D01*
X137393039Y-59273809D01*
X137393039Y-59511904D01*
X137345420Y-59607142D01*
X137297801Y-59654761D01*
X137202563Y-59702380D01*
X136916848Y-59702380D01*
X136821610Y-59654761D01*
X136773991Y-59607142D01*
X137678753Y-58702380D02*
X138012087Y-59702380D01*
X138345420Y-58702380D01*
X138583515Y-58702380D02*
X139202563Y-58702380D01*
X138869229Y-59083333D01*
X139012087Y-59083333D01*
X139107325Y-59130952D01*
X139154944Y-59178571D01*
X139202563Y-59273809D01*
X139202563Y-59511904D01*
X139154944Y-59607142D01*
X139107325Y-59654761D01*
X139012087Y-59702380D01*
X138726372Y-59702380D01*
X138631134Y-59654761D01*
X138583515Y-59607142D01*
X136901371Y-64012912D02*
X136901371Y-63012912D01*
X137139467Y-63012912D01*
X137282324Y-63060532D01*
X137377562Y-63155770D01*
X137425181Y-63251008D01*
X137472800Y-63441484D01*
X137472800Y-63584341D01*
X137425181Y-63774817D01*
X137377562Y-63870055D01*
X137282324Y-63965293D01*
X137139467Y-64012912D01*
X136901371Y-64012912D01*
X137948990Y-64012912D02*
X138139467Y-64012912D01*
X138234705Y-63965293D01*
X138282324Y-63917674D01*
X138377562Y-63774817D01*
X138425181Y-63584341D01*
X138425181Y-63203389D01*
X138377562Y-63108151D01*
X138329943Y-63060532D01*
X138234705Y-63012912D01*
X138044228Y-63012912D01*
X137948990Y-63060532D01*
X137901371Y-63108151D01*
X137853752Y-63203389D01*
X137853752Y-63441484D01*
X137901371Y-63536722D01*
X137948990Y-63584341D01*
X138044228Y-63631960D01*
X138234705Y-63631960D01*
X138329943Y-63584341D01*
X138377562Y-63536722D01*
X138425181Y-63441484D01*
D12*
X83607323Y-65678391D02*
X83750180Y-65535534D01*
X84035894Y-65392676D01*
X84750180Y-65392676D01*
X85035894Y-65535534D01*
X85178751Y-65678391D01*
X85321608Y-65964105D01*
X85321608Y-66249819D01*
X85178751Y-66678391D01*
X83464466Y-68392676D01*
X85321608Y-68392676D01*
D14*
X122154942Y-58732380D02*
X122821608Y-59732380D01*
X122821608Y-58732380D02*
X122154942Y-59732380D01*
X123202561Y-59732380D02*
X123202561Y-58732380D01*
X123631132Y-59446666D02*
X124107323Y-59446666D01*
X123535894Y-59732380D02*
X123869227Y-58732380D01*
X124202561Y-59732380D01*
X124726370Y-58732380D02*
X124916846Y-58732380D01*
X125012085Y-58780000D01*
X125107323Y-58875238D01*
X125154942Y-59065714D01*
X125154942Y-59399047D01*
X125107323Y-59589523D01*
X125012085Y-59684761D01*
X124916846Y-59732380D01*
X124726370Y-59732380D01*
X124631132Y-59684761D01*
X124535894Y-59589523D01*
X124488275Y-59399047D01*
X124488275Y-59065714D01*
X124535894Y-58875238D01*
X124631132Y-58780000D01*
X124726370Y-58732380D01*
X126916846Y-59732380D02*
X126583513Y-59256190D01*
X126345418Y-59732380D02*
X126345418Y-58732380D01*
X126726370Y-58732380D01*
X126821608Y-58780000D01*
X126869227Y-58827619D01*
X126916846Y-58922857D01*
X126916846Y-59065714D01*
X126869227Y-59160952D01*
X126821608Y-59208571D01*
X126726370Y-59256190D01*
X126345418Y-59256190D01*
X127345418Y-59732380D02*
X127345418Y-58732380D01*
X127726370Y-58732380D01*
X127821608Y-58780000D01*
X127869227Y-58827619D01*
X127916846Y-58922857D01*
X127916846Y-59065714D01*
X127869227Y-59160952D01*
X127821608Y-59208571D01*
X127726370Y-59256190D01*
X127345418Y-59256190D01*
X128297799Y-58827619D02*
X128345418Y-58780000D01*
X128440656Y-58732380D01*
X128678751Y-58732380D01*
X128773989Y-58780000D01*
X128821608Y-58827619D01*
X128869227Y-58922857D01*
X128869227Y-59018095D01*
X128821608Y-59160952D01*
X128250180Y-59732380D01*
X128869227Y-59732380D01*
X129488275Y-58732380D02*
X129583513Y-58732380D01*
X129678751Y-58780000D01*
X129726370Y-58827619D01*
X129773989Y-58922857D01*
X129821608Y-59113333D01*
X129821608Y-59351428D01*
X129773989Y-59541904D01*
X129726370Y-59637142D01*
X129678751Y-59684761D01*
X129583513Y-59732380D01*
X129488275Y-59732380D01*
X129393037Y-59684761D01*
X129345418Y-59637142D01*
X129297799Y-59541904D01*
X129250180Y-59351428D01*
X129250180Y-59113333D01*
X129297799Y-58922857D01*
X129345418Y-58827619D01*
X129393037Y-58780000D01*
X129488275Y-58732380D01*
X130678751Y-59065714D02*
X130678751Y-59732380D01*
X130440656Y-58684761D02*
X130202561Y-59399047D01*
X130821608Y-59399047D01*
X131393037Y-58732380D02*
X131488275Y-58732380D01*
X131583513Y-58780000D01*
X131631132Y-58827619D01*
X131678751Y-58922857D01*
X131726370Y-59113333D01*
X131726370Y-59351428D01*
X131678751Y-59541904D01*
X131631132Y-59637142D01*
X131583513Y-59684761D01*
X131488275Y-59732380D01*
X131393037Y-59732380D01*
X131297799Y-59684761D01*
X131250180Y-59637142D01*
X131202561Y-59541904D01*
X131154942Y-59351428D01*
X131154942Y-59113333D01*
X131202561Y-58922857D01*
X131250180Y-58827619D01*
X131297799Y-58780000D01*
X131393037Y-58732380D01*
X122964466Y-60675714D02*
X122964466Y-61675714D01*
X122964466Y-60723333D02*
X123059704Y-60675714D01*
X123250180Y-60675714D01*
X123345418Y-60723333D01*
X123393037Y-60770952D01*
X123440656Y-60866190D01*
X123440656Y-61151904D01*
X123393037Y-61247142D01*
X123345418Y-61294761D01*
X123250180Y-61342380D01*
X123059704Y-61342380D01*
X122964466Y-61294761D01*
X124012085Y-61342380D02*
X123916846Y-61294761D01*
X123869227Y-61199523D01*
X123869227Y-60342380D01*
X124821608Y-61342380D02*
X124821608Y-60818571D01*
X124773989Y-60723333D01*
X124678751Y-60675714D01*
X124488275Y-60675714D01*
X124393037Y-60723333D01*
X124821608Y-61294761D02*
X124726370Y-61342380D01*
X124488275Y-61342380D01*
X124393037Y-61294761D01*
X124345418Y-61199523D01*
X124345418Y-61104285D01*
X124393037Y-61009047D01*
X124488275Y-60961428D01*
X124726370Y-60961428D01*
X124821608Y-60913809D01*
X125726370Y-61294761D02*
X125631132Y-61342380D01*
X125440656Y-61342380D01*
X125345418Y-61294761D01*
X125297799Y-61247142D01*
X125250180Y-61151904D01*
X125250180Y-60866190D01*
X125297799Y-60770952D01*
X125345418Y-60723333D01*
X125440656Y-60675714D01*
X125631132Y-60675714D01*
X125726370Y-60723333D01*
X126535894Y-61294761D02*
X126440656Y-61342380D01*
X126250180Y-61342380D01*
X126154942Y-61294761D01*
X126107323Y-61199523D01*
X126107323Y-60818571D01*
X126154942Y-60723333D01*
X126250180Y-60675714D01*
X126440656Y-60675714D01*
X126535894Y-60723333D01*
X126583513Y-60818571D01*
X126583513Y-60913809D01*
X126107323Y-61009047D01*
X127440656Y-61342380D02*
X127440656Y-60342380D01*
X127440656Y-61294761D02*
X127345418Y-61342380D01*
X127154942Y-61342380D01*
X127059704Y-61294761D01*
X127012085Y-61247142D01*
X126964466Y-61151904D01*
X126964466Y-60866190D01*
X127012085Y-60770952D01*
X127059704Y-60723333D01*
X127154942Y-60675714D01*
X127345418Y-60675714D01*
X127440656Y-60723333D01*
X128535894Y-60675714D02*
X128916846Y-60675714D01*
X128678751Y-60342380D02*
X128678751Y-61199523D01*
X128726370Y-61294761D01*
X128821608Y-61342380D01*
X128916846Y-61342380D01*
X129250180Y-61342380D02*
X129250180Y-60342380D01*
X129678751Y-61342380D02*
X129678751Y-60818571D01*
X129631132Y-60723333D01*
X129535894Y-60675714D01*
X129393037Y-60675714D01*
X129297799Y-60723333D01*
X129250180Y-60770952D01*
X130154942Y-61342380D02*
X130154942Y-60675714D01*
X130154942Y-60342380D02*
X130107323Y-60390000D01*
X130154942Y-60437619D01*
X130202561Y-60390000D01*
X130154942Y-60342380D01*
X130154942Y-60437619D01*
X130583513Y-61294761D02*
X130678751Y-61342380D01*
X130869227Y-61342380D01*
X130964466Y-61294761D01*
X131012085Y-61199523D01*
X131012085Y-61151904D01*
X130964466Y-61056666D01*
X130869227Y-61009047D01*
X130726370Y-61009047D01*
X130631132Y-60961428D01*
X130583513Y-60866190D01*
X130583513Y-60818571D01*
X130631132Y-60723333D01*
X130726370Y-60675714D01*
X130869227Y-60675714D01*
X130964466Y-60723333D01*
X122393037Y-62904761D02*
X122488275Y-62952380D01*
X122678751Y-62952380D01*
X122773989Y-62904761D01*
X122821608Y-62809523D01*
X122821608Y-62761904D01*
X122773989Y-62666666D01*
X122678751Y-62619047D01*
X122535894Y-62619047D01*
X122440656Y-62571428D01*
X122393037Y-62476190D01*
X122393037Y-62428571D01*
X122440656Y-62333333D01*
X122535894Y-62285714D01*
X122678751Y-62285714D01*
X122773989Y-62333333D01*
X123250180Y-62952380D02*
X123250180Y-62285714D01*
X123250180Y-61952380D02*
X123202561Y-62000000D01*
X123250180Y-62047619D01*
X123297799Y-62000000D01*
X123250180Y-61952380D01*
X123250180Y-62047619D01*
X124154942Y-62952380D02*
X124154942Y-61952380D01*
X124154942Y-62904761D02*
X124059704Y-62952380D01*
X123869227Y-62952380D01*
X123773989Y-62904761D01*
X123726370Y-62857142D01*
X123678751Y-62761904D01*
X123678751Y-62476190D01*
X123726370Y-62380952D01*
X123773989Y-62333333D01*
X123869227Y-62285714D01*
X124059704Y-62285714D01*
X124154942Y-62333333D01*
X125012085Y-62904761D02*
X124916846Y-62952380D01*
X124726370Y-62952380D01*
X124631132Y-62904761D01*
X124583513Y-62809523D01*
X124583513Y-62428571D01*
X124631132Y-62333333D01*
X124726370Y-62285714D01*
X124916846Y-62285714D01*
X125012085Y-62333333D01*
X125059704Y-62428571D01*
X125059704Y-62523809D01*
X124583513Y-62619047D01*
X125488275Y-62857142D02*
X125535894Y-62904761D01*
X125488275Y-62952380D01*
X125440656Y-62904761D01*
X125488275Y-62857142D01*
X125488275Y-62952380D01*
X126726370Y-61952380D02*
X126726370Y-62761904D01*
X126773989Y-62857142D01*
X126821608Y-62904761D01*
X126916846Y-62952380D01*
X127107323Y-62952380D01*
X127202561Y-62904761D01*
X127250180Y-62857142D01*
X127297799Y-62761904D01*
X127297799Y-61952380D01*
X127726370Y-62904761D02*
X127869227Y-62952380D01*
X128107323Y-62952380D01*
X128202561Y-62904761D01*
X128250180Y-62857142D01*
X128297799Y-62761904D01*
X128297799Y-62666666D01*
X128250180Y-62571428D01*
X128202561Y-62523809D01*
X128107323Y-62476190D01*
X127916846Y-62428571D01*
X127821608Y-62380952D01*
X127773989Y-62333333D01*
X127726370Y-62238095D01*
X127726370Y-62142857D01*
X127773989Y-62047619D01*
X127821608Y-62000000D01*
X127916846Y-61952380D01*
X128154942Y-61952380D01*
X128297799Y-62000000D01*
X129059704Y-62428571D02*
X129202561Y-62476190D01*
X129250180Y-62523809D01*
X129297799Y-62619047D01*
X129297799Y-62761904D01*
X129250180Y-62857142D01*
X129202561Y-62904761D01*
X129107323Y-62952380D01*
X128726370Y-62952380D01*
X128726370Y-61952380D01*
X129059704Y-61952380D01*
X129154942Y-62000000D01*
X129202561Y-62047619D01*
X129250180Y-62142857D01*
X129250180Y-62238095D01*
X129202561Y-62333333D01*
X129154942Y-62380952D01*
X129059704Y-62428571D01*
X128726370Y-62428571D01*
X130916846Y-62952380D02*
X130916846Y-62428571D01*
X130869227Y-62333333D01*
X130773989Y-62285714D01*
X130583513Y-62285714D01*
X130488275Y-62333333D01*
X130916846Y-62904761D02*
X130821608Y-62952380D01*
X130583513Y-62952380D01*
X130488275Y-62904761D01*
X130440656Y-62809523D01*
X130440656Y-62714285D01*
X130488275Y-62619047D01*
X130583513Y-62571428D01*
X130821608Y-62571428D01*
X130916846Y-62523809D01*
X131250180Y-62285714D02*
X131631132Y-62285714D01*
X131393037Y-61952380D02*
X131393037Y-62809523D01*
X131440656Y-62904761D01*
X131535894Y-62952380D01*
X131631132Y-62952380D01*
X124702561Y-64514761D02*
X124607323Y-64562380D01*
X124416846Y-64562380D01*
X124321608Y-64514761D01*
X124273989Y-64419523D01*
X124273989Y-64038571D01*
X124321608Y-63943333D01*
X124416846Y-63895714D01*
X124607323Y-63895714D01*
X124702561Y-63943333D01*
X124750180Y-64038571D01*
X124750180Y-64133809D01*
X124273989Y-64229047D01*
X125607323Y-64562380D02*
X125607323Y-63562380D01*
X125607323Y-64514761D02*
X125512085Y-64562380D01*
X125321608Y-64562380D01*
X125226370Y-64514761D01*
X125178751Y-64467142D01*
X125131132Y-64371904D01*
X125131132Y-64086190D01*
X125178751Y-63990952D01*
X125226370Y-63943333D01*
X125321608Y-63895714D01*
X125512085Y-63895714D01*
X125607323Y-63943333D01*
X126512085Y-63895714D02*
X126512085Y-64705238D01*
X126464466Y-64800476D01*
X126416846Y-64848095D01*
X126321608Y-64895714D01*
X126178751Y-64895714D01*
X126083513Y-64848095D01*
X126512085Y-64514761D02*
X126416846Y-64562380D01*
X126226370Y-64562380D01*
X126131132Y-64514761D01*
X126083513Y-64467142D01*
X126035894Y-64371904D01*
X126035894Y-64086190D01*
X126083513Y-63990952D01*
X126131132Y-63943333D01*
X126226370Y-63895714D01*
X126416846Y-63895714D01*
X126512085Y-63943333D01*
X127369227Y-64514761D02*
X127273989Y-64562380D01*
X127083513Y-64562380D01*
X126988275Y-64514761D01*
X126940656Y-64419523D01*
X126940656Y-64038571D01*
X126988275Y-63943333D01*
X127083513Y-63895714D01*
X127273989Y-63895714D01*
X127369227Y-63943333D01*
X127416846Y-64038571D01*
X127416846Y-64133809D01*
X126940656Y-64229047D01*
X128750180Y-64562380D02*
X128654942Y-64514761D01*
X128607323Y-64467142D01*
X128559704Y-64371904D01*
X128559704Y-64086190D01*
X128607323Y-63990952D01*
X128654942Y-63943333D01*
X128750180Y-63895714D01*
X128893037Y-63895714D01*
X128988275Y-63943333D01*
X129035894Y-63990952D01*
X129083513Y-64086190D01*
X129083513Y-64371904D01*
X129035894Y-64467142D01*
X128988275Y-64514761D01*
X128893037Y-64562380D01*
X128750180Y-64562380D01*
X129369227Y-63895714D02*
X129750180Y-63895714D01*
X129512085Y-64562380D02*
X129512085Y-63705238D01*
X129559704Y-63610000D01*
X129654942Y-63562380D01*
X129750180Y-63562380D01*
X124845418Y-66172380D02*
X124845418Y-65172380D01*
X124845418Y-65553333D02*
X124940656Y-65505714D01*
X125131132Y-65505714D01*
X125226370Y-65553333D01*
X125273989Y-65600952D01*
X125321608Y-65696190D01*
X125321608Y-65981904D01*
X125273989Y-66077142D01*
X125226370Y-66124761D01*
X125131132Y-66172380D01*
X124940656Y-66172380D01*
X124845418Y-66124761D01*
X125893037Y-66172380D02*
X125797799Y-66124761D01*
X125750180Y-66077142D01*
X125702561Y-65981904D01*
X125702561Y-65696190D01*
X125750180Y-65600952D01*
X125797799Y-65553333D01*
X125893037Y-65505714D01*
X126035894Y-65505714D01*
X126131132Y-65553333D01*
X126178751Y-65600952D01*
X126226370Y-65696190D01*
X126226370Y-65981904D01*
X126178751Y-66077142D01*
X126131132Y-66124761D01*
X126035894Y-66172380D01*
X125893037Y-66172380D01*
X127083513Y-66172380D02*
X127083513Y-65648571D01*
X127035894Y-65553333D01*
X126940656Y-65505714D01*
X126750180Y-65505714D01*
X126654942Y-65553333D01*
X127083513Y-66124761D02*
X126988275Y-66172380D01*
X126750180Y-66172380D01*
X126654942Y-66124761D01*
X126607323Y-66029523D01*
X126607323Y-65934285D01*
X126654942Y-65839047D01*
X126750180Y-65791428D01*
X126988275Y-65791428D01*
X127083513Y-65743809D01*
X127559704Y-66172380D02*
X127559704Y-65505714D01*
X127559704Y-65696190D02*
X127607323Y-65600952D01*
X127654942Y-65553333D01*
X127750180Y-65505714D01*
X127845418Y-65505714D01*
X128607323Y-66172380D02*
X128607323Y-65172380D01*
X128607323Y-66124761D02*
X128512085Y-66172380D01*
X128321608Y-66172380D01*
X128226370Y-66124761D01*
X128178751Y-66077142D01*
X128131132Y-65981904D01*
X128131132Y-65696190D01*
X128178751Y-65600952D01*
X128226370Y-65553333D01*
X128321608Y-65505714D01*
X128512085Y-65505714D01*
X128607323Y-65553333D01*
X129083513Y-66077142D02*
X129131132Y-66124761D01*
X129083513Y-66172380D01*
X129035894Y-66124761D01*
X129083513Y-66077142D01*
X129083513Y-66172380D01*
X95742307Y-107987914D02*
X96408973Y-107987914D01*
X95980402Y-108987914D01*
X96789926Y-108892676D02*
X96837545Y-108940295D01*
X96789926Y-108987914D01*
X96742307Y-108940295D01*
X96789926Y-108892676D01*
X96789926Y-108987914D01*
X98028021Y-108987914D02*
X98028021Y-107987914D01*
X98408973Y-107987914D01*
X98504211Y-108035534D01*
X98551830Y-108083153D01*
X98599450Y-108178391D01*
X98599450Y-108321248D01*
X98551830Y-108416486D01*
X98504211Y-108464105D01*
X98408973Y-108511724D01*
X98028021Y-108511724D01*
X99028021Y-108987914D02*
X99028021Y-108321248D01*
X99028021Y-108511724D02*
X99075640Y-108416486D01*
X99123259Y-108368867D01*
X99218497Y-108321248D01*
X99313735Y-108321248D01*
X99789926Y-108987914D02*
X99694688Y-108940295D01*
X99647069Y-108892676D01*
X99599450Y-108797438D01*
X99599450Y-108511724D01*
X99647069Y-108416486D01*
X99694688Y-108368867D01*
X99789926Y-108321248D01*
X99932783Y-108321248D01*
X100028021Y-108368867D01*
X100075640Y-108416486D01*
X100123259Y-108511724D01*
X100123259Y-108797438D01*
X100075640Y-108892676D01*
X100028021Y-108940295D01*
X99932783Y-108987914D01*
X99789926Y-108987914D01*
X100408973Y-108321248D02*
X100789926Y-108321248D01*
X100551830Y-108987914D02*
X100551830Y-108130772D01*
X100599450Y-108035534D01*
X100694688Y-107987914D01*
X100789926Y-107987914D01*
X101123259Y-108987914D02*
X101123259Y-108321248D01*
X101123259Y-107987914D02*
X101075640Y-108035534D01*
X101123259Y-108083153D01*
X101170878Y-108035534D01*
X101123259Y-107987914D01*
X101123259Y-108083153D01*
X101456592Y-108321248D02*
X101837545Y-108321248D01*
X101599450Y-107987914D02*
X101599450Y-108845057D01*
X101647069Y-108940295D01*
X101742307Y-108987914D01*
X101837545Y-108987914D01*
X102170878Y-108892676D02*
X102218497Y-108940295D01*
X102170878Y-108987914D01*
X102123259Y-108940295D01*
X102170878Y-108892676D01*
X102170878Y-108987914D01*
X96361354Y-88987914D02*
X95789926Y-88987914D01*
X96075640Y-88987914D02*
X96075640Y-87987914D01*
X95980402Y-88130772D01*
X95885164Y-88226010D01*
X95789926Y-88273629D01*
X96789926Y-88892676D02*
X96837545Y-88940295D01*
X96789926Y-88987914D01*
X96742307Y-88940295D01*
X96789926Y-88892676D01*
X96789926Y-88987914D01*
X97980402Y-88702200D02*
X98456592Y-88702200D01*
X97885164Y-88987914D02*
X98218497Y-87987914D01*
X98551830Y-88987914D01*
X99313735Y-88987914D02*
X99313735Y-87987914D01*
X99313735Y-88940295D02*
X99218497Y-88987914D01*
X99028021Y-88987914D01*
X98932783Y-88940295D01*
X98885164Y-88892676D01*
X98837545Y-88797438D01*
X98837545Y-88511724D01*
X98885164Y-88416486D01*
X98932783Y-88368867D01*
X99028021Y-88321248D01*
X99218497Y-88321248D01*
X99313735Y-88368867D01*
X100218497Y-88987914D02*
X100218497Y-87987914D01*
X100218497Y-88940295D02*
X100123259Y-88987914D01*
X99932783Y-88987914D01*
X99837545Y-88940295D01*
X99789926Y-88892676D01*
X99742307Y-88797438D01*
X99742307Y-88511724D01*
X99789926Y-88416486D01*
X99837545Y-88368867D01*
X99932783Y-88321248D01*
X100123259Y-88321248D01*
X100218497Y-88368867D01*
X101313735Y-88321248D02*
X101694688Y-88321248D01*
X101456592Y-87987914D02*
X101456592Y-88845057D01*
X101504211Y-88940295D01*
X101599450Y-88987914D01*
X101694688Y-88987914D01*
X102028021Y-88987914D02*
X102028021Y-87987914D01*
X102456592Y-88987914D02*
X102456592Y-88464105D01*
X102408973Y-88368867D01*
X102313735Y-88321248D01*
X102170878Y-88321248D01*
X102075640Y-88368867D01*
X102028021Y-88416486D01*
X103313735Y-88940295D02*
X103218497Y-88987914D01*
X103028021Y-88987914D01*
X102932783Y-88940295D01*
X102885164Y-88845057D01*
X102885164Y-88464105D01*
X102932783Y-88368867D01*
X103028021Y-88321248D01*
X103218497Y-88321248D01*
X103313735Y-88368867D01*
X103361354Y-88464105D01*
X103361354Y-88559343D01*
X102885164Y-88654581D01*
X104456592Y-87987914D02*
X105123259Y-88987914D01*
X105123259Y-87987914D02*
X104456592Y-88987914D01*
X105504211Y-88987914D02*
X105504211Y-88321248D01*
X105504211Y-87987914D02*
X105456592Y-88035534D01*
X105504211Y-88083153D01*
X105551830Y-88035534D01*
X105504211Y-87987914D01*
X105504211Y-88083153D01*
X106408973Y-88987914D02*
X106408973Y-88464105D01*
X106361354Y-88368867D01*
X106266116Y-88321248D01*
X106075640Y-88321248D01*
X105980402Y-88368867D01*
X106408973Y-88940295D02*
X106313735Y-88987914D01*
X106075640Y-88987914D01*
X105980402Y-88940295D01*
X105932783Y-88845057D01*
X105932783Y-88749819D01*
X105980402Y-88654581D01*
X106075640Y-88606962D01*
X106313735Y-88606962D01*
X106408973Y-88559343D01*
X107028021Y-88987914D02*
X106932783Y-88940295D01*
X106885164Y-88892676D01*
X106837545Y-88797438D01*
X106837545Y-88511724D01*
X106885164Y-88416486D01*
X106932783Y-88368867D01*
X107028021Y-88321248D01*
X107170878Y-88321248D01*
X107266116Y-88368867D01*
X107313735Y-88416486D01*
X107361354Y-88511724D01*
X107361354Y-88797438D01*
X107313735Y-88892676D01*
X107266116Y-88940295D01*
X107170878Y-88987914D01*
X107028021Y-88987914D01*
X108837545Y-89368867D02*
X108789926Y-89321248D01*
X108694688Y-89178391D01*
X108647069Y-89083153D01*
X108599450Y-88940295D01*
X108551830Y-88702200D01*
X108551830Y-88511724D01*
X108599450Y-88273629D01*
X108647069Y-88130772D01*
X108694688Y-88035534D01*
X108789926Y-87892676D01*
X108837545Y-87845057D01*
X109075640Y-88321248D02*
X109456592Y-88321248D01*
X109218497Y-87987914D02*
X109218497Y-88845057D01*
X109266116Y-88940295D01*
X109361354Y-88987914D01*
X109456592Y-88987914D01*
X109789926Y-88987914D02*
X109789926Y-87987914D01*
X110218497Y-88987914D02*
X110218497Y-88464105D01*
X110170878Y-88368867D01*
X110075640Y-88321248D01*
X109932783Y-88321248D01*
X109837545Y-88368867D01*
X109789926Y-88416486D01*
X111075640Y-88940295D02*
X110980402Y-88987914D01*
X110789926Y-88987914D01*
X110694688Y-88940295D01*
X110647069Y-88845057D01*
X110647069Y-88464105D01*
X110694688Y-88368867D01*
X110789926Y-88321248D01*
X110980402Y-88321248D01*
X111075640Y-88368867D01*
X111123259Y-88464105D01*
X111123259Y-88559343D01*
X110647069Y-88654581D01*
X112313735Y-88987914D02*
X112313735Y-87987914D01*
X112313735Y-88368867D02*
X112408973Y-88321248D01*
X112599450Y-88321248D01*
X112694688Y-88368867D01*
X112742307Y-88416486D01*
X112789926Y-88511724D01*
X112789926Y-88797438D01*
X112742307Y-88892676D01*
X112694688Y-88940295D01*
X112599450Y-88987914D01*
X112408973Y-88987914D01*
X112313735Y-88940295D01*
X113218497Y-88987914D02*
X113218497Y-88321248D01*
X113218497Y-88511724D02*
X113266116Y-88416486D01*
X113313735Y-88368867D01*
X113408973Y-88321248D01*
X113504211Y-88321248D01*
X114266116Y-88987914D02*
X114266116Y-88464105D01*
X114218497Y-88368867D01*
X114123259Y-88321248D01*
X113932783Y-88321248D01*
X113837545Y-88368867D01*
X114266116Y-88940295D02*
X114170878Y-88987914D01*
X113932783Y-88987914D01*
X113837545Y-88940295D01*
X113789926Y-88845057D01*
X113789926Y-88749819D01*
X113837545Y-88654581D01*
X113932783Y-88606962D01*
X114170878Y-88606962D01*
X114266116Y-88559343D01*
X114742307Y-88987914D02*
X114742307Y-88321248D01*
X114742307Y-87987914D02*
X114694688Y-88035534D01*
X114742307Y-88083153D01*
X114789926Y-88035534D01*
X114742307Y-87987914D01*
X114742307Y-88083153D01*
X115218497Y-88321248D02*
X115218497Y-88987914D01*
X115218497Y-88416486D02*
X115266116Y-88368867D01*
X115361354Y-88321248D01*
X115504211Y-88321248D01*
X115599450Y-88368867D01*
X115647069Y-88464105D01*
X115647069Y-88987914D01*
X116075640Y-88940295D02*
X116170878Y-88987914D01*
X116361354Y-88987914D01*
X116456592Y-88940295D01*
X116504211Y-88845057D01*
X116504211Y-88797438D01*
X116456592Y-88702200D01*
X116361354Y-88654581D01*
X116218497Y-88654581D01*
X116123259Y-88606962D01*
X116075640Y-88511724D01*
X116075640Y-88464105D01*
X116123259Y-88368867D01*
X116218497Y-88321248D01*
X116361354Y-88321248D01*
X116456592Y-88368867D01*
X117837545Y-88987914D02*
X117742307Y-88940295D01*
X117694688Y-88892676D01*
X117647069Y-88797438D01*
X117647069Y-88511724D01*
X117694688Y-88416486D01*
X117742307Y-88368867D01*
X117837545Y-88321248D01*
X117980402Y-88321248D01*
X118075640Y-88368867D01*
X118123259Y-88416486D01*
X118170878Y-88511724D01*
X118170878Y-88797438D01*
X118123259Y-88892676D01*
X118075640Y-88940295D01*
X117980402Y-88987914D01*
X117837545Y-88987914D01*
X118456592Y-88321248D02*
X118837545Y-88321248D01*
X118599450Y-88987914D02*
X118599450Y-88130772D01*
X118647069Y-88035534D01*
X118742307Y-87987914D01*
X118837545Y-87987914D01*
X119789926Y-88321248D02*
X120170878Y-88321248D01*
X119932783Y-87987914D02*
X119932783Y-88845057D01*
X119980402Y-88940295D01*
X120075640Y-88987914D01*
X120170878Y-88987914D01*
X120504211Y-88987914D02*
X120504211Y-87987914D01*
X120932783Y-88987914D02*
X120932783Y-88464105D01*
X120885164Y-88368867D01*
X120789926Y-88321248D01*
X120647069Y-88321248D01*
X120551830Y-88368867D01*
X120504211Y-88416486D01*
X121789926Y-88940295D02*
X121694688Y-88987914D01*
X121504211Y-88987914D01*
X121408973Y-88940295D01*
X121361354Y-88845057D01*
X121361354Y-88464105D01*
X121408973Y-88368867D01*
X121504211Y-88321248D01*
X121694688Y-88321248D01*
X121789926Y-88368867D01*
X121837545Y-88464105D01*
X121837545Y-88559343D01*
X121361354Y-88654581D01*
X123028021Y-88321248D02*
X123028021Y-89321248D01*
X123028021Y-88368867D02*
X123123259Y-88321248D01*
X123313735Y-88321248D01*
X123408973Y-88368867D01*
X123456592Y-88416486D01*
X123504211Y-88511724D01*
X123504211Y-88797438D01*
X123456592Y-88892676D01*
X123408973Y-88940295D01*
X123313735Y-88987914D01*
X123123259Y-88987914D01*
X123028021Y-88940295D01*
X123932783Y-88987914D02*
X123932783Y-88321248D01*
X123932783Y-88511724D02*
X123980402Y-88416486D01*
X124028021Y-88368867D01*
X124123259Y-88321248D01*
X124218497Y-88321248D01*
X124694688Y-88987914D02*
X124599449Y-88940295D01*
X124551830Y-88892676D01*
X124504211Y-88797438D01*
X124504211Y-88511724D01*
X124551830Y-88416486D01*
X124599449Y-88368867D01*
X124694688Y-88321248D01*
X124837545Y-88321248D01*
X124932783Y-88368867D01*
X124980402Y-88416486D01*
X125028021Y-88511724D01*
X125028021Y-88797438D01*
X124980402Y-88892676D01*
X124932783Y-88940295D01*
X124837545Y-88987914D01*
X124694688Y-88987914D01*
X125456592Y-88321248D02*
X125456592Y-89178391D01*
X125408973Y-89273629D01*
X125313735Y-89321248D01*
X125266116Y-89321248D01*
X125456592Y-87987914D02*
X125408973Y-88035534D01*
X125456592Y-88083153D01*
X125504211Y-88035534D01*
X125456592Y-87987914D01*
X125456592Y-88083153D01*
X126313735Y-88940295D02*
X126218497Y-88987914D01*
X126028021Y-88987914D01*
X125932783Y-88940295D01*
X125885164Y-88845057D01*
X125885164Y-88464105D01*
X125932783Y-88368867D01*
X126028021Y-88321248D01*
X126218497Y-88321248D01*
X126313735Y-88368867D01*
X126361354Y-88464105D01*
X126361354Y-88559343D01*
X125885164Y-88654581D01*
X127218497Y-88940295D02*
X127123259Y-88987914D01*
X126932783Y-88987914D01*
X126837545Y-88940295D01*
X126789926Y-88892676D01*
X126742307Y-88797438D01*
X126742307Y-88511724D01*
X126789926Y-88416486D01*
X126837545Y-88368867D01*
X126932783Y-88321248D01*
X127123259Y-88321248D01*
X127218497Y-88368867D01*
X127504211Y-88321248D02*
X127885164Y-88321248D01*
X127647069Y-87987914D02*
X127647069Y-88845057D01*
X127694688Y-88940295D01*
X127789926Y-88987914D01*
X127885164Y-88987914D01*
X128123259Y-89368867D02*
X128170878Y-89321248D01*
X128266116Y-89178391D01*
X128313735Y-89083153D01*
X128361354Y-88940295D01*
X128408973Y-88702200D01*
X128408973Y-88511724D01*
X128361354Y-88273629D01*
X128313735Y-88130772D01*
X128266116Y-88035534D01*
X128170878Y-87892676D01*
X128123259Y-87845057D01*
X96266116Y-93785714D02*
X96266116Y-94452380D01*
X96028021Y-93404761D02*
X95789926Y-94119047D01*
X96408973Y-94119047D01*
X96789926Y-94357142D02*
X96837545Y-94404761D01*
X96789926Y-94452380D01*
X96742307Y-94404761D01*
X96789926Y-94357142D01*
X96789926Y-94452380D01*
X97980402Y-94404761D02*
X98123259Y-94452380D01*
X98361354Y-94452380D01*
X98456592Y-94404761D01*
X98504211Y-94357142D01*
X98551830Y-94261904D01*
X98551830Y-94166666D01*
X98504211Y-94071428D01*
X98456592Y-94023809D01*
X98361354Y-93976190D01*
X98170878Y-93928571D01*
X98075640Y-93880952D01*
X98028021Y-93833333D01*
X97980402Y-93738095D01*
X97980402Y-93642857D01*
X98028021Y-93547619D01*
X98075640Y-93500000D01*
X98170878Y-93452380D01*
X98408973Y-93452380D01*
X98551830Y-93500000D01*
X98885164Y-93785714D02*
X99075640Y-94452380D01*
X99266116Y-93976190D01*
X99456592Y-94452380D01*
X99647069Y-93785714D01*
X100028021Y-94452380D02*
X100028021Y-93785714D01*
X100028021Y-93452380D02*
X99980402Y-93500000D01*
X100028021Y-93547619D01*
X100075640Y-93500000D01*
X100028021Y-93452380D01*
X100028021Y-93547619D01*
X100361354Y-93785714D02*
X100742307Y-93785714D01*
X100504211Y-93452380D02*
X100504211Y-94309523D01*
X100551830Y-94404761D01*
X100647069Y-94452380D01*
X100742307Y-94452380D01*
X101504211Y-94404761D02*
X101408973Y-94452380D01*
X101218497Y-94452380D01*
X101123259Y-94404761D01*
X101075640Y-94357142D01*
X101028021Y-94261904D01*
X101028021Y-93976190D01*
X101075640Y-93880952D01*
X101123259Y-93833333D01*
X101218497Y-93785714D01*
X101408973Y-93785714D01*
X101504211Y-93833333D01*
X101932783Y-94452380D02*
X101932783Y-93452380D01*
X102361354Y-94452380D02*
X102361354Y-93928571D01*
X102313735Y-93833333D01*
X102218497Y-93785714D01*
X102075640Y-93785714D01*
X101980402Y-93833333D01*
X101932783Y-93880952D01*
X103218497Y-94404761D02*
X103123259Y-94452380D01*
X102932783Y-94452380D01*
X102837545Y-94404761D01*
X102789926Y-94309523D01*
X102789926Y-93928571D01*
X102837545Y-93833333D01*
X102932783Y-93785714D01*
X103123259Y-93785714D01*
X103218497Y-93833333D01*
X103266116Y-93928571D01*
X103266116Y-94023809D01*
X102789926Y-94119047D01*
X103647069Y-94404761D02*
X103742307Y-94452380D01*
X103932783Y-94452380D01*
X104028021Y-94404761D01*
X104075640Y-94309523D01*
X104075640Y-94261904D01*
X104028021Y-94166666D01*
X103932783Y-94119047D01*
X103789926Y-94119047D01*
X103694688Y-94071428D01*
X103647069Y-93976190D01*
X103647069Y-93928571D01*
X103694688Y-93833333D01*
X103789926Y-93785714D01*
X103932783Y-93785714D01*
X104028021Y-93833333D01*
X104504211Y-94357142D02*
X104551830Y-94404761D01*
X104504211Y-94452380D01*
X104456592Y-94404761D01*
X104504211Y-94357142D01*
X104504211Y-94452380D01*
X104504211Y-94071428D02*
X104456592Y-93500000D01*
X104504211Y-93452380D01*
X104551830Y-93500000D01*
X104504211Y-94071428D01*
X104504211Y-93452380D01*
X106028021Y-94833333D02*
X105980402Y-94785714D01*
X105885164Y-94642857D01*
X105837545Y-94547619D01*
X105789926Y-94404761D01*
X105742307Y-94166666D01*
X105742307Y-93976190D01*
X105789926Y-93738095D01*
X105837545Y-93595238D01*
X105885164Y-93500000D01*
X105980402Y-93357142D01*
X106028021Y-93309523D01*
X106837545Y-94404761D02*
X106742307Y-94452380D01*
X106551830Y-94452380D01*
X106456592Y-94404761D01*
X106408973Y-94357142D01*
X106361354Y-94261904D01*
X106361354Y-93976190D01*
X106408973Y-93880952D01*
X106456592Y-93833333D01*
X106551830Y-93785714D01*
X106742307Y-93785714D01*
X106837545Y-93833333D01*
X107408973Y-94452380D02*
X107313735Y-94404761D01*
X107266116Y-94309523D01*
X107266116Y-93452380D01*
X107789926Y-94452380D02*
X107789926Y-93785714D01*
X107789926Y-93452380D02*
X107742307Y-93500000D01*
X107789926Y-93547619D01*
X107837545Y-93500000D01*
X107789926Y-93452380D01*
X107789926Y-93547619D01*
X108694688Y-94404761D02*
X108599450Y-94452380D01*
X108408973Y-94452380D01*
X108313735Y-94404761D01*
X108266116Y-94357142D01*
X108218497Y-94261904D01*
X108218497Y-93976190D01*
X108266116Y-93880952D01*
X108313735Y-93833333D01*
X108408973Y-93785714D01*
X108599450Y-93785714D01*
X108694688Y-93833333D01*
X109123259Y-94452380D02*
X109123259Y-93452380D01*
X109218497Y-94071428D02*
X109504211Y-94452380D01*
X109504211Y-93785714D02*
X109123259Y-94166666D01*
X109837545Y-93785714D02*
X110075640Y-94452380D01*
X110313735Y-93785714D02*
X110075640Y-94452380D01*
X109980402Y-94690476D01*
X109932783Y-94738095D01*
X109837545Y-94785714D01*
X110742307Y-94404761D02*
X110742307Y-94452380D01*
X110694688Y-94547619D01*
X110647069Y-94595238D01*
X111932783Y-94452380D02*
X111932783Y-93452380D01*
X111932783Y-93833333D02*
X112028021Y-93785714D01*
X112218497Y-93785714D01*
X112313735Y-93833333D01*
X112361354Y-93880952D01*
X112408973Y-93976190D01*
X112408973Y-94261904D01*
X112361354Y-94357142D01*
X112313735Y-94404761D01*
X112218497Y-94452380D01*
X112028021Y-94452380D01*
X111932783Y-94404761D01*
X113266116Y-93785714D02*
X113266116Y-94452380D01*
X112837545Y-93785714D02*
X112837545Y-94309523D01*
X112885164Y-94404761D01*
X112980402Y-94452380D01*
X113123259Y-94452380D01*
X113218497Y-94404761D01*
X113266116Y-94357142D01*
X113742307Y-94452380D02*
X113742307Y-93785714D01*
X113742307Y-93880952D02*
X113789926Y-93833333D01*
X113885164Y-93785714D01*
X114028021Y-93785714D01*
X114123259Y-93833333D01*
X114170878Y-93928571D01*
X114170878Y-94452380D01*
X114170878Y-93928571D02*
X114218497Y-93833333D01*
X114313735Y-93785714D01*
X114456592Y-93785714D01*
X114551830Y-93833333D01*
X114599450Y-93928571D01*
X114599450Y-94452380D01*
X115075640Y-93785714D02*
X115075640Y-94785714D01*
X115075640Y-93833333D02*
X115170878Y-93785714D01*
X115361354Y-93785714D01*
X115456592Y-93833333D01*
X115504211Y-93880952D01*
X115551830Y-93976190D01*
X115551830Y-94261904D01*
X115504211Y-94357142D01*
X115456592Y-94404761D01*
X115361354Y-94452380D01*
X115170878Y-94452380D01*
X115075640Y-94404761D01*
X115885164Y-93785714D02*
X116123259Y-94452380D01*
X116361354Y-93785714D02*
X116123259Y-94452380D01*
X116028021Y-94690476D01*
X115980402Y-94738095D01*
X115885164Y-94785714D01*
X116789926Y-94404761D02*
X116789926Y-94452380D01*
X116742307Y-94547619D01*
X116694688Y-94595238D01*
X118123259Y-94452380D02*
X118028021Y-94404761D01*
X117980402Y-94357142D01*
X117932783Y-94261904D01*
X117932783Y-93976190D01*
X117980402Y-93880952D01*
X118028021Y-93833333D01*
X118123259Y-93785714D01*
X118266116Y-93785714D01*
X118361354Y-93833333D01*
X118408973Y-93880952D01*
X118456592Y-93976190D01*
X118456592Y-94261904D01*
X118408973Y-94357142D01*
X118361354Y-94404761D01*
X118266116Y-94452380D01*
X118123259Y-94452380D01*
X118885164Y-94452380D02*
X118885164Y-93785714D01*
X118885164Y-93976190D02*
X118932783Y-93880952D01*
X118980402Y-93833333D01*
X119075640Y-93785714D01*
X119170878Y-93785714D01*
X120218497Y-94404761D02*
X120313735Y-94452380D01*
X120504211Y-94452380D01*
X120599449Y-94404761D01*
X120647069Y-94309523D01*
X120647069Y-94261904D01*
X120599449Y-94166666D01*
X120504211Y-94119047D01*
X120361354Y-94119047D01*
X120266116Y-94071428D01*
X120218497Y-93976190D01*
X120218497Y-93928571D01*
X120266116Y-93833333D01*
X120361354Y-93785714D01*
X120504211Y-93785714D01*
X120599449Y-93833333D01*
X121075640Y-94452380D02*
X121075640Y-93785714D01*
X121075640Y-93880952D02*
X121123259Y-93833333D01*
X121218497Y-93785714D01*
X121361354Y-93785714D01*
X121456592Y-93833333D01*
X121504211Y-93928571D01*
X121504211Y-94452380D01*
X121504211Y-93928571D02*
X121551830Y-93833333D01*
X121647069Y-93785714D01*
X121789926Y-93785714D01*
X121885164Y-93833333D01*
X121932783Y-93928571D01*
X121932783Y-94452380D01*
X122551830Y-94452380D02*
X122456592Y-94404761D01*
X122408973Y-94357142D01*
X122361354Y-94261904D01*
X122361354Y-93976190D01*
X122408973Y-93880952D01*
X122456592Y-93833333D01*
X122551830Y-93785714D01*
X122694688Y-93785714D01*
X122789926Y-93833333D01*
X122837545Y-93880952D01*
X122885164Y-93976190D01*
X122885164Y-94261904D01*
X122837545Y-94357142D01*
X122789926Y-94404761D01*
X122694688Y-94452380D01*
X122551830Y-94452380D01*
X123456592Y-94452380D02*
X123361354Y-94404761D01*
X123313735Y-94357142D01*
X123266116Y-94261904D01*
X123266116Y-93976190D01*
X123313735Y-93880952D01*
X123361354Y-93833333D01*
X123456592Y-93785714D01*
X123599449Y-93785714D01*
X123694688Y-93833333D01*
X123742307Y-93880952D01*
X123789926Y-93976190D01*
X123789926Y-94261904D01*
X123742307Y-94357142D01*
X123694688Y-94404761D01*
X123599449Y-94452380D01*
X123456592Y-94452380D01*
X124075640Y-93785714D02*
X124456592Y-93785714D01*
X124218497Y-93452380D02*
X124218497Y-94309523D01*
X124266116Y-94404761D01*
X124361354Y-94452380D01*
X124456592Y-94452380D01*
X124789926Y-94452380D02*
X124789926Y-93452380D01*
X125218497Y-94452380D02*
X125218497Y-93928571D01*
X125170878Y-93833333D01*
X125075640Y-93785714D01*
X124932783Y-93785714D01*
X124837545Y-93833333D01*
X124789926Y-93880952D01*
X126456592Y-94071428D02*
X127218497Y-94071428D01*
X128456592Y-93785714D02*
X128456592Y-94785714D01*
X128456592Y-93833333D02*
X128551830Y-93785714D01*
X128742307Y-93785714D01*
X128837545Y-93833333D01*
X128885164Y-93880952D01*
X128932783Y-93976190D01*
X128932783Y-94261904D01*
X128885164Y-94357142D01*
X128837545Y-94404761D01*
X128742307Y-94452380D01*
X128551830Y-94452380D01*
X128456592Y-94404761D01*
X129361354Y-94452380D02*
X129361354Y-93785714D01*
X129361354Y-93452380D02*
X129313735Y-93500000D01*
X129361354Y-93547619D01*
X129408973Y-93500000D01*
X129361354Y-93452380D01*
X129361354Y-93547619D01*
X130266116Y-94404761D02*
X130170878Y-94452380D01*
X129980402Y-94452380D01*
X129885164Y-94404761D01*
X129837545Y-94357142D01*
X129789926Y-94261904D01*
X129789926Y-93976190D01*
X129837545Y-93880952D01*
X129885164Y-93833333D01*
X129980402Y-93785714D01*
X130170878Y-93785714D01*
X130266116Y-93833333D01*
X130694688Y-94452380D02*
X130694688Y-93452380D01*
X130789926Y-94071428D02*
X131075640Y-94452380D01*
X131075640Y-93785714D02*
X130694688Y-94166666D01*
X132170878Y-93785714D02*
X132408973Y-94452380D01*
X132647069Y-93785714D02*
X132408973Y-94452380D01*
X132313735Y-94690476D01*
X132266116Y-94738095D01*
X132170878Y-94785714D01*
X133170878Y-94452380D02*
X133075640Y-94404761D01*
X133028021Y-94357142D01*
X132980402Y-94261904D01*
X132980402Y-93976190D01*
X133028021Y-93880952D01*
X133075640Y-93833333D01*
X133170878Y-93785714D01*
X133313735Y-93785714D01*
X133408973Y-93833333D01*
X133456592Y-93880952D01*
X133504211Y-93976190D01*
X133504211Y-94261904D01*
X133456592Y-94357142D01*
X133408973Y-94404761D01*
X133313735Y-94452380D01*
X133170878Y-94452380D01*
X134361354Y-93785714D02*
X134361354Y-94452380D01*
X133932783Y-93785714D02*
X133932783Y-94309523D01*
X133980402Y-94404761D01*
X134075640Y-94452380D01*
X134218497Y-94452380D01*
X134313735Y-94404761D01*
X134361354Y-94357142D01*
X134837545Y-94452380D02*
X134837545Y-93785714D01*
X134837545Y-93976190D02*
X134885164Y-93880952D01*
X134932783Y-93833333D01*
X135028021Y-93785714D01*
X135123259Y-93785714D01*
X136218497Y-93785714D02*
X136218497Y-94785714D01*
X136218497Y-93833333D02*
X136313735Y-93785714D01*
X136504211Y-93785714D01*
X136599449Y-93833333D01*
X136647069Y-93880952D01*
X136694688Y-93976190D01*
X136694688Y-94261904D01*
X136647069Y-94357142D01*
X136599449Y-94404761D01*
X136504211Y-94452380D01*
X136313735Y-94452380D01*
X136218497Y-94404761D01*
X137266116Y-94452380D02*
X137170878Y-94404761D01*
X137123259Y-94357142D01*
X137075640Y-94261904D01*
X137075640Y-93976190D01*
X137123259Y-93880952D01*
X137170878Y-93833333D01*
X137266116Y-93785714D01*
X137408973Y-93785714D01*
X137504211Y-93833333D01*
X137551830Y-93880952D01*
X137599449Y-93976190D01*
X137599449Y-94261904D01*
X137551830Y-94357142D01*
X137504211Y-94404761D01*
X137408973Y-94452380D01*
X137266116Y-94452380D01*
X138028021Y-94452380D02*
X138028021Y-93785714D01*
X138028021Y-93452380D02*
X137980402Y-93500000D01*
X138028021Y-93547619D01*
X138075640Y-93500000D01*
X138028021Y-93452380D01*
X138028021Y-93547619D01*
X138456592Y-94404761D02*
X138551830Y-94452380D01*
X138742307Y-94452380D01*
X138837545Y-94404761D01*
X138885164Y-94309523D01*
X138885164Y-94261904D01*
X138837545Y-94166666D01*
X138742307Y-94119047D01*
X138599449Y-94119047D01*
X138504211Y-94071428D01*
X138456592Y-93976190D01*
X138456592Y-93928571D01*
X138504211Y-93833333D01*
X138599449Y-93785714D01*
X138742307Y-93785714D01*
X138837545Y-93833333D01*
X139456592Y-94452380D02*
X139361354Y-94404761D01*
X139313735Y-94357142D01*
X139266116Y-94261904D01*
X139266116Y-93976190D01*
X139313735Y-93880952D01*
X139361354Y-93833333D01*
X139456592Y-93785714D01*
X139599449Y-93785714D01*
X139694688Y-93833333D01*
X139742307Y-93880952D01*
X139789926Y-93976190D01*
X139789926Y-94261904D01*
X139742307Y-94357142D01*
X139694688Y-94404761D01*
X139599449Y-94452380D01*
X139456592Y-94452380D01*
X140218497Y-93785714D02*
X140218497Y-94452380D01*
X140218497Y-93880952D02*
X140266116Y-93833333D01*
X140361354Y-93785714D01*
X140504211Y-93785714D01*
X140599449Y-93833333D01*
X140647069Y-93928571D01*
X140647069Y-94452380D01*
X141028021Y-94833333D02*
X141075640Y-94785714D01*
X141170878Y-94642857D01*
X141218497Y-94547619D01*
X141266116Y-94404761D01*
X141313735Y-94166666D01*
X141313735Y-93976190D01*
X141266116Y-93738095D01*
X141218497Y-93595238D01*
X141170878Y-93500000D01*
X141075640Y-93357142D01*
X141028021Y-93309523D01*
X141789926Y-94357142D02*
X141837545Y-94404761D01*
X141789926Y-94452380D01*
X141742307Y-94404761D01*
X141789926Y-94357142D01*
X141789926Y-94452380D01*
D11*
X150643037Y-129737914D02*
X150309704Y-129261724D01*
X150071608Y-129737914D02*
X150071608Y-128737914D01*
X150452561Y-128737914D01*
X150547799Y-128785534D01*
X150595418Y-128833153D01*
X150643037Y-128928391D01*
X150643037Y-129071248D01*
X150595418Y-129166486D01*
X150547799Y-129214105D01*
X150452561Y-129261724D01*
X150071608Y-129261724D01*
X151452561Y-129690295D02*
X151357323Y-129737914D01*
X151166846Y-129737914D01*
X151071608Y-129690295D01*
X151023989Y-129595057D01*
X151023989Y-129214105D01*
X151071608Y-129118867D01*
X151166846Y-129071248D01*
X151357323Y-129071248D01*
X151452561Y-129118867D01*
X151500180Y-129214105D01*
X151500180Y-129309343D01*
X151023989Y-129404581D01*
X151833513Y-129071248D02*
X152071608Y-129737914D01*
X152309704Y-129071248D01*
X153976370Y-129737914D02*
X153404942Y-129737914D01*
X153690656Y-129737914D02*
X153690656Y-128737914D01*
X153595418Y-128880772D01*
X153500180Y-128976010D01*
X153404942Y-129023629D01*
X154404942Y-129642676D02*
X154452561Y-129690295D01*
X154404942Y-129737914D01*
X154357323Y-129690295D01*
X154404942Y-129642676D01*
X154404942Y-129737914D01*
X155071608Y-128737914D02*
X155166846Y-128737914D01*
X155262085Y-128785534D01*
X155309704Y-128833153D01*
X155357323Y-128928391D01*
X155404942Y-129118867D01*
X155404942Y-129356962D01*
X155357323Y-129547438D01*
X155309704Y-129642676D01*
X155262085Y-129690295D01*
X155166846Y-129737914D01*
X155071608Y-129737914D01*
X154976370Y-129690295D01*
X154928751Y-129642676D01*
X154881132Y-129547438D01*
X154833513Y-129356962D01*
X154833513Y-129118867D01*
X154881132Y-128928391D01*
X154928751Y-128833153D01*
X154976370Y-128785534D01*
X155071608Y-128737914D01*
X115201370Y-61608746D02*
X115201370Y-60608746D01*
X115439466Y-60608746D01*
X115582323Y-60656366D01*
X115677561Y-60751604D01*
X115725180Y-60846842D01*
X115772799Y-61037318D01*
X115772799Y-61180175D01*
X115725180Y-61370651D01*
X115677561Y-61465889D01*
X115582323Y-61561127D01*
X115439466Y-61608746D01*
X115201370Y-61608746D01*
X116106132Y-60608746D02*
X116725180Y-60608746D01*
X116391846Y-60989699D01*
X116534704Y-60989699D01*
X116629942Y-61037318D01*
X116677561Y-61084937D01*
X116725180Y-61180175D01*
X116725180Y-61418270D01*
X116677561Y-61513508D01*
X116629942Y-61561127D01*
X116534704Y-61608746D01*
X116248989Y-61608746D01*
X116153751Y-61561127D01*
X116106132Y-61513508D01*
D12*
X123321608Y-66892676D02*
X121607323Y-66892676D01*
X122464466Y-66892676D02*
X122464466Y-63892676D01*
X122178751Y-64321248D01*
X121893037Y-64606962D01*
X121607323Y-64749819D01*
D11*
X137000000Y-56797436D02*
X136952380Y-56892674D01*
X136952380Y-57035532D01*
X137000000Y-57178389D01*
X137095238Y-57273627D01*
X137190476Y-57321246D01*
X137380952Y-57368865D01*
X137523809Y-57368865D01*
X137714285Y-57321246D01*
X137809523Y-57273627D01*
X137904761Y-57178389D01*
X137952380Y-57035532D01*
X137952380Y-56940293D01*
X137904761Y-56797436D01*
X137857142Y-56749817D01*
X137523809Y-56749817D01*
X137523809Y-56940293D01*
X137952380Y-56321246D02*
X136952380Y-56321246D01*
X137952380Y-55749817D01*
X136952380Y-55749817D01*
X137952380Y-55273627D02*
X136952380Y-55273627D01*
X136952380Y-55035532D01*
X137000000Y-54892674D01*
X137095238Y-54797436D01*
X137190476Y-54749817D01*
X137380952Y-54702198D01*
X137523809Y-54702198D01*
X137714285Y-54749817D01*
X137809523Y-54797436D01*
X137904761Y-54892674D01*
X137952380Y-55035532D01*
X137952380Y-55273627D01*
X115126371Y-69196246D02*
X115126371Y-68196246D01*
X115364467Y-68196246D01*
X115507324Y-68243866D01*
X115602562Y-68339104D01*
X115650181Y-68434342D01*
X115697800Y-68624818D01*
X115697800Y-68767675D01*
X115650181Y-68958151D01*
X115602562Y-69053389D01*
X115507324Y-69148627D01*
X115364467Y-69196246D01*
X115126371Y-69196246D01*
X116554943Y-68196246D02*
X116364467Y-68196246D01*
X116269228Y-68243866D01*
X116221609Y-68291485D01*
X116126371Y-68434342D01*
X116078752Y-68624818D01*
X116078752Y-69005770D01*
X116126371Y-69101008D01*
X116173990Y-69148627D01*
X116269228Y-69196246D01*
X116459705Y-69196246D01*
X116554943Y-69148627D01*
X116602562Y-69101008D01*
X116650181Y-69005770D01*
X116650181Y-68767675D01*
X116602562Y-68672437D01*
X116554943Y-68624818D01*
X116459705Y-68577199D01*
X116269228Y-68577199D01*
X116173990Y-68624818D01*
X116126371Y-68672437D01*
X116078752Y-68767675D01*
D14*
X95789926Y-89797619D02*
X95837545Y-89750000D01*
X95932783Y-89702380D01*
X96170878Y-89702380D01*
X96266116Y-89750000D01*
X96313735Y-89797619D01*
X96361354Y-89892857D01*
X96361354Y-89988095D01*
X96313735Y-90130952D01*
X95742307Y-90702380D01*
X96361354Y-90702380D01*
X96789926Y-90607142D02*
X96837545Y-90654761D01*
X96789926Y-90702380D01*
X96742307Y-90654761D01*
X96789926Y-90607142D01*
X96789926Y-90702380D01*
X97885164Y-89702380D02*
X98456592Y-89702380D01*
X98170878Y-90702380D02*
X98170878Y-89702380D01*
X98789926Y-90702380D02*
X98789926Y-89702380D01*
X99218497Y-90702380D02*
X99218497Y-90178571D01*
X99170878Y-90083333D01*
X99075640Y-90035714D01*
X98932783Y-90035714D01*
X98837545Y-90083333D01*
X98789926Y-90130952D01*
X100075640Y-90654761D02*
X99980402Y-90702380D01*
X99789926Y-90702380D01*
X99694688Y-90654761D01*
X99647069Y-90559523D01*
X99647069Y-90178571D01*
X99694688Y-90083333D01*
X99789926Y-90035714D01*
X99980402Y-90035714D01*
X100075640Y-90083333D01*
X100123259Y-90178571D01*
X100123259Y-90273809D01*
X99647069Y-90369047D01*
X101742307Y-90702380D02*
X101742307Y-89702380D01*
X101742307Y-90654761D02*
X101647069Y-90702380D01*
X101456592Y-90702380D01*
X101361354Y-90654761D01*
X101313735Y-90607142D01*
X101266116Y-90511904D01*
X101266116Y-90226190D01*
X101313735Y-90130952D01*
X101361354Y-90083333D01*
X101456592Y-90035714D01*
X101647069Y-90035714D01*
X101742307Y-90083333D01*
X102218497Y-90702380D02*
X102218497Y-90035714D01*
X102218497Y-89702380D02*
X102170878Y-89750000D01*
X102218497Y-89797619D01*
X102266116Y-89750000D01*
X102218497Y-89702380D01*
X102218497Y-89797619D01*
X102837545Y-90702380D02*
X102742307Y-90654761D01*
X102694688Y-90607142D01*
X102647069Y-90511904D01*
X102647069Y-90226190D01*
X102694688Y-90130952D01*
X102742307Y-90083333D01*
X102837545Y-90035714D01*
X102980402Y-90035714D01*
X103075640Y-90083333D01*
X103123259Y-90130952D01*
X103170878Y-90226190D01*
X103170878Y-90511904D01*
X103123259Y-90607142D01*
X103075640Y-90654761D01*
X102980402Y-90702380D01*
X102837545Y-90702380D01*
X104028021Y-90702380D02*
X104028021Y-89702380D01*
X104028021Y-90654761D02*
X103932783Y-90702380D01*
X103742307Y-90702380D01*
X103647069Y-90654761D01*
X103599450Y-90607142D01*
X103551830Y-90511904D01*
X103551830Y-90226190D01*
X103599450Y-90130952D01*
X103647069Y-90083333D01*
X103742307Y-90035714D01*
X103932783Y-90035714D01*
X104028021Y-90083333D01*
X104885164Y-90654761D02*
X104789926Y-90702380D01*
X104599450Y-90702380D01*
X104504211Y-90654761D01*
X104456592Y-90559523D01*
X104456592Y-90178571D01*
X104504211Y-90083333D01*
X104599450Y-90035714D01*
X104789926Y-90035714D01*
X104885164Y-90083333D01*
X104932783Y-90178571D01*
X104932783Y-90273809D01*
X104456592Y-90369047D01*
X105313735Y-90654761D02*
X105408973Y-90702380D01*
X105599450Y-90702380D01*
X105694688Y-90654761D01*
X105742307Y-90559523D01*
X105742307Y-90511904D01*
X105694688Y-90416666D01*
X105599450Y-90369047D01*
X105456592Y-90369047D01*
X105361354Y-90321428D01*
X105313735Y-90226190D01*
X105313735Y-90178571D01*
X105361354Y-90083333D01*
X105456592Y-90035714D01*
X105599450Y-90035714D01*
X105694688Y-90083333D01*
X106170878Y-90607142D02*
X106218497Y-90654761D01*
X106170878Y-90702380D01*
X106123259Y-90654761D01*
X106170878Y-90607142D01*
X106170878Y-90702380D01*
X106170878Y-90321428D02*
X106123259Y-89750000D01*
X106170878Y-89702380D01*
X106218497Y-89750000D01*
X106170878Y-90321428D01*
X106170878Y-89702380D01*
X107694688Y-91083333D02*
X107647069Y-91035714D01*
X107551830Y-90892857D01*
X107504211Y-90797619D01*
X107456592Y-90654761D01*
X107408973Y-90416666D01*
X107408973Y-90226190D01*
X107456592Y-89988095D01*
X107504211Y-89845238D01*
X107551830Y-89750000D01*
X107647069Y-89607142D01*
X107694688Y-89559523D01*
X108028021Y-90416666D02*
X108504211Y-90416666D01*
X107932783Y-90702380D02*
X108266116Y-89702380D01*
X108599450Y-90702380D01*
X108885164Y-90654761D02*
X108980402Y-90702380D01*
X109170878Y-90702380D01*
X109266116Y-90654761D01*
X109313735Y-90559523D01*
X109313735Y-90511904D01*
X109266116Y-90416666D01*
X109170878Y-90369047D01*
X109028021Y-90369047D01*
X108932783Y-90321428D01*
X108885164Y-90226190D01*
X108885164Y-90178571D01*
X108932783Y-90083333D01*
X109028021Y-90035714D01*
X109170878Y-90035714D01*
X109266116Y-90083333D01*
X109742307Y-90702380D02*
X109742307Y-89702380D01*
X109837545Y-90321428D02*
X110123259Y-90702380D01*
X110123259Y-90035714D02*
X109742307Y-90416666D01*
X111742307Y-90702380D02*
X111742307Y-90178571D01*
X111694688Y-90083333D01*
X111599450Y-90035714D01*
X111408973Y-90035714D01*
X111313735Y-90083333D01*
X111742307Y-90654761D02*
X111647069Y-90702380D01*
X111408973Y-90702380D01*
X111313735Y-90654761D01*
X111266116Y-90559523D01*
X111266116Y-90464285D01*
X111313735Y-90369047D01*
X111408973Y-90321428D01*
X111647069Y-90321428D01*
X111742307Y-90273809D01*
X112218497Y-90702380D02*
X112218497Y-89702380D01*
X112218497Y-90083333D02*
X112313735Y-90035714D01*
X112504211Y-90035714D01*
X112599450Y-90083333D01*
X112647069Y-90130952D01*
X112694688Y-90226190D01*
X112694688Y-90511904D01*
X112647069Y-90607142D01*
X112599450Y-90654761D01*
X112504211Y-90702380D01*
X112313735Y-90702380D01*
X112218497Y-90654761D01*
X113266116Y-90702380D02*
X113170878Y-90654761D01*
X113123259Y-90607142D01*
X113075640Y-90511904D01*
X113075640Y-90226190D01*
X113123259Y-90130952D01*
X113170878Y-90083333D01*
X113266116Y-90035714D01*
X113408973Y-90035714D01*
X113504211Y-90083333D01*
X113551830Y-90130952D01*
X113599450Y-90226190D01*
X113599450Y-90511904D01*
X113551830Y-90607142D01*
X113504211Y-90654761D01*
X113408973Y-90702380D01*
X113266116Y-90702380D01*
X114456592Y-90035714D02*
X114456592Y-90702380D01*
X114028021Y-90035714D02*
X114028021Y-90559523D01*
X114075640Y-90654761D01*
X114170878Y-90702380D01*
X114313735Y-90702380D01*
X114408973Y-90654761D01*
X114456592Y-90607142D01*
X114789926Y-90035714D02*
X115170878Y-90035714D01*
X114932783Y-89702380D02*
X114932783Y-90559523D01*
X114980402Y-90654761D01*
X115075640Y-90702380D01*
X115170878Y-90702380D01*
X116266116Y-90702380D02*
X116266116Y-89702380D01*
X116837545Y-90702380D01*
X116837545Y-89702380D01*
X117313735Y-90702380D02*
X117313735Y-89702380D01*
X117885164Y-90702380D02*
X117456592Y-90130952D01*
X117885164Y-89702380D02*
X117313735Y-90273809D01*
X118885164Y-90702380D02*
X118551830Y-90226190D01*
X118313735Y-90702380D02*
X118313735Y-89702380D01*
X118694688Y-89702380D01*
X118789926Y-89750000D01*
X118837545Y-89797619D01*
X118885164Y-89892857D01*
X118885164Y-90035714D01*
X118837545Y-90130952D01*
X118789926Y-90178571D01*
X118694688Y-90226190D01*
X118313735Y-90226190D01*
X119504211Y-89702380D02*
X119694688Y-89702380D01*
X119789926Y-89750000D01*
X119885164Y-89845238D01*
X119932783Y-90035714D01*
X119932783Y-90369047D01*
X119885164Y-90559523D01*
X119789926Y-90654761D01*
X119694688Y-90702380D01*
X119504211Y-90702380D01*
X119408973Y-90654761D01*
X119313735Y-90559523D01*
X119266116Y-90369047D01*
X119266116Y-90035714D01*
X119313735Y-89845238D01*
X119408973Y-89750000D01*
X119504211Y-89702380D01*
X120266116Y-91083333D02*
X120313735Y-91035714D01*
X120408973Y-90892857D01*
X120456592Y-90797619D01*
X120504211Y-90654761D01*
X120551830Y-90416666D01*
X120551830Y-90226190D01*
X120504211Y-89988095D01*
X120456592Y-89845238D01*
X120408973Y-89750000D01*
X120313735Y-89607142D01*
X120266116Y-89559523D01*
D11*
X115226371Y-64137912D02*
X115226371Y-63137912D01*
X115464467Y-63137912D01*
X115607324Y-63185532D01*
X115702562Y-63280770D01*
X115750181Y-63376008D01*
X115797800Y-63566484D01*
X115797800Y-63709341D01*
X115750181Y-63899817D01*
X115702562Y-63995055D01*
X115607324Y-64090293D01*
X115464467Y-64137912D01*
X115226371Y-64137912D01*
X116654943Y-63471246D02*
X116654943Y-64137912D01*
X116416847Y-63090293D02*
X116178752Y-63804579D01*
X116797800Y-63804579D01*
X115201370Y-59079579D02*
X115201370Y-58079579D01*
X115439466Y-58079579D01*
X115582323Y-58127199D01*
X115677561Y-58222437D01*
X115725180Y-58317675D01*
X115772799Y-58508151D01*
X115772799Y-58651008D01*
X115725180Y-58841484D01*
X115677561Y-58936722D01*
X115582323Y-59031960D01*
X115439466Y-59079579D01*
X115201370Y-59079579D01*
X116153751Y-58174818D02*
X116201370Y-58127199D01*
X116296608Y-58079579D01*
X116534704Y-58079579D01*
X116629942Y-58127199D01*
X116677561Y-58174818D01*
X116725180Y-58270056D01*
X116725180Y-58365294D01*
X116677561Y-58508151D01*
X116106132Y-59079579D01*
X116725180Y-59079579D01*
X115151369Y-66667079D02*
X115151369Y-65667079D01*
X115389465Y-65667079D01*
X115532322Y-65714699D01*
X115627560Y-65809937D01*
X115675179Y-65905175D01*
X115722798Y-66095651D01*
X115722798Y-66238508D01*
X115675179Y-66428984D01*
X115627560Y-66524222D01*
X115532322Y-66619460D01*
X115389465Y-66667079D01*
X115151369Y-66667079D01*
X116627560Y-65667079D02*
X116151369Y-65667079D01*
X116103750Y-66143270D01*
X116151369Y-66095651D01*
X116246607Y-66048032D01*
X116484703Y-66048032D01*
X116579941Y-66095651D01*
X116627560Y-66143270D01*
X116675179Y-66238508D01*
X116675179Y-66476603D01*
X116627560Y-66571841D01*
X116579941Y-66619460D01*
X116484703Y-66667079D01*
X116246607Y-66667079D01*
X116151369Y-66619460D01*
X116103750Y-66571841D01*
D14*
X91131132Y-73682914D02*
X90654942Y-73682914D01*
X90654942Y-72682914D01*
X91464466Y-73682914D02*
X91464466Y-73016248D01*
X91464466Y-72682914D02*
X91416846Y-72730534D01*
X91464466Y-72778153D01*
X91512085Y-72730534D01*
X91464466Y-72682914D01*
X91464466Y-72778153D01*
X91940656Y-73016248D02*
X91940656Y-73682914D01*
X91940656Y-73111486D02*
X91988275Y-73063867D01*
X92083513Y-73016248D01*
X92226370Y-73016248D01*
X92321608Y-73063867D01*
X92369227Y-73159105D01*
X92369227Y-73682914D01*
X93226370Y-73635295D02*
X93131132Y-73682914D01*
X92940656Y-73682914D01*
X92845418Y-73635295D01*
X92797799Y-73540057D01*
X92797799Y-73159105D01*
X92845418Y-73063867D01*
X92940656Y-73016248D01*
X93131132Y-73016248D01*
X93226370Y-73063867D01*
X93273989Y-73159105D01*
X93273989Y-73254343D01*
X92797799Y-73349581D01*
X93654942Y-73635295D02*
X93750180Y-73682914D01*
X93940656Y-73682914D01*
X94035894Y-73635295D01*
X94083513Y-73540057D01*
X94083513Y-73492438D01*
X94035894Y-73397200D01*
X93940656Y-73349581D01*
X93797799Y-73349581D01*
X93702561Y-73301962D01*
X93654942Y-73206724D01*
X93654942Y-73159105D01*
X93702561Y-73063867D01*
X93797799Y-73016248D01*
X93940656Y-73016248D01*
X94035894Y-73063867D01*
X95416846Y-73682914D02*
X95321608Y-73635295D01*
X95273989Y-73587676D01*
X95226370Y-73492438D01*
X95226370Y-73206724D01*
X95273989Y-73111486D01*
X95321608Y-73063867D01*
X95416846Y-73016248D01*
X95559704Y-73016248D01*
X95654942Y-73063867D01*
X95702561Y-73111486D01*
X95750180Y-73206724D01*
X95750180Y-73492438D01*
X95702561Y-73587676D01*
X95654942Y-73635295D01*
X95559704Y-73682914D01*
X95416846Y-73682914D01*
X96178751Y-73016248D02*
X96178751Y-73682914D01*
X96178751Y-73111486D02*
X96226370Y-73063867D01*
X96321608Y-73016248D01*
X96464466Y-73016248D01*
X96559704Y-73063867D01*
X96607323Y-73159105D01*
X96607323Y-73682914D01*
X98273989Y-73682914D02*
X98273989Y-72682914D01*
X98273989Y-73635295D02*
X98178751Y-73682914D01*
X97988275Y-73682914D01*
X97893037Y-73635295D01*
X97845418Y-73587676D01*
X97797799Y-73492438D01*
X97797799Y-73206724D01*
X97845418Y-73111486D01*
X97893037Y-73063867D01*
X97988275Y-73016248D01*
X98178751Y-73016248D01*
X98273989Y-73063867D01*
X98750180Y-73682914D02*
X98750180Y-73016248D01*
X98750180Y-72682914D02*
X98702561Y-72730534D01*
X98750180Y-72778153D01*
X98797799Y-72730534D01*
X98750180Y-72682914D01*
X98750180Y-72778153D01*
X99369227Y-73682914D02*
X99273989Y-73635295D01*
X99226370Y-73587676D01*
X99178751Y-73492438D01*
X99178751Y-73206724D01*
X99226370Y-73111486D01*
X99273989Y-73063867D01*
X99369227Y-73016248D01*
X99512085Y-73016248D01*
X99607323Y-73063867D01*
X99654942Y-73111486D01*
X99702561Y-73206724D01*
X99702561Y-73492438D01*
X99654942Y-73587676D01*
X99607323Y-73635295D01*
X99512085Y-73682914D01*
X99369227Y-73682914D01*
X100559704Y-73682914D02*
X100559704Y-72682914D01*
X100559704Y-73635295D02*
X100464466Y-73682914D01*
X100273989Y-73682914D01*
X100178751Y-73635295D01*
X100131132Y-73587676D01*
X100083513Y-73492438D01*
X100083513Y-73206724D01*
X100131132Y-73111486D01*
X100178751Y-73063867D01*
X100273989Y-73016248D01*
X100464466Y-73016248D01*
X100559704Y-73063867D01*
X101416846Y-73635295D02*
X101321608Y-73682914D01*
X101131132Y-73682914D01*
X101035894Y-73635295D01*
X100988275Y-73540057D01*
X100988275Y-73159105D01*
X101035894Y-73063867D01*
X101131132Y-73016248D01*
X101321608Y-73016248D01*
X101416846Y-73063867D01*
X101464466Y-73159105D01*
X101464466Y-73254343D01*
X100988275Y-73349581D01*
X101845418Y-73635295D02*
X101940656Y-73682914D01*
X102131132Y-73682914D01*
X102226370Y-73635295D01*
X102273989Y-73540057D01*
X102273989Y-73492438D01*
X102226370Y-73397200D01*
X102131132Y-73349581D01*
X101988275Y-73349581D01*
X101893037Y-73301962D01*
X101845418Y-73206724D01*
X101845418Y-73159105D01*
X101893037Y-73063867D01*
X101988275Y-73016248D01*
X102131132Y-73016248D01*
X102226370Y-73063867D01*
X103416846Y-73635295D02*
X103512085Y-73682914D01*
X103702561Y-73682914D01*
X103797799Y-73635295D01*
X103845418Y-73540057D01*
X103845418Y-73492438D01*
X103797799Y-73397200D01*
X103702561Y-73349581D01*
X103559704Y-73349581D01*
X103464466Y-73301962D01*
X103416846Y-73206724D01*
X103416846Y-73159105D01*
X103464466Y-73063867D01*
X103559704Y-73016248D01*
X103702561Y-73016248D01*
X103797799Y-73063867D01*
X104273989Y-73682914D02*
X104273989Y-72682914D01*
X104702561Y-73682914D02*
X104702561Y-73159105D01*
X104654942Y-73063867D01*
X104559704Y-73016248D01*
X104416846Y-73016248D01*
X104321608Y-73063867D01*
X104273989Y-73111486D01*
X105321608Y-73682914D02*
X105226370Y-73635295D01*
X105178751Y-73587676D01*
X105131132Y-73492438D01*
X105131132Y-73206724D01*
X105178751Y-73111486D01*
X105226370Y-73063867D01*
X105321608Y-73016248D01*
X105464466Y-73016248D01*
X105559704Y-73063867D01*
X105607323Y-73111486D01*
X105654942Y-73206724D01*
X105654942Y-73492438D01*
X105607323Y-73587676D01*
X105559704Y-73635295D01*
X105464466Y-73682914D01*
X105321608Y-73682914D01*
X106512085Y-73016248D02*
X106512085Y-73682914D01*
X106083513Y-73016248D02*
X106083513Y-73540057D01*
X106131132Y-73635295D01*
X106226370Y-73682914D01*
X106369227Y-73682914D01*
X106464466Y-73635295D01*
X106512085Y-73587676D01*
X107131132Y-73682914D02*
X107035894Y-73635295D01*
X106988275Y-73540057D01*
X106988275Y-72682914D01*
X107940656Y-73682914D02*
X107940656Y-72682914D01*
X107940656Y-73635295D02*
X107845418Y-73682914D01*
X107654942Y-73682914D01*
X107559704Y-73635295D01*
X107512085Y-73587676D01*
X107464466Y-73492438D01*
X107464466Y-73206724D01*
X107512085Y-73111486D01*
X107559704Y-73063867D01*
X107654942Y-73016248D01*
X107845418Y-73016248D01*
X107940656Y-73063867D01*
X109178751Y-73682914D02*
X109178751Y-73016248D01*
X109178751Y-73111486D02*
X109226370Y-73063867D01*
X109321608Y-73016248D01*
X109464466Y-73016248D01*
X109559704Y-73063867D01*
X109607323Y-73159105D01*
X109607323Y-73682914D01*
X109607323Y-73159105D02*
X109654942Y-73063867D01*
X109750180Y-73016248D01*
X109893037Y-73016248D01*
X109988275Y-73063867D01*
X110035894Y-73159105D01*
X110035894Y-73682914D01*
X110940656Y-73682914D02*
X110940656Y-73159105D01*
X110893037Y-73063867D01*
X110797799Y-73016248D01*
X110607323Y-73016248D01*
X110512085Y-73063867D01*
X110940656Y-73635295D02*
X110845418Y-73682914D01*
X110607323Y-73682914D01*
X110512085Y-73635295D01*
X110464466Y-73540057D01*
X110464466Y-73444819D01*
X110512085Y-73349581D01*
X110607323Y-73301962D01*
X110845418Y-73301962D01*
X110940656Y-73254343D01*
X111273989Y-73016248D02*
X111654942Y-73016248D01*
X111416846Y-72682914D02*
X111416846Y-73540057D01*
X111464466Y-73635295D01*
X111559704Y-73682914D01*
X111654942Y-73682914D01*
X112416846Y-73635295D02*
X112321608Y-73682914D01*
X112131132Y-73682914D01*
X112035894Y-73635295D01*
X111988275Y-73587676D01*
X111940656Y-73492438D01*
X111940656Y-73206724D01*
X111988275Y-73111486D01*
X112035894Y-73063867D01*
X112131132Y-73016248D01*
X112321608Y-73016248D01*
X112416846Y-73063867D01*
X112845418Y-73682914D02*
X112845418Y-72682914D01*
X113273989Y-73682914D02*
X113273989Y-73159105D01*
X113226370Y-73063867D01*
X113131132Y-73016248D01*
X112988275Y-73016248D01*
X112893037Y-73063867D01*
X112845418Y-73111486D01*
X94893037Y-75292914D02*
X94797799Y-75245295D01*
X94750180Y-75150057D01*
X94750180Y-74292914D01*
X95273989Y-75292914D02*
X95273989Y-74626248D01*
X95273989Y-74292914D02*
X95226370Y-74340534D01*
X95273989Y-74388153D01*
X95321608Y-74340534D01*
X95273989Y-74292914D01*
X95273989Y-74388153D01*
X95750180Y-74626248D02*
X95750180Y-75292914D01*
X95750180Y-74721486D02*
X95797799Y-74673867D01*
X95893037Y-74626248D01*
X96035894Y-74626248D01*
X96131132Y-74673867D01*
X96178751Y-74769105D01*
X96178751Y-75292914D01*
X97035894Y-75245295D02*
X96940656Y-75292914D01*
X96750180Y-75292914D01*
X96654942Y-75245295D01*
X96607323Y-75150057D01*
X96607323Y-74769105D01*
X96654942Y-74673867D01*
X96750180Y-74626248D01*
X96940656Y-74626248D01*
X97035894Y-74673867D01*
X97083513Y-74769105D01*
X97083513Y-74864343D01*
X96607323Y-74959581D01*
X97464466Y-75245295D02*
X97559704Y-75292914D01*
X97750180Y-75292914D01*
X97845418Y-75245295D01*
X97893037Y-75150057D01*
X97893037Y-75102438D01*
X97845418Y-75007200D01*
X97750180Y-74959581D01*
X97607323Y-74959581D01*
X97512085Y-74911962D01*
X97464466Y-74816724D01*
X97464466Y-74769105D01*
X97512085Y-74673867D01*
X97607323Y-74626248D01*
X97750180Y-74626248D01*
X97845418Y-74673867D01*
X99226370Y-75292914D02*
X99131132Y-75245295D01*
X99083513Y-75197676D01*
X99035894Y-75102438D01*
X99035894Y-74816724D01*
X99083513Y-74721486D01*
X99131132Y-74673867D01*
X99226370Y-74626248D01*
X99369227Y-74626248D01*
X99464466Y-74673867D01*
X99512085Y-74721486D01*
X99559704Y-74816724D01*
X99559704Y-75102438D01*
X99512085Y-75197676D01*
X99464466Y-75245295D01*
X99369227Y-75292914D01*
X99226370Y-75292914D01*
X99988275Y-74626248D02*
X99988275Y-75292914D01*
X99988275Y-74721486D02*
X100035894Y-74673867D01*
X100131132Y-74626248D01*
X100273989Y-74626248D01*
X100369227Y-74673867D01*
X100416846Y-74769105D01*
X100416846Y-75292914D01*
X101607323Y-75245295D02*
X101702561Y-75292914D01*
X101893037Y-75292914D01*
X101988275Y-75245295D01*
X102035894Y-75150057D01*
X102035894Y-75102438D01*
X101988275Y-75007200D01*
X101893037Y-74959581D01*
X101750180Y-74959581D01*
X101654942Y-74911962D01*
X101607323Y-74816724D01*
X101607323Y-74769105D01*
X101654942Y-74673867D01*
X101750180Y-74626248D01*
X101893037Y-74626248D01*
X101988275Y-74673867D01*
X102464466Y-75292914D02*
X102464466Y-74626248D01*
X102464466Y-74292914D02*
X102416846Y-74340534D01*
X102464466Y-74388153D01*
X102512085Y-74340534D01*
X102464466Y-74292914D01*
X102464466Y-74388153D01*
X103083513Y-75292914D02*
X102988275Y-75245295D01*
X102940656Y-75150057D01*
X102940656Y-74292914D01*
X103464466Y-75292914D02*
X103464466Y-74292914D01*
X103559704Y-74911962D02*
X103845418Y-75292914D01*
X103845418Y-74626248D02*
X103464466Y-75007200D01*
X104226370Y-75245295D02*
X104321608Y-75292914D01*
X104512085Y-75292914D01*
X104607323Y-75245295D01*
X104654942Y-75150057D01*
X104654942Y-75102438D01*
X104607323Y-75007200D01*
X104512085Y-74959581D01*
X104369227Y-74959581D01*
X104273989Y-74911962D01*
X104226370Y-74816724D01*
X104226370Y-74769105D01*
X104273989Y-74673867D01*
X104369227Y-74626248D01*
X104512085Y-74626248D01*
X104607323Y-74673867D01*
X105512085Y-75245295D02*
X105416846Y-75292914D01*
X105226370Y-75292914D01*
X105131132Y-75245295D01*
X105083513Y-75197676D01*
X105035894Y-75102438D01*
X105035894Y-74816724D01*
X105083513Y-74721486D01*
X105131132Y-74673867D01*
X105226370Y-74626248D01*
X105416846Y-74626248D01*
X105512085Y-74673867D01*
X105940656Y-75292914D02*
X105940656Y-74626248D01*
X105940656Y-74816724D02*
X105988275Y-74721486D01*
X106035894Y-74673867D01*
X106131132Y-74626248D01*
X106226370Y-74626248D01*
X106940656Y-75245295D02*
X106845418Y-75292914D01*
X106654942Y-75292914D01*
X106559704Y-75245295D01*
X106512085Y-75150057D01*
X106512085Y-74769105D01*
X106559704Y-74673867D01*
X106654942Y-74626248D01*
X106845418Y-74626248D01*
X106940656Y-74673867D01*
X106988275Y-74769105D01*
X106988275Y-74864343D01*
X106512085Y-74959581D01*
X107797799Y-75245295D02*
X107702561Y-75292914D01*
X107512085Y-75292914D01*
X107416846Y-75245295D01*
X107369227Y-75150057D01*
X107369227Y-74769105D01*
X107416846Y-74673867D01*
X107512085Y-74626248D01*
X107702561Y-74626248D01*
X107797799Y-74673867D01*
X107845418Y-74769105D01*
X107845418Y-74864343D01*
X107369227Y-74959581D01*
X108273989Y-74626248D02*
X108273989Y-75292914D01*
X108273989Y-74721486D02*
X108321608Y-74673867D01*
X108416846Y-74626248D01*
X108559704Y-74626248D01*
X108654942Y-74673867D01*
X108702561Y-74769105D01*
X108702561Y-75292914D01*
X109178751Y-75197676D02*
X109226370Y-75245295D01*
X109178751Y-75292914D01*
X109131132Y-75245295D01*
X109178751Y-75197676D01*
X109178751Y-75292914D01*
D11*
X136797799Y-61546243D02*
X136797799Y-60546243D01*
X137035894Y-60546243D01*
X137178751Y-60593863D01*
X137273989Y-60689101D01*
X137321608Y-60784339D01*
X137369227Y-60974815D01*
X137369227Y-61117672D01*
X137321608Y-61308148D01*
X137273989Y-61403386D01*
X137178751Y-61498624D01*
X137035894Y-61546243D01*
X136797799Y-61546243D01*
X138321608Y-61546243D02*
X137750180Y-61546243D01*
X138035894Y-61546243D02*
X138035894Y-60546243D01*
X137940656Y-60689101D01*
X137845418Y-60784339D01*
X137750180Y-60831958D01*
X138940656Y-60546243D02*
X139035894Y-60546243D01*
X139131132Y-60593863D01*
X139178751Y-60641482D01*
X139226370Y-60736720D01*
X139273989Y-60927196D01*
X139273989Y-61165291D01*
X139226370Y-61355767D01*
X139178751Y-61451005D01*
X139131132Y-61498624D01*
X139035894Y-61546243D01*
X138940656Y-61546243D01*
X138845418Y-61498624D01*
X138797799Y-61451005D01*
X138750180Y-61355767D01*
X138702561Y-61165291D01*
X138702561Y-60927196D01*
X138750180Y-60736720D01*
X138797799Y-60641482D01*
X138845418Y-60593863D01*
X138940656Y-60546243D01*
X115126371Y-54021246D02*
X115126371Y-53021246D01*
X115364467Y-53021246D01*
X115507324Y-53068866D01*
X115602562Y-53164104D01*
X115650181Y-53259342D01*
X115697800Y-53449818D01*
X115697800Y-53592675D01*
X115650181Y-53783151D01*
X115602562Y-53878389D01*
X115507324Y-53973627D01*
X115364467Y-54021246D01*
X115126371Y-54021246D01*
X116316847Y-53021246D02*
X116412086Y-53021246D01*
X116507324Y-53068866D01*
X116554943Y-53116485D01*
X116602562Y-53211723D01*
X116650181Y-53402199D01*
X116650181Y-53640294D01*
X116602562Y-53830770D01*
X116554943Y-53926008D01*
X116507324Y-53973627D01*
X116412086Y-54021246D01*
X116316847Y-54021246D01*
X116221609Y-53973627D01*
X116173990Y-53926008D01*
X116126371Y-53830770D01*
X116078752Y-53640294D01*
X116078752Y-53402199D01*
X116126371Y-53211723D01*
X116173990Y-53116485D01*
X116221609Y-53068866D01*
X116316847Y-53021246D01*
D14*
X95742307Y-91702380D02*
X96361354Y-91702380D01*
X96028021Y-92083333D01*
X96170878Y-92083333D01*
X96266116Y-92130952D01*
X96313735Y-92178571D01*
X96361354Y-92273809D01*
X96361354Y-92511904D01*
X96313735Y-92607142D01*
X96266116Y-92654761D01*
X96170878Y-92702380D01*
X95885164Y-92702380D01*
X95789926Y-92654761D01*
X95742307Y-92607142D01*
X96789926Y-92607142D02*
X96837545Y-92654761D01*
X96789926Y-92702380D01*
X96742307Y-92654761D01*
X96789926Y-92607142D01*
X96789926Y-92702380D01*
X98504211Y-92702380D02*
X98028021Y-92702380D01*
X98028021Y-91702380D01*
X98837545Y-92178571D02*
X99170878Y-92178571D01*
X99313735Y-92702380D02*
X98837545Y-92702380D01*
X98837545Y-91702380D01*
X99313735Y-91702380D01*
X99742307Y-92702380D02*
X99742307Y-91702380D01*
X99980402Y-91702380D01*
X100123259Y-91750000D01*
X100218497Y-91845238D01*
X100266116Y-91940476D01*
X100313735Y-92130952D01*
X100313735Y-92273809D01*
X100266116Y-92464285D01*
X100218497Y-92559523D01*
X100123259Y-92654761D01*
X99980402Y-92702380D01*
X99742307Y-92702380D01*
X100694688Y-92654761D02*
X100789926Y-92702380D01*
X100980402Y-92702380D01*
X101075640Y-92654761D01*
X101123259Y-92559523D01*
X101123259Y-92511904D01*
X101075640Y-92416666D01*
X100980402Y-92369047D01*
X100837545Y-92369047D01*
X100742307Y-92321428D01*
X100694688Y-92226190D01*
X100694688Y-92178571D01*
X100742307Y-92083333D01*
X100837545Y-92035714D01*
X100980402Y-92035714D01*
X101075640Y-92083333D01*
X102599450Y-93083333D02*
X102551830Y-93035714D01*
X102456592Y-92892857D01*
X102408973Y-92797619D01*
X102361354Y-92654761D01*
X102313735Y-92416666D01*
X102313735Y-92226190D01*
X102361354Y-91988095D01*
X102408973Y-91845238D01*
X102456592Y-91750000D01*
X102551830Y-91607142D01*
X102599450Y-91559523D01*
X102980402Y-92702380D02*
X102980402Y-92035714D01*
X102980402Y-92130952D02*
X103028021Y-92083333D01*
X103123259Y-92035714D01*
X103266116Y-92035714D01*
X103361354Y-92083333D01*
X103408973Y-92178571D01*
X103408973Y-92702380D01*
X103408973Y-92178571D02*
X103456592Y-92083333D01*
X103551830Y-92035714D01*
X103694688Y-92035714D01*
X103789926Y-92083333D01*
X103837545Y-92178571D01*
X103837545Y-92702380D01*
X104742307Y-92702380D02*
X104742307Y-92178571D01*
X104694688Y-92083333D01*
X104599450Y-92035714D01*
X104408973Y-92035714D01*
X104313735Y-92083333D01*
X104742307Y-92654761D02*
X104647069Y-92702380D01*
X104408973Y-92702380D01*
X104313735Y-92654761D01*
X104266116Y-92559523D01*
X104266116Y-92464285D01*
X104313735Y-92369047D01*
X104408973Y-92321428D01*
X104647069Y-92321428D01*
X104742307Y-92273809D01*
X105218497Y-92702380D02*
X105218497Y-91702380D01*
X105313735Y-92321428D02*
X105599450Y-92702380D01*
X105599450Y-92035714D02*
X105218497Y-92416666D01*
X106408973Y-92654761D02*
X106313735Y-92702380D01*
X106123259Y-92702380D01*
X106028021Y-92654761D01*
X105980402Y-92559523D01*
X105980402Y-92178571D01*
X106028021Y-92083333D01*
X106123259Y-92035714D01*
X106313735Y-92035714D01*
X106408973Y-92083333D01*
X106456592Y-92178571D01*
X106456592Y-92273809D01*
X105980402Y-92369047D01*
X107647069Y-92702380D02*
X107647069Y-92035714D01*
X107647069Y-91702380D02*
X107599450Y-91750000D01*
X107647069Y-91797619D01*
X107694688Y-91750000D01*
X107647069Y-91702380D01*
X107647069Y-91797619D01*
X107980402Y-92035714D02*
X108361354Y-92035714D01*
X108123259Y-91702380D02*
X108123259Y-92559523D01*
X108170878Y-92654761D01*
X108266116Y-92702380D01*
X108361354Y-92702380D01*
X109313735Y-92035714D02*
X109694688Y-92035714D01*
X109456592Y-92702380D02*
X109456592Y-91845238D01*
X109504211Y-91750000D01*
X109599450Y-91702380D01*
X109694688Y-91702380D01*
X110170878Y-92702380D02*
X110075640Y-92654761D01*
X110028021Y-92559523D01*
X110028021Y-91702380D01*
X110980402Y-92702380D02*
X110980402Y-92178571D01*
X110932783Y-92083333D01*
X110837545Y-92035714D01*
X110647069Y-92035714D01*
X110551830Y-92083333D01*
X110980402Y-92654761D02*
X110885164Y-92702380D01*
X110647069Y-92702380D01*
X110551830Y-92654761D01*
X110504211Y-92559523D01*
X110504211Y-92464285D01*
X110551830Y-92369047D01*
X110647069Y-92321428D01*
X110885164Y-92321428D01*
X110980402Y-92273809D01*
X111408973Y-92654761D02*
X111504211Y-92702380D01*
X111694688Y-92702380D01*
X111789926Y-92654761D01*
X111837545Y-92559523D01*
X111837545Y-92511904D01*
X111789926Y-92416666D01*
X111694688Y-92369047D01*
X111551830Y-92369047D01*
X111456592Y-92321428D01*
X111408973Y-92226190D01*
X111408973Y-92178571D01*
X111456592Y-92083333D01*
X111551830Y-92035714D01*
X111694688Y-92035714D01*
X111789926Y-92083333D01*
X112266116Y-92702380D02*
X112266116Y-91702380D01*
X112694688Y-92702380D02*
X112694688Y-92178571D01*
X112647069Y-92083333D01*
X112551830Y-92035714D01*
X112408973Y-92035714D01*
X112313735Y-92083333D01*
X112266116Y-92130952D01*
X113075640Y-92035714D02*
X113313735Y-92702380D01*
X113551830Y-92035714D02*
X113313735Y-92702380D01*
X113218497Y-92940476D01*
X113170878Y-92988095D01*
X113075640Y-93035714D01*
X113837545Y-93083333D02*
X113885164Y-93035714D01*
X113980402Y-92892857D01*
X114028021Y-92797619D01*
X114075640Y-92654761D01*
X114123259Y-92416666D01*
X114123259Y-92226190D01*
X114075640Y-91988095D01*
X114028021Y-91845238D01*
X113980402Y-91750000D01*
X113885164Y-91607142D01*
X113837545Y-91559523D01*
X96563735Y-104202380D02*
X96087545Y-104202380D01*
X96039926Y-104678571D01*
X96087545Y-104630952D01*
X96182783Y-104583333D01*
X96420878Y-104583333D01*
X96516116Y-104630952D01*
X96563735Y-104678571D01*
X96611354Y-104773809D01*
X96611354Y-105011904D01*
X96563735Y-105107142D01*
X96516116Y-105154761D01*
X96420878Y-105202380D01*
X96182783Y-105202380D01*
X96087545Y-105154761D01*
X96039926Y-105107142D01*
X97039926Y-105107142D02*
X97087545Y-105154761D01*
X97039926Y-105202380D01*
X96992307Y-105154761D01*
X97039926Y-105107142D01*
X97039926Y-105202380D01*
X98278021Y-105202380D02*
X98278021Y-104202380D01*
X98658973Y-104202380D01*
X98754211Y-104250000D01*
X98801830Y-104297619D01*
X98849450Y-104392857D01*
X98849450Y-104535714D01*
X98801830Y-104630952D01*
X98754211Y-104678571D01*
X98658973Y-104726190D01*
X98278021Y-104726190D01*
X99278021Y-105202380D02*
X99278021Y-104535714D01*
X99278021Y-104726190D02*
X99325640Y-104630952D01*
X99373259Y-104583333D01*
X99468497Y-104535714D01*
X99563735Y-104535714D01*
X100039926Y-105202380D02*
X99944688Y-105154761D01*
X99897069Y-105107142D01*
X99849450Y-105011904D01*
X99849450Y-104726190D01*
X99897069Y-104630952D01*
X99944688Y-104583333D01*
X100039926Y-104535714D01*
X100182783Y-104535714D01*
X100278021Y-104583333D01*
X100325640Y-104630952D01*
X100373259Y-104726190D01*
X100373259Y-105011904D01*
X100325640Y-105107142D01*
X100278021Y-105154761D01*
X100182783Y-105202380D01*
X100039926Y-105202380D01*
X101230402Y-104535714D02*
X101230402Y-105345238D01*
X101182783Y-105440476D01*
X101135164Y-105488095D01*
X101039926Y-105535714D01*
X100897069Y-105535714D01*
X100801830Y-105488095D01*
X101230402Y-105154761D02*
X101135164Y-105202380D01*
X100944688Y-105202380D01*
X100849450Y-105154761D01*
X100801830Y-105107142D01*
X100754211Y-105011904D01*
X100754211Y-104726190D01*
X100801830Y-104630952D01*
X100849450Y-104583333D01*
X100944688Y-104535714D01*
X101135164Y-104535714D01*
X101230402Y-104583333D01*
X101706592Y-105202380D02*
X101706592Y-104535714D01*
X101706592Y-104726190D02*
X101754211Y-104630952D01*
X101801830Y-104583333D01*
X101897069Y-104535714D01*
X101992307Y-104535714D01*
X102754211Y-105202380D02*
X102754211Y-104678571D01*
X102706592Y-104583333D01*
X102611354Y-104535714D01*
X102420878Y-104535714D01*
X102325640Y-104583333D01*
X102754211Y-105154761D02*
X102658973Y-105202380D01*
X102420878Y-105202380D01*
X102325640Y-105154761D01*
X102278021Y-105059523D01*
X102278021Y-104964285D01*
X102325640Y-104869047D01*
X102420878Y-104821428D01*
X102658973Y-104821428D01*
X102754211Y-104773809D01*
X103230402Y-105202380D02*
X103230402Y-104535714D01*
X103230402Y-104630952D02*
X103278021Y-104583333D01*
X103373259Y-104535714D01*
X103516116Y-104535714D01*
X103611354Y-104583333D01*
X103658973Y-104678571D01*
X103658973Y-105202380D01*
X103658973Y-104678571D02*
X103706592Y-104583333D01*
X103801830Y-104535714D01*
X103944688Y-104535714D01*
X104039926Y-104583333D01*
X104087545Y-104678571D01*
X104087545Y-105202380D01*
X104563735Y-105202380D02*
X104563735Y-104535714D01*
X104563735Y-104630952D02*
X104611354Y-104583333D01*
X104706592Y-104535714D01*
X104849450Y-104535714D01*
X104944688Y-104583333D01*
X104992307Y-104678571D01*
X104992307Y-105202380D01*
X104992307Y-104678571D02*
X105039926Y-104583333D01*
X105135164Y-104535714D01*
X105278021Y-104535714D01*
X105373259Y-104583333D01*
X105420878Y-104678571D01*
X105420878Y-105202380D01*
X105897069Y-105202380D02*
X105897069Y-104535714D01*
X105897069Y-104202380D02*
X105849450Y-104250000D01*
X105897069Y-104297619D01*
X105944688Y-104250000D01*
X105897069Y-104202380D01*
X105897069Y-104297619D01*
X106373259Y-104535714D02*
X106373259Y-105202380D01*
X106373259Y-104630952D02*
X106420878Y-104583333D01*
X106516116Y-104535714D01*
X106658973Y-104535714D01*
X106754211Y-104583333D01*
X106801830Y-104678571D01*
X106801830Y-105202380D01*
X107706592Y-104535714D02*
X107706592Y-105345238D01*
X107658973Y-105440476D01*
X107611354Y-105488095D01*
X107516116Y-105535714D01*
X107373259Y-105535714D01*
X107278021Y-105488095D01*
X107706592Y-105154761D02*
X107611354Y-105202380D01*
X107420878Y-105202380D01*
X107325640Y-105154761D01*
X107278021Y-105107142D01*
X107230402Y-105011904D01*
X107230402Y-104726190D01*
X107278021Y-104630952D01*
X107325640Y-104583333D01*
X107420878Y-104535714D01*
X107611354Y-104535714D01*
X107706592Y-104583333D01*
X108182783Y-105107142D02*
X108230402Y-105154761D01*
X108182783Y-105202380D01*
X108135164Y-105154761D01*
X108182783Y-105107142D01*
X108182783Y-105202380D01*
X108182783Y-104821428D02*
X108135164Y-104250000D01*
X108182783Y-104202380D01*
X108230402Y-104250000D01*
X108182783Y-104821428D01*
X108182783Y-104202380D01*
X109706592Y-105583333D02*
X109658973Y-105535714D01*
X109563735Y-105392857D01*
X109516116Y-105297619D01*
X109468497Y-105154761D01*
X109420878Y-104916666D01*
X109420878Y-104726190D01*
X109468497Y-104488095D01*
X109516116Y-104345238D01*
X109563735Y-104250000D01*
X109658973Y-104107142D01*
X109706592Y-104059523D01*
X110420878Y-104678571D02*
X110087545Y-104678571D01*
X110087545Y-105202380D02*
X110087545Y-104202380D01*
X110563735Y-104202380D01*
X110944688Y-105202380D02*
X110944688Y-104535714D01*
X110944688Y-104202380D02*
X110897069Y-104250000D01*
X110944688Y-104297619D01*
X110992307Y-104250000D01*
X110944688Y-104202380D01*
X110944688Y-104297619D01*
X111420878Y-104535714D02*
X111420878Y-105202380D01*
X111420878Y-104630952D02*
X111468497Y-104583333D01*
X111563735Y-104535714D01*
X111706592Y-104535714D01*
X111801830Y-104583333D01*
X111849450Y-104678571D01*
X111849450Y-105202380D01*
X112754211Y-105202380D02*
X112754211Y-104202380D01*
X112754211Y-105154761D02*
X112658973Y-105202380D01*
X112468497Y-105202380D01*
X112373259Y-105154761D01*
X112325640Y-105107142D01*
X112278021Y-105011904D01*
X112278021Y-104726190D01*
X112325640Y-104630952D01*
X112373259Y-104583333D01*
X112468497Y-104535714D01*
X112658973Y-104535714D01*
X112754211Y-104583333D01*
X113944688Y-105154761D02*
X114039926Y-105202380D01*
X114230402Y-105202380D01*
X114325640Y-105154761D01*
X114373259Y-105059523D01*
X114373259Y-105011904D01*
X114325640Y-104916666D01*
X114230402Y-104869047D01*
X114087545Y-104869047D01*
X113992307Y-104821428D01*
X113944688Y-104726190D01*
X113944688Y-104678571D01*
X113992307Y-104583333D01*
X114087545Y-104535714D01*
X114230402Y-104535714D01*
X114325640Y-104583333D01*
X115230402Y-105202380D02*
X115230402Y-104678571D01*
X115182783Y-104583333D01*
X115087545Y-104535714D01*
X114897069Y-104535714D01*
X114801830Y-104583333D01*
X115230402Y-105154761D02*
X115135164Y-105202380D01*
X114897069Y-105202380D01*
X114801830Y-105154761D01*
X114754211Y-105059523D01*
X114754211Y-104964285D01*
X114801830Y-104869047D01*
X114897069Y-104821428D01*
X115135164Y-104821428D01*
X115230402Y-104773809D01*
X115706592Y-105202380D02*
X115706592Y-104535714D01*
X115706592Y-104630952D02*
X115754211Y-104583333D01*
X115849450Y-104535714D01*
X115992307Y-104535714D01*
X116087545Y-104583333D01*
X116135164Y-104678571D01*
X116135164Y-105202380D01*
X116135164Y-104678571D02*
X116182783Y-104583333D01*
X116278021Y-104535714D01*
X116420878Y-104535714D01*
X116516116Y-104583333D01*
X116563735Y-104678571D01*
X116563735Y-105202380D01*
X117039926Y-104535714D02*
X117039926Y-105535714D01*
X117039926Y-104583333D02*
X117135164Y-104535714D01*
X117325640Y-104535714D01*
X117420878Y-104583333D01*
X117468497Y-104630952D01*
X117516116Y-104726190D01*
X117516116Y-105011904D01*
X117468497Y-105107142D01*
X117420878Y-105154761D01*
X117325640Y-105202380D01*
X117135164Y-105202380D01*
X117039926Y-105154761D01*
X118087545Y-105202380D02*
X117992307Y-105154761D01*
X117944688Y-105059523D01*
X117944688Y-104202380D01*
X118849449Y-105154761D02*
X118754211Y-105202380D01*
X118563735Y-105202380D01*
X118468497Y-105154761D01*
X118420878Y-105059523D01*
X118420878Y-104678571D01*
X118468497Y-104583333D01*
X118563735Y-104535714D01*
X118754211Y-104535714D01*
X118849449Y-104583333D01*
X118897069Y-104678571D01*
X118897069Y-104773809D01*
X118420878Y-104869047D01*
X120516116Y-105154761D02*
X120420878Y-105202380D01*
X120230402Y-105202380D01*
X120135164Y-105154761D01*
X120087545Y-105107142D01*
X120039926Y-105011904D01*
X120039926Y-104726190D01*
X120087545Y-104630952D01*
X120135164Y-104583333D01*
X120230402Y-104535714D01*
X120420878Y-104535714D01*
X120516116Y-104583333D01*
X121087545Y-105202380D02*
X120992307Y-105154761D01*
X120944688Y-105107142D01*
X120897069Y-105011904D01*
X120897069Y-104726190D01*
X120944688Y-104630952D01*
X120992307Y-104583333D01*
X121087545Y-104535714D01*
X121230402Y-104535714D01*
X121325640Y-104583333D01*
X121373259Y-104630952D01*
X121420878Y-104726190D01*
X121420878Y-105011904D01*
X121373259Y-105107142D01*
X121325640Y-105154761D01*
X121230402Y-105202380D01*
X121087545Y-105202380D01*
X122278021Y-105202380D02*
X122278021Y-104202380D01*
X122278021Y-105154761D02*
X122182783Y-105202380D01*
X121992307Y-105202380D01*
X121897069Y-105154761D01*
X121849449Y-105107142D01*
X121801830Y-105011904D01*
X121801830Y-104726190D01*
X121849449Y-104630952D01*
X121897069Y-104583333D01*
X121992307Y-104535714D01*
X122182783Y-104535714D01*
X122278021Y-104583333D01*
X123135164Y-105154761D02*
X123039926Y-105202380D01*
X122849449Y-105202380D01*
X122754211Y-105154761D01*
X122706592Y-105059523D01*
X122706592Y-104678571D01*
X122754211Y-104583333D01*
X122849449Y-104535714D01*
X123039926Y-104535714D01*
X123135164Y-104583333D01*
X123182783Y-104678571D01*
X123182783Y-104773809D01*
X122706592Y-104869047D01*
X124801830Y-105202380D02*
X124801830Y-104678571D01*
X124754211Y-104583333D01*
X124658973Y-104535714D01*
X124468497Y-104535714D01*
X124373259Y-104583333D01*
X124801830Y-105154761D02*
X124706592Y-105202380D01*
X124468497Y-105202380D01*
X124373259Y-105154761D01*
X124325640Y-105059523D01*
X124325640Y-104964285D01*
X124373259Y-104869047D01*
X124468497Y-104821428D01*
X124706592Y-104821428D01*
X124801830Y-104773809D01*
X125135164Y-104535714D02*
X125516116Y-104535714D01*
X125278021Y-104202380D02*
X125278021Y-105059523D01*
X125325640Y-105154761D01*
X125420878Y-105202380D01*
X125516116Y-105202380D01*
X126611354Y-105202380D02*
X126611354Y-104202380D01*
X127039926Y-105202380D02*
X127039926Y-104678571D01*
X126992307Y-104583333D01*
X126897069Y-104535714D01*
X126754211Y-104535714D01*
X126658973Y-104583333D01*
X126611354Y-104630952D01*
X127373259Y-104535714D02*
X127754211Y-104535714D01*
X127516116Y-104202380D02*
X127516116Y-105059523D01*
X127563735Y-105154761D01*
X127658973Y-105202380D01*
X127754211Y-105202380D01*
X127944688Y-104535714D02*
X128325640Y-104535714D01*
X128087545Y-104202380D02*
X128087545Y-105059523D01*
X128135164Y-105154761D01*
X128230402Y-105202380D01*
X128325640Y-105202380D01*
X128658973Y-104535714D02*
X128658973Y-105535714D01*
X128658973Y-104583333D02*
X128754211Y-104535714D01*
X128944688Y-104535714D01*
X129039926Y-104583333D01*
X129087545Y-104630952D01*
X129135164Y-104726190D01*
X129135164Y-105011904D01*
X129087545Y-105107142D01*
X129039926Y-105154761D01*
X128944688Y-105202380D01*
X128754211Y-105202380D01*
X128658973Y-105154761D01*
X129516116Y-105154761D02*
X129611354Y-105202380D01*
X129801830Y-105202380D01*
X129897069Y-105154761D01*
X129944688Y-105059523D01*
X129944688Y-105011904D01*
X129897069Y-104916666D01*
X129801830Y-104869047D01*
X129658973Y-104869047D01*
X129563735Y-104821428D01*
X129516116Y-104726190D01*
X129516116Y-104678571D01*
X129563735Y-104583333D01*
X129658973Y-104535714D01*
X129801830Y-104535714D01*
X129897069Y-104583333D01*
X130373259Y-105107142D02*
X130420878Y-105154761D01*
X130373259Y-105202380D01*
X130325640Y-105154761D01*
X130373259Y-105107142D01*
X130373259Y-105202380D01*
X130373259Y-104583333D02*
X130420878Y-104630952D01*
X130373259Y-104678571D01*
X130325640Y-104630952D01*
X130373259Y-104583333D01*
X130373259Y-104678571D01*
X131563735Y-104154761D02*
X130706592Y-105440476D01*
X132611354Y-104154761D02*
X131754211Y-105440476D01*
X132992307Y-105202380D02*
X133182783Y-105202380D01*
X133278021Y-105154761D01*
X133325640Y-105107142D01*
X133420878Y-104964285D01*
X133468497Y-104773809D01*
X133468497Y-104392857D01*
X133420878Y-104297619D01*
X133373259Y-104250000D01*
X133278021Y-104202380D01*
X133087545Y-104202380D01*
X132992307Y-104250000D01*
X132944688Y-104297619D01*
X132897069Y-104392857D01*
X132897069Y-104630952D01*
X132944688Y-104726190D01*
X132992307Y-104773809D01*
X133087545Y-104821428D01*
X133278021Y-104821428D01*
X133373259Y-104773809D01*
X133420878Y-104726190D01*
X133468497Y-104630952D01*
X133897069Y-105202380D02*
X133897069Y-104202380D01*
X133992307Y-104821428D02*
X134278021Y-105202380D01*
X134278021Y-104535714D02*
X133897069Y-104916666D01*
X134706592Y-105107142D02*
X134754211Y-105154761D01*
X134706592Y-105202380D01*
X134658973Y-105154761D01*
X134706592Y-105107142D01*
X134706592Y-105202380D01*
X135135164Y-105154761D02*
X135230402Y-105202380D01*
X135420878Y-105202380D01*
X135516116Y-105154761D01*
X135563735Y-105059523D01*
X135563735Y-105011904D01*
X135516116Y-104916666D01*
X135420878Y-104869047D01*
X135278021Y-104869047D01*
X135182783Y-104821428D01*
X135135164Y-104726190D01*
X135135164Y-104678571D01*
X135182783Y-104583333D01*
X135278021Y-104535714D01*
X135420878Y-104535714D01*
X135516116Y-104583333D01*
X135992307Y-104535714D02*
X135992307Y-105535714D01*
X135992307Y-104583333D02*
X136087545Y-104535714D01*
X136278021Y-104535714D01*
X136373259Y-104583333D01*
X136420878Y-104630952D01*
X136468497Y-104726190D01*
X136468497Y-105011904D01*
X136420878Y-105107142D01*
X136373259Y-105154761D01*
X136278021Y-105202380D01*
X136087545Y-105202380D01*
X135992307Y-105154761D01*
X137039926Y-105202380D02*
X136944688Y-105154761D01*
X136897069Y-105107142D01*
X136849449Y-105011904D01*
X136849449Y-104726190D01*
X136897069Y-104630952D01*
X136944688Y-104583333D01*
X137039926Y-104535714D01*
X137182783Y-104535714D01*
X137278021Y-104583333D01*
X137325640Y-104630952D01*
X137373259Y-104726190D01*
X137373259Y-105011904D01*
X137325640Y-105107142D01*
X137278021Y-105154761D01*
X137182783Y-105202380D01*
X137039926Y-105202380D01*
X137801830Y-105202380D02*
X137801830Y-104535714D01*
X137801830Y-104726190D02*
X137849449Y-104630952D01*
X137897069Y-104583333D01*
X137992307Y-104535714D01*
X138087545Y-104535714D01*
X138420878Y-105202380D02*
X138420878Y-104202380D01*
X138516116Y-104821428D02*
X138801830Y-105202380D01*
X138801830Y-104535714D02*
X138420878Y-104916666D01*
X139230402Y-105107142D02*
X139278021Y-105154761D01*
X139230402Y-105202380D01*
X139182783Y-105154761D01*
X139230402Y-105107142D01*
X139230402Y-105202380D01*
X139849449Y-105202380D02*
X139754211Y-105154761D01*
X139706592Y-105059523D01*
X139706592Y-104202380D01*
X140373259Y-105202380D02*
X140278021Y-105154761D01*
X140230402Y-105107142D01*
X140182783Y-105011904D01*
X140182783Y-104726190D01*
X140230402Y-104630952D01*
X140278021Y-104583333D01*
X140373259Y-104535714D01*
X140516116Y-104535714D01*
X140611354Y-104583333D01*
X140658973Y-104630952D01*
X140706592Y-104726190D01*
X140706592Y-105011904D01*
X140658973Y-105107142D01*
X140611354Y-105154761D01*
X140516116Y-105202380D01*
X140373259Y-105202380D01*
X141278021Y-105202380D02*
X141182783Y-105154761D01*
X141135164Y-105059523D01*
X141135164Y-104202380D01*
X141563735Y-105583333D02*
X141611354Y-105535714D01*
X141706592Y-105392857D01*
X141754211Y-105297619D01*
X141801830Y-105154761D01*
X141849449Y-104916666D01*
X141849449Y-104726190D01*
X141801830Y-104488095D01*
X141754211Y-104345238D01*
X141706592Y-104250000D01*
X141611354Y-104107142D01*
X141563735Y-104059523D01*
D11*
X136826371Y-66542077D02*
X136826371Y-65542077D01*
X137064467Y-65542077D01*
X137207324Y-65589697D01*
X137302562Y-65684935D01*
X137350181Y-65780173D01*
X137397800Y-65970649D01*
X137397800Y-66113506D01*
X137350181Y-66303982D01*
X137302562Y-66399220D01*
X137207324Y-66494458D01*
X137064467Y-66542077D01*
X136826371Y-66542077D01*
X137969228Y-65970649D02*
X137873990Y-65923030D01*
X137826371Y-65875411D01*
X137778752Y-65780173D01*
X137778752Y-65732554D01*
X137826371Y-65637316D01*
X137873990Y-65589697D01*
X137969228Y-65542077D01*
X138159705Y-65542077D01*
X138254943Y-65589697D01*
X138302562Y-65637316D01*
X138350181Y-65732554D01*
X138350181Y-65780173D01*
X138302562Y-65875411D01*
X138254943Y-65923030D01*
X138159705Y-65970649D01*
X137969228Y-65970649D01*
X137873990Y-66018268D01*
X137826371Y-66065887D01*
X137778752Y-66161125D01*
X137778752Y-66351601D01*
X137826371Y-66446839D01*
X137873990Y-66494458D01*
X137969228Y-66542077D01*
X138159705Y-66542077D01*
X138254943Y-66494458D01*
X138302562Y-66446839D01*
X138350181Y-66351601D01*
X138350181Y-66161125D01*
X138302562Y-66065887D01*
X138254943Y-66018268D01*
X138159705Y-65970649D01*
D14*
X96266116Y-105952380D02*
X96075640Y-105952380D01*
X95980402Y-106000000D01*
X95932783Y-106047619D01*
X95837545Y-106190476D01*
X95789926Y-106380952D01*
X95789926Y-106761904D01*
X95837545Y-106857142D01*
X95885164Y-106904761D01*
X95980402Y-106952380D01*
X96170878Y-106952380D01*
X96266116Y-106904761D01*
X96313735Y-106857142D01*
X96361354Y-106761904D01*
X96361354Y-106523809D01*
X96313735Y-106428571D01*
X96266116Y-106380952D01*
X96170878Y-106333333D01*
X95980402Y-106333333D01*
X95885164Y-106380952D01*
X95837545Y-106428571D01*
X95789926Y-106523809D01*
X96789926Y-106857142D02*
X96837545Y-106904761D01*
X96789926Y-106952380D01*
X96742307Y-106904761D01*
X96789926Y-106857142D01*
X96789926Y-106952380D01*
X98170878Y-106857142D02*
X98218497Y-106904761D01*
X98170878Y-106952380D01*
X98123259Y-106904761D01*
X98170878Y-106857142D01*
X98170878Y-106952380D01*
X97980402Y-106000000D02*
X98075640Y-105952380D01*
X98313735Y-105952380D01*
X98408973Y-106000000D01*
X98456592Y-106095238D01*
X98456592Y-106190476D01*
X98408973Y-106285714D01*
X98361354Y-106333333D01*
X98266116Y-106380952D01*
X98218497Y-106428571D01*
X98170878Y-106523809D01*
X98170878Y-106571428D01*
X99028021Y-106857142D02*
X99075640Y-106904761D01*
X99028021Y-106952380D01*
X98980402Y-106904761D01*
X99028021Y-106857142D01*
X99028021Y-106952380D01*
X98837545Y-106000000D02*
X98932783Y-105952380D01*
X99170878Y-105952380D01*
X99266116Y-106000000D01*
X99313735Y-106095238D01*
X99313735Y-106190476D01*
X99266116Y-106285714D01*
X99218497Y-106333333D01*
X99123259Y-106380952D01*
X99075640Y-106428571D01*
X99028021Y-106523809D01*
X99028021Y-106571428D01*
X99885164Y-106857142D02*
X99932783Y-106904761D01*
X99885164Y-106952380D01*
X99837545Y-106904761D01*
X99885164Y-106857142D01*
X99885164Y-106952380D01*
X99694688Y-106000000D02*
X99789926Y-105952380D01*
X100028021Y-105952380D01*
X100123259Y-106000000D01*
X100170878Y-106095238D01*
X100170878Y-106190476D01*
X100123259Y-106285714D01*
X100075640Y-106333333D01*
X99980402Y-106380952D01*
X99932783Y-106428571D01*
X99885164Y-106523809D01*
X99885164Y-106571428D01*
X100742307Y-106857142D02*
X100789926Y-106904761D01*
X100742307Y-106952380D01*
X100694688Y-106904761D01*
X100742307Y-106857142D01*
X100742307Y-106952380D01*
X100551830Y-106000000D02*
X100647069Y-105952380D01*
X100885164Y-105952380D01*
X100980402Y-106000000D01*
X101028021Y-106095238D01*
X101028021Y-106190476D01*
X100980402Y-106285714D01*
X100932783Y-106333333D01*
X100837545Y-106380952D01*
X100789926Y-106428571D01*
X100742307Y-106523809D01*
X100742307Y-106571428D01*
X101599450Y-106857142D02*
X101647069Y-106904761D01*
X101599450Y-106952380D01*
X101551830Y-106904761D01*
X101599450Y-106857142D01*
X101599450Y-106952380D01*
X101408973Y-106000000D02*
X101504211Y-105952380D01*
X101742307Y-105952380D01*
X101837545Y-106000000D01*
X101885164Y-106095238D01*
X101885164Y-106190476D01*
X101837545Y-106285714D01*
X101789926Y-106333333D01*
X101694688Y-106380952D01*
X101647069Y-106428571D01*
X101599450Y-106523809D01*
X101599450Y-106571428D01*
X102456592Y-106857142D02*
X102504211Y-106904761D01*
X102456592Y-106952380D01*
X102408973Y-106904761D01*
X102456592Y-106857142D01*
X102456592Y-106952380D01*
X102266116Y-106000000D02*
X102361354Y-105952380D01*
X102599450Y-105952380D01*
X102694688Y-106000000D01*
X102742307Y-106095238D01*
X102742307Y-106190476D01*
X102694688Y-106285714D01*
X102647069Y-106333333D01*
X102551830Y-106380952D01*
X102504211Y-106428571D01*
X102456592Y-106523809D01*
X102456592Y-106571428D01*
X103313735Y-106857142D02*
X103361354Y-106904761D01*
X103313735Y-106952380D01*
X103266116Y-106904761D01*
X103313735Y-106857142D01*
X103313735Y-106952380D01*
X103123259Y-106000000D02*
X103218497Y-105952380D01*
X103456592Y-105952380D01*
X103551830Y-106000000D01*
X103599450Y-106095238D01*
X103599450Y-106190476D01*
X103551830Y-106285714D01*
X103504211Y-106333333D01*
X103408973Y-106380952D01*
X103361354Y-106428571D01*
X103313735Y-106523809D01*
X103313735Y-106571428D01*
X104170878Y-106857142D02*
X104218497Y-106904761D01*
X104170878Y-106952380D01*
X104123259Y-106904761D01*
X104170878Y-106857142D01*
X104170878Y-106952380D01*
X103980402Y-106000000D02*
X104075640Y-105952380D01*
X104313735Y-105952380D01*
X104408973Y-106000000D01*
X104456592Y-106095238D01*
X104456592Y-106190476D01*
X104408973Y-106285714D01*
X104361354Y-106333333D01*
X104266116Y-106380952D01*
X104218497Y-106428571D01*
X104170878Y-106523809D01*
X104170878Y-106571428D01*
X105028021Y-106857142D02*
X105075640Y-106904761D01*
X105028021Y-106952380D01*
X104980402Y-106904761D01*
X105028021Y-106857142D01*
X105028021Y-106952380D01*
X104837545Y-106000000D02*
X104932783Y-105952380D01*
X105170878Y-105952380D01*
X105266116Y-106000000D01*
X105313735Y-106095238D01*
X105313735Y-106190476D01*
X105266116Y-106285714D01*
X105218497Y-106333333D01*
X105123259Y-106380952D01*
X105075640Y-106428571D01*
X105028021Y-106523809D01*
X105028021Y-106571428D01*
D11*
%TO.C,R2*%
X108297799Y-57987914D02*
X107964466Y-57511724D01*
X107726370Y-57987914D02*
X107726370Y-56987914D01*
X108107323Y-56987914D01*
X108202561Y-57035534D01*
X108250180Y-57083153D01*
X108297799Y-57178391D01*
X108297799Y-57321248D01*
X108250180Y-57416486D01*
X108202561Y-57464105D01*
X108107323Y-57511724D01*
X107726370Y-57511724D01*
X108678751Y-57083153D02*
X108726370Y-57035534D01*
X108821608Y-56987914D01*
X109059704Y-56987914D01*
X109154942Y-57035534D01*
X109202561Y-57083153D01*
X109250180Y-57178391D01*
X109250180Y-57273629D01*
X109202561Y-57416486D01*
X108631132Y-57987914D01*
X109250180Y-57987914D01*
%TO.C,D12*%
X88236846Y-68249819D02*
X87236846Y-68249819D01*
X87236846Y-68011724D01*
X87284466Y-67868867D01*
X87379704Y-67773629D01*
X87474942Y-67726010D01*
X87665418Y-67678391D01*
X87808275Y-67678391D01*
X87998751Y-67726010D01*
X88093989Y-67773629D01*
X88189227Y-67868867D01*
X88236846Y-68011724D01*
X88236846Y-68249819D01*
X88236846Y-66726010D02*
X88236846Y-67297438D01*
X88236846Y-67011724D02*
X87236846Y-67011724D01*
X87379704Y-67106962D01*
X87474942Y-67202200D01*
X87522561Y-67297438D01*
X87332085Y-66345057D02*
X87284466Y-66297438D01*
X87236846Y-66202200D01*
X87236846Y-65964105D01*
X87284466Y-65868867D01*
X87332085Y-65821248D01*
X87427323Y-65773629D01*
X87522561Y-65773629D01*
X87665418Y-65821248D01*
X88236846Y-66392676D01*
X88236846Y-65773629D01*
%TO.C,SW6*%
X142866666Y-98390295D02*
X143009523Y-98437914D01*
X143247619Y-98437914D01*
X143342857Y-98390295D01*
X143390476Y-98342676D01*
X143438095Y-98247438D01*
X143438095Y-98152200D01*
X143390476Y-98056962D01*
X143342857Y-98009343D01*
X143247619Y-97961724D01*
X143057142Y-97914105D01*
X142961904Y-97866486D01*
X142914285Y-97818867D01*
X142866666Y-97723629D01*
X142866666Y-97628391D01*
X142914285Y-97533153D01*
X142961904Y-97485534D01*
X143057142Y-97437914D01*
X143295238Y-97437914D01*
X143438095Y-97485534D01*
X143771428Y-97437914D02*
X144009523Y-98437914D01*
X144200000Y-97723629D01*
X144390476Y-98437914D01*
X144628571Y-97437914D01*
X145438095Y-97437914D02*
X145247619Y-97437914D01*
X145152380Y-97485534D01*
X145104761Y-97533153D01*
X145009523Y-97676010D01*
X144961904Y-97866486D01*
X144961904Y-98247438D01*
X145009523Y-98342676D01*
X145057142Y-98390295D01*
X145152380Y-98437914D01*
X145342857Y-98437914D01*
X145438095Y-98390295D01*
X145485714Y-98342676D01*
X145533333Y-98247438D01*
X145533333Y-98009343D01*
X145485714Y-97914105D01*
X145438095Y-97866486D01*
X145342857Y-97818867D01*
X145152380Y-97818867D01*
X145057142Y-97866486D01*
X145009523Y-97914105D01*
X144961904Y-98009343D01*
%TO.C,D5*%
X109236846Y-67773629D02*
X108236846Y-67773629D01*
X108236846Y-67535534D01*
X108284466Y-67392676D01*
X108379704Y-67297438D01*
X108474942Y-67249819D01*
X108665418Y-67202200D01*
X108808275Y-67202200D01*
X108998751Y-67249819D01*
X109093989Y-67297438D01*
X109189227Y-67392676D01*
X109236846Y-67535534D01*
X109236846Y-67773629D01*
X108236846Y-66297438D02*
X108236846Y-66773629D01*
X108713037Y-66821248D01*
X108665418Y-66773629D01*
X108617799Y-66678391D01*
X108617799Y-66440295D01*
X108665418Y-66345057D01*
X108713037Y-66297438D01*
X108808275Y-66249819D01*
X109046370Y-66249819D01*
X109141608Y-66297438D01*
X109189227Y-66345057D01*
X109236846Y-66440295D01*
X109236846Y-66678391D01*
X109189227Y-66773629D01*
X109141608Y-66821248D01*
%TO.C,SW7*%
X104766666Y-117440295D02*
X104909523Y-117487914D01*
X105147619Y-117487914D01*
X105242857Y-117440295D01*
X105290476Y-117392676D01*
X105338095Y-117297438D01*
X105338095Y-117202200D01*
X105290476Y-117106962D01*
X105242857Y-117059343D01*
X105147619Y-117011724D01*
X104957142Y-116964105D01*
X104861904Y-116916486D01*
X104814285Y-116868867D01*
X104766666Y-116773629D01*
X104766666Y-116678391D01*
X104814285Y-116583153D01*
X104861904Y-116535534D01*
X104957142Y-116487914D01*
X105195238Y-116487914D01*
X105338095Y-116535534D01*
X105671428Y-116487914D02*
X105909523Y-117487914D01*
X106100000Y-116773629D01*
X106290476Y-117487914D01*
X106528571Y-116487914D01*
X106814285Y-116487914D02*
X107480952Y-116487914D01*
X107052380Y-117487914D01*
%TO.C,D7*%
X103236846Y-67773629D02*
X102236846Y-67773629D01*
X102236846Y-67535534D01*
X102284466Y-67392676D01*
X102379704Y-67297438D01*
X102474942Y-67249819D01*
X102665418Y-67202200D01*
X102808275Y-67202200D01*
X102998751Y-67249819D01*
X103093989Y-67297438D01*
X103189227Y-67392676D01*
X103236846Y-67535534D01*
X103236846Y-67773629D01*
X102236846Y-66868867D02*
X102236846Y-66202200D01*
X103236846Y-66630772D01*
%TO.C,SW3*%
X142866666Y-79340295D02*
X143009523Y-79387914D01*
X143247619Y-79387914D01*
X143342857Y-79340295D01*
X143390476Y-79292676D01*
X143438095Y-79197438D01*
X143438095Y-79102200D01*
X143390476Y-79006962D01*
X143342857Y-78959343D01*
X143247619Y-78911724D01*
X143057142Y-78864105D01*
X142961904Y-78816486D01*
X142914285Y-78768867D01*
X142866666Y-78673629D01*
X142866666Y-78578391D01*
X142914285Y-78483153D01*
X142961904Y-78435534D01*
X143057142Y-78387914D01*
X143295238Y-78387914D01*
X143438095Y-78435534D01*
X143771428Y-78387914D02*
X144009523Y-79387914D01*
X144200000Y-78673629D01*
X144390476Y-79387914D01*
X144628571Y-78387914D01*
X144914285Y-78387914D02*
X145533333Y-78387914D01*
X145200000Y-78768867D01*
X145342857Y-78768867D01*
X145438095Y-78816486D01*
X145485714Y-78864105D01*
X145533333Y-78959343D01*
X145533333Y-79197438D01*
X145485714Y-79292676D01*
X145438095Y-79340295D01*
X145342857Y-79387914D01*
X145057142Y-79387914D01*
X144961904Y-79340295D01*
X144914285Y-79292676D01*
%TO.C,SW2*%
X123816666Y-79340295D02*
X123959523Y-79387914D01*
X124197619Y-79387914D01*
X124292857Y-79340295D01*
X124340476Y-79292676D01*
X124388095Y-79197438D01*
X124388095Y-79102200D01*
X124340476Y-79006962D01*
X124292857Y-78959343D01*
X124197619Y-78911724D01*
X124007142Y-78864105D01*
X123911904Y-78816486D01*
X123864285Y-78768867D01*
X123816666Y-78673629D01*
X123816666Y-78578391D01*
X123864285Y-78483153D01*
X123911904Y-78435534D01*
X124007142Y-78387914D01*
X124245238Y-78387914D01*
X124388095Y-78435534D01*
X124721428Y-78387914D02*
X124959523Y-79387914D01*
X125150000Y-78673629D01*
X125340476Y-79387914D01*
X125578571Y-78387914D01*
X125911904Y-78483153D02*
X125959523Y-78435534D01*
X126054761Y-78387914D01*
X126292857Y-78387914D01*
X126388095Y-78435534D01*
X126435714Y-78483153D01*
X126483333Y-78578391D01*
X126483333Y-78673629D01*
X126435714Y-78816486D01*
X125864285Y-79387914D01*
X126483333Y-79387914D01*
%TO.C,R1*%
X93202380Y-55702200D02*
X92726190Y-56035534D01*
X93202380Y-56273629D02*
X92202380Y-56273629D01*
X92202380Y-55892676D01*
X92250000Y-55797438D01*
X92297619Y-55749819D01*
X92392857Y-55702200D01*
X92535714Y-55702200D01*
X92630952Y-55749819D01*
X92678571Y-55797438D01*
X92726190Y-55892676D01*
X92726190Y-56273629D01*
X93202380Y-54749819D02*
X93202380Y-55321248D01*
X93202380Y-55035534D02*
X92202380Y-55035534D01*
X92345238Y-55130772D01*
X92440476Y-55226010D01*
X92488095Y-55321248D01*
%TO.C,D10*%
X94236846Y-68249819D02*
X93236846Y-68249819D01*
X93236846Y-68011724D01*
X93284466Y-67868867D01*
X93379704Y-67773629D01*
X93474942Y-67726010D01*
X93665418Y-67678391D01*
X93808275Y-67678391D01*
X93998751Y-67726010D01*
X94093989Y-67773629D01*
X94189227Y-67868867D01*
X94236846Y-68011724D01*
X94236846Y-68249819D01*
X94236846Y-66726010D02*
X94236846Y-67297438D01*
X94236846Y-67011724D02*
X93236846Y-67011724D01*
X93379704Y-67106962D01*
X93474942Y-67202200D01*
X93522561Y-67297438D01*
X93236846Y-66106962D02*
X93236846Y-66011724D01*
X93284466Y-65916486D01*
X93332085Y-65868867D01*
X93427323Y-65821248D01*
X93617799Y-65773629D01*
X93855894Y-65773629D01*
X94046370Y-65821248D01*
X94141608Y-65868867D01*
X94189227Y-65916486D01*
X94236846Y-66011724D01*
X94236846Y-66106962D01*
X94189227Y-66202200D01*
X94141608Y-66249819D01*
X94046370Y-66297438D01*
X93855894Y-66345057D01*
X93617799Y-66345057D01*
X93427323Y-66297438D01*
X93332085Y-66249819D01*
X93284466Y-66202200D01*
X93236846Y-66106962D01*
%TO.C,SW1*%
X104766666Y-79340295D02*
X104909523Y-79387914D01*
X105147619Y-79387914D01*
X105242857Y-79340295D01*
X105290476Y-79292676D01*
X105338095Y-79197438D01*
X105338095Y-79102200D01*
X105290476Y-79006962D01*
X105242857Y-78959343D01*
X105147619Y-78911724D01*
X104957142Y-78864105D01*
X104861904Y-78816486D01*
X104814285Y-78768867D01*
X104766666Y-78673629D01*
X104766666Y-78578391D01*
X104814285Y-78483153D01*
X104861904Y-78435534D01*
X104957142Y-78387914D01*
X105195238Y-78387914D01*
X105338095Y-78435534D01*
X105671428Y-78387914D02*
X105909523Y-79387914D01*
X106100000Y-78673629D01*
X106290476Y-79387914D01*
X106528571Y-78387914D01*
X107433333Y-79387914D02*
X106861904Y-79387914D01*
X107147619Y-79387914D02*
X107147619Y-78387914D01*
X107052380Y-78530772D01*
X106957142Y-78626010D01*
X106861904Y-78673629D01*
%TO.C,SW8*%
X123816666Y-117440295D02*
X123959523Y-117487914D01*
X124197619Y-117487914D01*
X124292857Y-117440295D01*
X124340476Y-117392676D01*
X124388095Y-117297438D01*
X124388095Y-117202200D01*
X124340476Y-117106962D01*
X124292857Y-117059343D01*
X124197619Y-117011724D01*
X124007142Y-116964105D01*
X123911904Y-116916486D01*
X123864285Y-116868867D01*
X123816666Y-116773629D01*
X123816666Y-116678391D01*
X123864285Y-116583153D01*
X123911904Y-116535534D01*
X124007142Y-116487914D01*
X124245238Y-116487914D01*
X124388095Y-116535534D01*
X124721428Y-116487914D02*
X124959523Y-117487914D01*
X125150000Y-116773629D01*
X125340476Y-117487914D01*
X125578571Y-116487914D01*
X126102380Y-116916486D02*
X126007142Y-116868867D01*
X125959523Y-116821248D01*
X125911904Y-116726010D01*
X125911904Y-116678391D01*
X125959523Y-116583153D01*
X126007142Y-116535534D01*
X126102380Y-116487914D01*
X126292857Y-116487914D01*
X126388095Y-116535534D01*
X126435714Y-116583153D01*
X126483333Y-116678391D01*
X126483333Y-116726010D01*
X126435714Y-116821248D01*
X126388095Y-116868867D01*
X126292857Y-116916486D01*
X126102380Y-116916486D01*
X126007142Y-116964105D01*
X125959523Y-117011724D01*
X125911904Y-117106962D01*
X125911904Y-117297438D01*
X125959523Y-117392676D01*
X126007142Y-117440295D01*
X126102380Y-117487914D01*
X126292857Y-117487914D01*
X126388095Y-117440295D01*
X126435714Y-117392676D01*
X126483333Y-117297438D01*
X126483333Y-117106962D01*
X126435714Y-117011724D01*
X126388095Y-116964105D01*
X126292857Y-116916486D01*
%TO.C,D6*%
X106236846Y-67773629D02*
X105236846Y-67773629D01*
X105236846Y-67535534D01*
X105284466Y-67392676D01*
X105379704Y-67297438D01*
X105474942Y-67249819D01*
X105665418Y-67202200D01*
X105808275Y-67202200D01*
X105998751Y-67249819D01*
X106093989Y-67297438D01*
X106189227Y-67392676D01*
X106236846Y-67535534D01*
X106236846Y-67773629D01*
X105236846Y-66345057D02*
X105236846Y-66535534D01*
X105284466Y-66630772D01*
X105332085Y-66678391D01*
X105474942Y-66773629D01*
X105665418Y-66821248D01*
X106046370Y-66821248D01*
X106141608Y-66773629D01*
X106189227Y-66726010D01*
X106236846Y-66630772D01*
X106236846Y-66440295D01*
X106189227Y-66345057D01*
X106141608Y-66297438D01*
X106046370Y-66249819D01*
X105808275Y-66249819D01*
X105713037Y-66297438D01*
X105665418Y-66345057D01*
X105617799Y-66440295D01*
X105617799Y-66630772D01*
X105665418Y-66726010D01*
X105713037Y-66773629D01*
X105808275Y-66821248D01*
%TO.C,SW9*%
X142866666Y-117440295D02*
X143009523Y-117487914D01*
X143247619Y-117487914D01*
X143342857Y-117440295D01*
X143390476Y-117392676D01*
X143438095Y-117297438D01*
X143438095Y-117202200D01*
X143390476Y-117106962D01*
X143342857Y-117059343D01*
X143247619Y-117011724D01*
X143057142Y-116964105D01*
X142961904Y-116916486D01*
X142914285Y-116868867D01*
X142866666Y-116773629D01*
X142866666Y-116678391D01*
X142914285Y-116583153D01*
X142961904Y-116535534D01*
X143057142Y-116487914D01*
X143295238Y-116487914D01*
X143438095Y-116535534D01*
X143771428Y-116487914D02*
X144009523Y-117487914D01*
X144200000Y-116773629D01*
X144390476Y-117487914D01*
X144628571Y-116487914D01*
X145057142Y-117487914D02*
X145247619Y-117487914D01*
X145342857Y-117440295D01*
X145390476Y-117392676D01*
X145485714Y-117249819D01*
X145533333Y-117059343D01*
X145533333Y-116678391D01*
X145485714Y-116583153D01*
X145438095Y-116535534D01*
X145342857Y-116487914D01*
X145152380Y-116487914D01*
X145057142Y-116535534D01*
X145009523Y-116583153D01*
X144961904Y-116678391D01*
X144961904Y-116916486D01*
X145009523Y-117011724D01*
X145057142Y-117059343D01*
X145152380Y-117106962D01*
X145342857Y-117106962D01*
X145438095Y-117059343D01*
X145485714Y-117011724D01*
X145533333Y-116916486D01*
%TO.C,D8*%
X100236846Y-67773629D02*
X99236846Y-67773629D01*
X99236846Y-67535534D01*
X99284466Y-67392676D01*
X99379704Y-67297438D01*
X99474942Y-67249819D01*
X99665418Y-67202200D01*
X99808275Y-67202200D01*
X99998751Y-67249819D01*
X100093989Y-67297438D01*
X100189227Y-67392676D01*
X100236846Y-67535534D01*
X100236846Y-67773629D01*
X99665418Y-66630772D02*
X99617799Y-66726010D01*
X99570180Y-66773629D01*
X99474942Y-66821248D01*
X99427323Y-66821248D01*
X99332085Y-66773629D01*
X99284466Y-66726010D01*
X99236846Y-66630772D01*
X99236846Y-66440295D01*
X99284466Y-66345057D01*
X99332085Y-66297438D01*
X99427323Y-66249819D01*
X99474942Y-66249819D01*
X99570180Y-66297438D01*
X99617799Y-66345057D01*
X99665418Y-66440295D01*
X99665418Y-66630772D01*
X99713037Y-66726010D01*
X99760656Y-66773629D01*
X99855894Y-66821248D01*
X100046370Y-66821248D01*
X100141608Y-66773629D01*
X100189227Y-66726010D01*
X100236846Y-66630772D01*
X100236846Y-66440295D01*
X100189227Y-66345057D01*
X100141608Y-66297438D01*
X100046370Y-66249819D01*
X99855894Y-66249819D01*
X99760656Y-66297438D01*
X99713037Y-66345057D01*
X99665418Y-66440295D01*
%TO.C,SW4*%
X104766666Y-98390295D02*
X104909523Y-98437914D01*
X105147619Y-98437914D01*
X105242857Y-98390295D01*
X105290476Y-98342676D01*
X105338095Y-98247438D01*
X105338095Y-98152200D01*
X105290476Y-98056962D01*
X105242857Y-98009343D01*
X105147619Y-97961724D01*
X104957142Y-97914105D01*
X104861904Y-97866486D01*
X104814285Y-97818867D01*
X104766666Y-97723629D01*
X104766666Y-97628391D01*
X104814285Y-97533153D01*
X104861904Y-97485534D01*
X104957142Y-97437914D01*
X105195238Y-97437914D01*
X105338095Y-97485534D01*
X105671428Y-97437914D02*
X105909523Y-98437914D01*
X106100000Y-97723629D01*
X106290476Y-98437914D01*
X106528571Y-97437914D01*
X107338095Y-97771248D02*
X107338095Y-98437914D01*
X107100000Y-97390295D02*
X106861904Y-98104581D01*
X107480952Y-98104581D01*
%TO.C,D11*%
X91236846Y-68249819D02*
X90236846Y-68249819D01*
X90236846Y-68011724D01*
X90284466Y-67868867D01*
X90379704Y-67773629D01*
X90474942Y-67726010D01*
X90665418Y-67678391D01*
X90808275Y-67678391D01*
X90998751Y-67726010D01*
X91093989Y-67773629D01*
X91189227Y-67868867D01*
X91236846Y-68011724D01*
X91236846Y-68249819D01*
X91236846Y-66726010D02*
X91236846Y-67297438D01*
X91236846Y-67011724D02*
X90236846Y-67011724D01*
X90379704Y-67106962D01*
X90474942Y-67202200D01*
X90522561Y-67297438D01*
X91236846Y-65773629D02*
X91236846Y-66345057D01*
X91236846Y-66059343D02*
X90236846Y-66059343D01*
X90379704Y-66154581D01*
X90474942Y-66249819D01*
X90522561Y-66345057D01*
%TO.C,SW5*%
X123816666Y-98390295D02*
X123959523Y-98437914D01*
X124197619Y-98437914D01*
X124292857Y-98390295D01*
X124340476Y-98342676D01*
X124388095Y-98247438D01*
X124388095Y-98152200D01*
X124340476Y-98056962D01*
X124292857Y-98009343D01*
X124197619Y-97961724D01*
X124007142Y-97914105D01*
X123911904Y-97866486D01*
X123864285Y-97818867D01*
X123816666Y-97723629D01*
X123816666Y-97628391D01*
X123864285Y-97533153D01*
X123911904Y-97485534D01*
X124007142Y-97437914D01*
X124245238Y-97437914D01*
X124388095Y-97485534D01*
X124721428Y-97437914D02*
X124959523Y-98437914D01*
X125150000Y-97723629D01*
X125340476Y-98437914D01*
X125578571Y-97437914D01*
X126435714Y-97437914D02*
X125959523Y-97437914D01*
X125911904Y-97914105D01*
X125959523Y-97866486D01*
X126054761Y-97818867D01*
X126292857Y-97818867D01*
X126388095Y-97866486D01*
X126435714Y-97914105D01*
X126483333Y-98009343D01*
X126483333Y-98247438D01*
X126435714Y-98342676D01*
X126388095Y-98390295D01*
X126292857Y-98437914D01*
X126054761Y-98437914D01*
X125959523Y-98390295D01*
X125911904Y-98342676D01*
%TO.C,D4*%
X112236846Y-67773629D02*
X111236846Y-67773629D01*
X111236846Y-67535534D01*
X111284466Y-67392676D01*
X111379704Y-67297438D01*
X111474942Y-67249819D01*
X111665418Y-67202200D01*
X111808275Y-67202200D01*
X111998751Y-67249819D01*
X112093989Y-67297438D01*
X112189227Y-67392676D01*
X112236846Y-67535534D01*
X112236846Y-67773629D01*
X111570180Y-66345057D02*
X112236846Y-66345057D01*
X111189227Y-66583153D02*
X111903513Y-66821248D01*
X111903513Y-66202200D01*
D15*
%TO.C,U1*%
X133522666Y-49113166D02*
X133522666Y-49832833D01*
X133565000Y-49917500D01*
X133607333Y-49959833D01*
X133692000Y-50002166D01*
X133861333Y-50002166D01*
X133946000Y-49959833D01*
X133988333Y-49917500D01*
X134030666Y-49832833D01*
X134030666Y-49113166D01*
X134919666Y-50002166D02*
X134411666Y-50002166D01*
X134665666Y-50002166D02*
X134665666Y-49113166D01*
X134581000Y-49240166D01*
X134496333Y-49324833D01*
X134411666Y-49367166D01*
D16*
X123527828Y-58246742D02*
X123614914Y-58275771D01*
X123760057Y-58275771D01*
X123818114Y-58246742D01*
X123847142Y-58217714D01*
X123876171Y-58159657D01*
X123876171Y-58101600D01*
X123847142Y-58043542D01*
X123818114Y-58014514D01*
X123760057Y-57985485D01*
X123643942Y-57956457D01*
X123585885Y-57927428D01*
X123556857Y-57898400D01*
X123527828Y-57840342D01*
X123527828Y-57782285D01*
X123556857Y-57724228D01*
X123585885Y-57695200D01*
X123643942Y-57666171D01*
X123789085Y-57666171D01*
X123876171Y-57695200D01*
X124369657Y-58246742D02*
X124311600Y-58275771D01*
X124195485Y-58275771D01*
X124137428Y-58246742D01*
X124108400Y-58188685D01*
X124108400Y-57956457D01*
X124137428Y-57898400D01*
X124195485Y-57869371D01*
X124311600Y-57869371D01*
X124369657Y-57898400D01*
X124398685Y-57956457D01*
X124398685Y-58014514D01*
X124108400Y-58072571D01*
X124892171Y-58246742D02*
X124834114Y-58275771D01*
X124718000Y-58275771D01*
X124659942Y-58246742D01*
X124630914Y-58188685D01*
X124630914Y-57956457D01*
X124659942Y-57898400D01*
X124718000Y-57869371D01*
X124834114Y-57869371D01*
X124892171Y-57898400D01*
X124921200Y-57956457D01*
X124921200Y-58014514D01*
X124630914Y-58072571D01*
X125414685Y-58246742D02*
X125356628Y-58275771D01*
X125240514Y-58275771D01*
X125182457Y-58246742D01*
X125153428Y-58188685D01*
X125153428Y-57956457D01*
X125182457Y-57898400D01*
X125240514Y-57869371D01*
X125356628Y-57869371D01*
X125414685Y-57898400D01*
X125443714Y-57956457D01*
X125443714Y-58014514D01*
X125153428Y-58072571D01*
X125966228Y-58275771D02*
X125966228Y-57666171D01*
X125966228Y-58246742D02*
X125908171Y-58275771D01*
X125792057Y-58275771D01*
X125734000Y-58246742D01*
X125704971Y-58217714D01*
X125675942Y-58159657D01*
X125675942Y-57985485D01*
X125704971Y-57927428D01*
X125734000Y-57898400D01*
X125792057Y-57869371D01*
X125908171Y-57869371D01*
X125966228Y-57898400D01*
X126517771Y-57869371D02*
X126517771Y-58275771D01*
X126256514Y-57869371D02*
X126256514Y-58188685D01*
X126285542Y-58246742D01*
X126343600Y-58275771D01*
X126430685Y-58275771D01*
X126488742Y-58246742D01*
X126517771Y-58217714D01*
X126808057Y-58275771D02*
X126808057Y-57869371D01*
X126808057Y-57666171D02*
X126779028Y-57695200D01*
X126808057Y-57724228D01*
X126837085Y-57695200D01*
X126808057Y-57666171D01*
X126808057Y-57724228D01*
X127098342Y-57869371D02*
X127098342Y-58275771D01*
X127098342Y-57927428D02*
X127127371Y-57898400D01*
X127185428Y-57869371D01*
X127272514Y-57869371D01*
X127330571Y-57898400D01*
X127359600Y-57956457D01*
X127359600Y-58275771D01*
X127736971Y-58275771D02*
X127678914Y-58246742D01*
X127649885Y-58217714D01*
X127620857Y-58159657D01*
X127620857Y-57985485D01*
X127649885Y-57927428D01*
X127678914Y-57898400D01*
X127736971Y-57869371D01*
X127824057Y-57869371D01*
X127882114Y-57898400D01*
X127911142Y-57927428D01*
X127940171Y-57985485D01*
X127940171Y-58159657D01*
X127911142Y-58217714D01*
X127882114Y-58246742D01*
X127824057Y-58275771D01*
X127736971Y-58275771D01*
X128143371Y-57666171D02*
X128549771Y-58275771D01*
X128549771Y-57666171D02*
X128143371Y-58275771D01*
X128782000Y-58275771D02*
X128782000Y-57666171D01*
X129043257Y-58101600D02*
X129333542Y-58101600D01*
X128985200Y-58275771D02*
X129188400Y-57666171D01*
X129391600Y-58275771D01*
X129710914Y-57666171D02*
X129827028Y-57666171D01*
X129885085Y-57695200D01*
X129943142Y-57753257D01*
X129972171Y-57869371D01*
X129972171Y-58072571D01*
X129943142Y-58188685D01*
X129885085Y-58246742D01*
X129827028Y-58275771D01*
X129710914Y-58275771D01*
X129652857Y-58246742D01*
X129594800Y-58188685D01*
X129565771Y-58072571D01*
X129565771Y-57869371D01*
X129594800Y-57753257D01*
X129652857Y-57695200D01*
X129710914Y-57666171D01*
D11*
%TO.C,R3*%
X98487799Y-57987914D02*
X98154466Y-57511724D01*
X97916370Y-57987914D02*
X97916370Y-56987914D01*
X98297323Y-56987914D01*
X98392561Y-57035534D01*
X98440180Y-57083153D01*
X98487799Y-57178391D01*
X98487799Y-57321248D01*
X98440180Y-57416486D01*
X98392561Y-57464105D01*
X98297323Y-57511724D01*
X97916370Y-57511724D01*
X98821132Y-56987914D02*
X99440180Y-56987914D01*
X99106846Y-57368867D01*
X99249704Y-57368867D01*
X99344942Y-57416486D01*
X99392561Y-57464105D01*
X99440180Y-57559343D01*
X99440180Y-57797438D01*
X99392561Y-57892676D01*
X99344942Y-57940295D01*
X99249704Y-57987914D01*
X98963989Y-57987914D01*
X98868751Y-57940295D01*
X98821132Y-57892676D01*
%TO.C,D9*%
X97236846Y-67773629D02*
X96236846Y-67773629D01*
X96236846Y-67535534D01*
X96284466Y-67392676D01*
X96379704Y-67297438D01*
X96474942Y-67249819D01*
X96665418Y-67202200D01*
X96808275Y-67202200D01*
X96998751Y-67249819D01*
X97093989Y-67297438D01*
X97189227Y-67392676D01*
X97236846Y-67535534D01*
X97236846Y-67773629D01*
X97236846Y-66726010D02*
X97236846Y-66535534D01*
X97189227Y-66440295D01*
X97141608Y-66392676D01*
X96998751Y-66297438D01*
X96808275Y-66249819D01*
X96427323Y-66249819D01*
X96332085Y-66297438D01*
X96284466Y-66345057D01*
X96236846Y-66440295D01*
X96236846Y-66630772D01*
X96284466Y-66726010D01*
X96332085Y-66773629D01*
X96427323Y-66821248D01*
X96665418Y-66821248D01*
X96760656Y-66773629D01*
X96808275Y-66726010D01*
X96855894Y-66630772D01*
X96855894Y-66440295D01*
X96808275Y-66345057D01*
X96760656Y-66297438D01*
X96665418Y-66249819D01*
D17*
%TO.C,R2*%
X106544466Y-56615534D02*
X106544466Y-58455534D01*
X110384466Y-58455534D02*
X110384466Y-56615534D01*
X106544466Y-58455534D02*
X110384466Y-58455534D01*
X110384466Y-56615534D02*
X106544466Y-56615534D01*
X105594466Y-57535534D02*
X106544466Y-57535534D01*
X111334466Y-57535534D02*
X110384466Y-57535534D01*
%TO.C,D12*%
X88904466Y-68655534D02*
X88904466Y-64415534D01*
X87784466Y-63765534D02*
X87784466Y-64415534D01*
X88904466Y-65135534D02*
X86664466Y-65135534D01*
X86664466Y-64415534D02*
X86664466Y-68655534D01*
X88904466Y-65015534D02*
X86664466Y-65015534D01*
X86664466Y-68655534D02*
X88904466Y-68655534D01*
X87784466Y-69305534D02*
X87784466Y-68655534D01*
X88904466Y-65255534D02*
X86664466Y-65255534D01*
X88904466Y-64415534D02*
X86664466Y-64415534D01*
%TO.C,D5*%
X109904466Y-65015534D02*
X107664466Y-65015534D01*
X109904466Y-65135534D02*
X107664466Y-65135534D01*
X107664466Y-68655534D02*
X109904466Y-68655534D01*
X108784466Y-63765534D02*
X108784466Y-64415534D01*
X107664466Y-64415534D02*
X107664466Y-68655534D01*
X108784466Y-69305534D02*
X108784466Y-68655534D01*
X109904466Y-68655534D02*
X109904466Y-64415534D01*
X109904466Y-64415534D02*
X107664466Y-64415534D01*
X109904466Y-65255534D02*
X107664466Y-65255534D01*
%TO.C,D3*%
X112749466Y-51400534D02*
X108864466Y-51400534D01*
X112749466Y-53670534D02*
X112749466Y-51400534D01*
X108864466Y-53670534D02*
X112749466Y-53670534D01*
%TO.C,D7*%
X101664466Y-64415534D02*
X101664466Y-68655534D01*
X103904466Y-65015534D02*
X101664466Y-65015534D01*
X102784466Y-69305534D02*
X102784466Y-68655534D01*
X103904466Y-65255534D02*
X101664466Y-65255534D01*
X101664466Y-68655534D02*
X103904466Y-68655534D01*
X102784466Y-63765534D02*
X102784466Y-64415534D01*
X103904466Y-68655534D02*
X103904466Y-64415534D01*
X103904466Y-64415534D02*
X101664466Y-64415534D01*
X103904466Y-65135534D02*
X101664466Y-65135534D01*
%TO.C,R1*%
X91830000Y-53615534D02*
X91830000Y-57455534D01*
X93670000Y-57455534D02*
X93670000Y-53615534D01*
X92750000Y-52665534D02*
X92750000Y-53615534D01*
X92750000Y-58405534D02*
X92750000Y-57455534D01*
X91830000Y-57455534D02*
X93670000Y-57455534D01*
X93670000Y-53615534D02*
X91830000Y-53615534D01*
%TO.C,D1*%
X102749466Y-53670534D02*
X102749466Y-51400534D01*
X102749466Y-51400534D02*
X98864466Y-51400534D01*
X98864466Y-53670534D02*
X102749466Y-53670534D01*
%TO.C,D10*%
X92664466Y-64415534D02*
X92664466Y-68655534D01*
X94904466Y-65135534D02*
X92664466Y-65135534D01*
X94904466Y-65015534D02*
X92664466Y-65015534D01*
X94904466Y-65255534D02*
X92664466Y-65255534D01*
X93784466Y-63765534D02*
X93784466Y-64415534D01*
X94904466Y-64415534D02*
X92664466Y-64415534D01*
X94904466Y-68655534D02*
X94904466Y-64415534D01*
X92664466Y-68655534D02*
X94904466Y-68655534D01*
X93784466Y-69305534D02*
X93784466Y-68655534D01*
%TO.C,D6*%
X106904466Y-68655534D02*
X106904466Y-64415534D01*
X104664466Y-68655534D02*
X106904466Y-68655534D01*
X106904466Y-65255534D02*
X104664466Y-65255534D01*
X106904466Y-65015534D02*
X104664466Y-65015534D01*
X104664466Y-64415534D02*
X104664466Y-68655534D01*
X106904466Y-65135534D02*
X104664466Y-65135534D01*
X105784466Y-69305534D02*
X105784466Y-68655534D01*
X106904466Y-64415534D02*
X104664466Y-64415534D01*
X105784466Y-63765534D02*
X105784466Y-64415534D01*
%TO.C,D8*%
X100904466Y-68655534D02*
X100904466Y-64415534D01*
X98664466Y-68655534D02*
X100904466Y-68655534D01*
X100904466Y-65135534D02*
X98664466Y-65135534D01*
X98664466Y-64415534D02*
X98664466Y-68655534D01*
X99784466Y-63765534D02*
X99784466Y-64415534D01*
X100904466Y-64415534D02*
X98664466Y-64415534D01*
X99784466Y-69305534D02*
X99784466Y-68655534D01*
X100904466Y-65015534D02*
X98664466Y-65015534D01*
X100904466Y-65255534D02*
X98664466Y-65255534D01*
%TO.C,D11*%
X90784466Y-69305534D02*
X90784466Y-68655534D01*
X91904466Y-65255534D02*
X89664466Y-65255534D01*
X91904466Y-65135534D02*
X89664466Y-65135534D01*
X91904466Y-64415534D02*
X89664466Y-64415534D01*
X91904466Y-65015534D02*
X89664466Y-65015534D01*
X91904466Y-68655534D02*
X91904466Y-64415534D01*
X90784466Y-63765534D02*
X90784466Y-64415534D01*
X89664466Y-68655534D02*
X91904466Y-68655534D01*
X89664466Y-64415534D02*
X89664466Y-68655534D01*
%TO.C,D4*%
X112904466Y-65015534D02*
X110664466Y-65015534D01*
X111784466Y-69305534D02*
X111784466Y-68655534D01*
X110664466Y-68655534D02*
X112904466Y-68655534D01*
X111784466Y-63765534D02*
X111784466Y-64415534D01*
X112904466Y-65135534D02*
X110664466Y-65135534D01*
X112904466Y-68655534D02*
X112904466Y-64415534D01*
X112904466Y-65255534D02*
X110664466Y-65255534D01*
X110664466Y-64415534D02*
X110664466Y-68655534D01*
X112904466Y-64415534D02*
X110664466Y-64415534D01*
D18*
%TO.C,U1*%
X117850056Y-71653840D02*
X135647836Y-71653840D01*
X122249336Y-49230720D02*
X131243476Y-49230720D01*
X131243476Y-49230720D02*
X131243476Y-56584020D01*
X131243476Y-56584020D02*
X122244256Y-56584020D01*
D19*
X123311056Y-53238840D02*
X123311056Y-50571840D01*
X130169056Y-57305380D02*
X131947056Y-57305380D01*
X124200056Y-71018840D02*
X124200056Y-68478840D01*
X121533056Y-54635840D02*
X123311056Y-54635840D01*
D18*
X135647836Y-50655660D02*
X118520616Y-50655660D01*
D19*
X124200056Y-51333840D02*
X129280056Y-51333840D01*
D18*
X118520616Y-50655660D02*
X117850056Y-51326220D01*
D19*
X130169056Y-54635840D02*
X131947056Y-54635840D01*
X121533056Y-50571840D02*
X123311056Y-50571840D01*
X123311056Y-57305380D02*
X123311056Y-54635840D01*
X129915056Y-71018840D02*
X129915056Y-68478840D01*
X121533056Y-53238840D02*
X123311056Y-53238840D01*
D18*
X117850056Y-51326220D02*
X117850056Y-71653840D01*
D19*
X124200056Y-53873840D02*
X124200056Y-51333840D01*
X124200056Y-53873840D02*
X129280056Y-53873840D01*
X131947056Y-57305380D02*
X131947056Y-54635840D01*
X121533056Y-57305380D02*
X121533056Y-54635840D01*
X121533056Y-57305380D02*
X123311056Y-57305380D01*
X131947056Y-53238840D02*
X131947056Y-50571840D01*
X130169056Y-57305380D02*
X130169056Y-54635840D01*
X130169056Y-50571840D02*
X131947056Y-50571840D01*
X130169056Y-53238840D02*
X130169056Y-50571840D01*
X130169056Y-53238840D02*
X131947056Y-53238840D01*
X121533056Y-53238840D02*
X121533056Y-50571840D01*
D18*
X122244256Y-56584020D02*
X122244256Y-49230720D01*
D19*
X129280056Y-53873840D02*
X129280056Y-51333840D01*
D18*
X135647836Y-71653840D02*
X135647836Y-50655660D01*
D20*
X117088056Y-53492840D02*
G75*
G03*
X117088056Y-53492840I-127000J0D01*
G01*
D17*
%TO.C,R3*%
X101524466Y-57535534D02*
X100574466Y-57535534D01*
X100574466Y-56615534D02*
X96734466Y-56615534D01*
X95784466Y-57535534D02*
X96734466Y-57535534D01*
X100574466Y-58455534D02*
X100574466Y-56615534D01*
X96734466Y-56615534D02*
X96734466Y-58455534D01*
X96734466Y-58455534D02*
X100574466Y-58455534D01*
%TO.C,D2*%
X107749466Y-53670534D02*
X107749466Y-51400534D01*
X103864466Y-53670534D02*
X107749466Y-53670534D01*
X107749466Y-51400534D02*
X103864466Y-51400534D01*
%TO.C,D9*%
X97904466Y-65255534D02*
X95664466Y-65255534D01*
X96784466Y-69305534D02*
X96784466Y-68655534D01*
X97904466Y-65015534D02*
X95664466Y-65015534D01*
X96784466Y-63765534D02*
X96784466Y-64415534D01*
X97904466Y-64415534D02*
X95664466Y-64415534D01*
X95664466Y-68655534D02*
X97904466Y-68655534D01*
X95664466Y-64415534D02*
X95664466Y-68655534D01*
X97904466Y-65135534D02*
X95664466Y-65135534D01*
X97904466Y-68655534D02*
X97904466Y-64415534D01*
%TD*%
M02*
