%TF.GenerationSoftware,KiCad,Pcbnew,(6.0.4)*%
%TF.CreationDate,2022-06-27T22:40:44-04:00*%
%TF.ProjectId,xiao-rp2040-keypad,7869616f-2d72-4703-9230-34302d6b6579,rev?*%
%TF.SameCoordinates,Original*%
%TF.FileFunction,Soldermask,Top*%
%TF.FilePolarity,Negative*%
%FSLAX46Y46*%
G04 Gerber Fmt 4.6, Leading zero omitted, Abs format (unit mm)*
G04 Created by KiCad (PCBNEW (6.0.4)) date 2022-06-27 22:40:44*
%MOMM*%
%LPD*%
G01*
G04 APERTURE LIST*
G04 Aperture macros list*
%AMRoundRect*
0 Rectangle with rounded corners*
0 $1 Rounding radius*
0 $2 $3 $4 $5 $6 $7 $8 $9 X,Y pos of 4 corners*
0 Add a 4 corners polygon primitive as box body*
4,1,4,$2,$3,$4,$5,$6,$7,$8,$9,$2,$3,0*
0 Add four circle primitives for the rounded corners*
1,1,$1+$1,$2,$3*
1,1,$1+$1,$4,$5*
1,1,$1+$1,$6,$7*
1,1,$1+$1,$8,$9*
0 Add four rect primitives between the rounded corners*
20,1,$1+$1,$2,$3,$4,$5,0*
20,1,$1+$1,$4,$5,$6,$7,0*
20,1,$1+$1,$6,$7,$8,$9,0*
20,1,$1+$1,$8,$9,$2,$3,0*%
G04 Aperture macros list end*
%ADD10C,1.400000*%
%ADD11O,1.400000X1.400000*%
%ADD12R,1.600000X1.600000*%
%ADD13O,1.600000X1.600000*%
%ADD14C,3.987800*%
%ADD15C,1.750000*%
%ADD16RoundRect,0.250000X0.375000X0.625000X-0.375000X0.625000X-0.375000X-0.625000X0.375000X-0.625000X0*%
%ADD17C,3.200000*%
%ADD18O,2.748280X1.998980*%
%ADD19O,1.016000X2.032000*%
%ADD20C,1.143000*%
%ADD21C,1.300000*%
%ADD22R,1.700000X1.700000*%
%ADD23O,1.700000X1.700000*%
G04 APERTURE END LIST*
D10*
%TO.C,R2*%
X112274466Y-57535534D03*
D11*
X104654466Y-57535534D03*
%TD*%
D12*
%TO.C,D12*%
X87784466Y-62725534D03*
D13*
X87784466Y-70345534D03*
%TD*%
D14*
%TO.C,SW6*%
X138500000Y-101285534D03*
D15*
X133420000Y-101285534D03*
X143580000Y-101285534D03*
%TD*%
D12*
%TO.C,D5*%
X108784466Y-62725534D03*
D13*
X108784466Y-70345534D03*
%TD*%
D15*
%TO.C,SW7*%
X105480000Y-120335534D03*
D14*
X100400000Y-120335534D03*
D15*
X95320000Y-120335534D03*
%TD*%
D16*
%TO.C,D3*%
X111864466Y-52535534D03*
X109064466Y-52535534D03*
%TD*%
D12*
%TO.C,D7*%
X102784466Y-62725534D03*
D13*
X102784466Y-70345534D03*
%TD*%
D17*
%TO.C,H2*%
X88000000Y-54000000D03*
%TD*%
D15*
%TO.C,SW3*%
X143580000Y-82235534D03*
X133420000Y-82235534D03*
D14*
X138500000Y-82235534D03*
%TD*%
%TO.C,SW2*%
X119450000Y-82235534D03*
D15*
X114370000Y-82235534D03*
X124530000Y-82235534D03*
%TD*%
D17*
%TO.C,H3*%
X151000000Y-54000000D03*
%TD*%
D10*
%TO.C,R1*%
X92750000Y-51725534D03*
D11*
X92750000Y-59345534D03*
%TD*%
D16*
%TO.C,D1*%
X101864466Y-52535534D03*
X99064466Y-52535534D03*
%TD*%
D12*
%TO.C,D10*%
X93784466Y-62725534D03*
D13*
X93784466Y-70345534D03*
%TD*%
D15*
%TO.C,SW1*%
X95320000Y-82235534D03*
D14*
X100400000Y-82235534D03*
D15*
X105480000Y-82235534D03*
%TD*%
D14*
%TO.C,SW8*%
X119450000Y-120335534D03*
D15*
X124530000Y-120335534D03*
X114370000Y-120335534D03*
%TD*%
D12*
%TO.C,D6*%
X105784466Y-62725534D03*
D13*
X105784466Y-70345534D03*
%TD*%
D15*
%TO.C,SW9*%
X133420000Y-120335534D03*
X143580000Y-120335534D03*
D14*
X138500000Y-120335534D03*
%TD*%
D12*
%TO.C,D8*%
X99784466Y-62725534D03*
D13*
X99784466Y-70345534D03*
%TD*%
D15*
%TO.C,SW4*%
X105480000Y-101285534D03*
D14*
X100400000Y-101285534D03*
D15*
X95320000Y-101285534D03*
%TD*%
D12*
%TO.C,D11*%
X90784466Y-62725534D03*
D13*
X90784466Y-70345534D03*
%TD*%
D17*
%TO.C,H1*%
X88000000Y-132000000D03*
%TD*%
D15*
%TO.C,SW5*%
X114370000Y-101285534D03*
X124530000Y-101285534D03*
D14*
X119450000Y-101285534D03*
%TD*%
D12*
%TO.C,D4*%
X111784466Y-62725534D03*
D13*
X111784466Y-70345534D03*
%TD*%
D18*
%TO.C,U1*%
X118683176Y-53536020D03*
X118683176Y-56076020D03*
X118683176Y-58616020D03*
X118683176Y-61156020D03*
X118683176Y-63696020D03*
X118683176Y-66236020D03*
X118683176Y-68776020D03*
X134847736Y-68776020D03*
X134847736Y-66236020D03*
X134847736Y-63696020D03*
X134847736Y-61156020D03*
X134847736Y-58616020D03*
X134847736Y-56076020D03*
X134847736Y-53536020D03*
D19*
X125550056Y-69853840D03*
X128100056Y-69853840D03*
D20*
X125548859Y-52849653D03*
X128088859Y-52849653D03*
X125548859Y-55389653D03*
X128088859Y-55389653D03*
%TD*%
D10*
%TO.C,R3*%
X102464466Y-57535534D03*
D11*
X94844466Y-57535534D03*
%TD*%
D16*
%TO.C,D2*%
X106864466Y-52535534D03*
X104064466Y-52535534D03*
%TD*%
D17*
%TO.C,H4*%
X151000000Y-132000000D03*
%TD*%
D12*
%TO.C,D9*%
X96784466Y-62725534D03*
D13*
X96784466Y-70345534D03*
%TD*%
D21*
%TO.C,J2*%
X146500000Y-66964466D03*
%TD*%
D22*
%TO.C,J1*%
X142500000Y-57500000D03*
D23*
X139960000Y-57500000D03*
X142500000Y-54960000D03*
X139960000Y-54960000D03*
X142500000Y-52420000D03*
X139960000Y-52420000D03*
%TD*%
M02*
