M48
; DRILL file {KiCad (6.0.4)} date Mon Jun 27 22:40:46 2022
; FORMAT={-:-/ absolute / inch / decimal}
; #@! TF.CreationDate,2022-06-27T22:40:46-04:00
; #@! TF.GenerationSoftware,Kicad,Pcbnew,(6.0.4)
; #@! TF.FileFunction,NonPlated,1,2,NPTH
FMAT,2
INCH
; #@! TA.AperFunction,NonPlated,NPTH,ComponentDrill
T1C0.0512
; #@! TA.AperFunction,NonPlated,NPTH,ComponentDrill
T2C0.0689
; #@! TA.AperFunction,NonPlated,NPTH,ComponentDrill
T3C0.1260
; #@! TA.AperFunction,NonPlated,NPTH,ComponentDrill
T4C0.1570
%
G90
G05
T1
X5.7677Y-2.6364
T2
X3.7528Y-3.2376
X3.7528Y-3.9876
X3.7528Y-4.7376
X4.1528Y-3.2376
X4.1528Y-3.9876
X4.1528Y-4.7376
X4.5028Y-3.2376
X4.5028Y-3.9876
X4.5028Y-4.7376
X4.9028Y-3.2376
X4.9028Y-3.9876
X4.9028Y-4.7376
X5.2528Y-3.2376
X5.2528Y-3.9876
X5.2528Y-4.7376
X5.6528Y-3.2376
X5.6528Y-3.9876
X5.6528Y-4.7376
T3
X3.4646Y-2.126
X3.4646Y-5.1969
X5.9449Y-2.126
X5.9449Y-5.1969
T4
X3.9528Y-3.2376
X3.9528Y-3.9876
X3.9528Y-4.7376
X4.7028Y-3.2376
X4.7028Y-3.9876
X4.7028Y-4.7376
X5.4528Y-3.2376
X5.4528Y-3.9876
X5.4528Y-4.7376
T0
M30
