M48
; DRILL file {KiCad (6.0.4)} date Mon Jun 27 22:40:46 2022
; FORMAT={-:-/ absolute / inch / decimal}
; #@! TF.CreationDate,2022-06-27T22:40:46-04:00
; #@! TF.GenerationSoftware,Kicad,Pcbnew,(6.0.4)
; #@! TF.FileFunction,Plated,1,2,PTH
FMAT,2
INCH
; #@! TA.AperFunction,Plated,PTH,ViaDrill
T1C0.0118
; #@! TA.AperFunction,Plated,PTH,ComponentDrill
T2C0.0276
; #@! TA.AperFunction,Plated,PTH,ComponentDrill
T3C0.0315
; #@! TA.AperFunction,Plated,PTH,ComponentDrill
T4C0.0394
; #@! TA.AperFunction,Plated,PTH,ComponentDrill
T5C0.0579
%
G90
G05
T1
X3.3563Y-2.3425
X3.3563Y-2.8937
X3.3661Y-2.9921
X3.3858Y-4.0945
X3.5827Y-4.2421
X3.6122Y-4.3996
X3.6614Y-4.5374
X3.8091Y-2.9921
X3.8287Y-3.3563
X3.937Y-3.1102
X4.0453Y-2.1457
X4.1339Y-2.0866
X4.1831Y-2.2638
X4.1831Y-2.9528
X4.2073Y-2.0683
X4.2126Y-1.9488
X4.3012Y-3.0512
X4.3701Y-2.9983
X4.3996Y-3.1102
X4.4094Y-3.7598
X4.4882Y-2.2047
X4.5276Y-1.9488
X4.5669Y-1.9587
X4.5669Y-2.0669
X4.5866Y-2.7067
X4.6176Y-2.0163
X4.6176Y-2.1077
X4.7835Y-1.9587
X4.7835Y-4.252
X4.7933Y-2.6772
X4.8327Y-2.5098
X4.8524Y-2.0079
X5.1083Y-2.6181
X5.1083Y-2.8248
X5.1378Y-3.1496
X5.1772Y-2.5098
X5.1772Y-3.3563
X5.2264Y-2.6378
X5.4134Y-2.4311
X5.5118Y-2.8937
X5.5413Y-4.3996
X5.561Y-4.1043
X5.6791Y-2.7953
X5.7087Y-2.0669
X5.7382Y-2.2835
X5.7776Y-1.998
X5.8366Y-2.2835
X5.9646Y-2.784
X6.0728Y-2.2835
T2
X3.6516Y-2.0364
X3.6516Y-2.3364
X3.734Y-2.2652
X4.034Y-2.2652
X4.1203Y-2.2652
X4.4203Y-2.2652
T3
X3.4561Y-2.4695
X3.4561Y-2.7695
X3.5742Y-2.4695
X3.5742Y-2.7695
X3.6923Y-2.4695
X3.6923Y-2.7695
X3.8104Y-2.4695
X3.8104Y-2.7695
X3.9285Y-2.4695
X3.9285Y-2.7695
X4.0466Y-2.4695
X4.0466Y-2.7695
X4.1647Y-2.4695
X4.1647Y-2.7695
X4.2829Y-2.4695
X4.2829Y-2.7695
X4.401Y-2.4695
X4.401Y-2.7695
T4
X5.5102Y-2.0638
X5.5102Y-2.1638
X5.5102Y-2.2638
X5.6102Y-2.0638
X5.6102Y-2.1638
X5.6102Y-2.2638
T5
X3.8028Y-3.1376
X3.8028Y-3.8876
X3.8028Y-4.6376
X4.0528Y-3.0376
X4.0528Y-3.7876
X4.0528Y-4.5376
X4.5528Y-3.1376
X4.5528Y-3.8876
X4.5528Y-4.6376
X4.8028Y-3.0376
X4.8028Y-3.7876
X4.8028Y-4.5376
X5.3028Y-3.1376
X5.3028Y-3.8876
X5.3028Y-4.6376
X5.5528Y-3.0376
X5.5528Y-3.7876
X5.5528Y-4.5376
T0
M30
